<svg width="14" height="14" viewBox="0 0 14 14" fill="none" xmlns="http://www.w3.org/2000/svg">
<g clip-path="url(#clip0_1094_2456)">
<path d="M6.28906 0.385571C4.9875 0.544165 3.75703 1.06916 2.80274 1.87034L2.55664 2.07541L2.17383 1.69807C1.96328 1.48752 1.76367 1.30432 1.73086 1.28791C1.64883 1.2469 1.46016 1.24963 1.37266 1.29612C1.19219 1.38909 1.19766 1.37268 0.768362 3.13362C0.544143 4.04963 0.352737 4.8426 0.341799 4.89729C0.303518 5.1051 0.481253 5.34299 0.694534 5.37854C0.762893 5.38948 1.26875 5.27737 2.50742 4.97385C4.21914 4.55549 4.22461 4.55549 4.32578 4.45705C4.43516 4.34768 4.47344 4.21916 4.44336 4.05237C4.42696 3.9676 4.35313 3.87737 3.99766 3.51916L3.56836 3.08713L3.63672 3.03244C4.04414 2.70432 4.34219 2.51291 4.75781 2.3133C7.12852 1.1758 9.98594 2.00432 11.4105 4.24651C11.5828 4.51448 11.807 4.98479 11.9219 5.32385C12.4496 6.8551 12.2309 8.57229 11.334 9.91213C11.1262 10.2239 11.0004 10.377 10.6066 10.8063C10.2977 11.1399 10.2676 11.1973 10.2676 11.4707C10.2676 11.6594 10.2785 11.7059 10.3414 11.8125C10.5355 12.1406 10.8582 12.2692 11.2219 12.1625C11.427 12.1024 12.0805 11.4215 12.4742 10.8528C13.8551 8.87034 14.0438 6.21526 12.9582 4.0387C12.1023 2.32971 10.5602 1.05823 8.75 0.576977C8.15664 0.418383 7.84219 0.377368 7.13672 0.369164C6.78399 0.363696 6.40117 0.369164 6.28906 0.385571Z" fill="url(#paint0_linear_1094_2456)"/>
<path d="M6.65821 3.37385C6.50782 3.44221 6.36837 3.58439 6.29728 3.74025C6.25626 3.83049 6.24806 3.99728 6.23438 5.23596L6.22071 6.62775L5.38126 7.16369C4.92188 7.45627 4.5172 7.7215 4.48438 7.75158C4.44884 7.78166 4.39415 7.86643 4.3586 7.94299C4.27931 8.10705 4.26837 8.39416 4.33399 8.55275C4.38868 8.67853 4.54728 8.84807 4.68126 8.91643C4.80431 8.97932 5.12423 8.98752 5.25821 8.9301C5.38399 8.87814 7.38282 7.60939 7.47579 7.52463C7.51954 7.48361 7.58243 7.38791 7.61798 7.31408L7.6836 7.17736V5.53674C7.6836 4.48947 7.67267 3.86057 7.65626 3.79494C7.61251 3.63908 7.46759 3.46955 7.30353 3.38478C7.10938 3.28361 6.86056 3.27814 6.65821 3.37385Z" fill="url(#paint1_linear_1094_2456)"/>
<path d="M8.46016 12.028C8.10469 12.1346 7.9543 12.2604 7.86133 12.5201C7.72735 12.903 7.94336 13.3541 8.31524 13.4635C8.52305 13.5264 8.64883 13.5182 8.93868 13.4225C9.33789 13.2885 9.53203 13.0752 9.56211 12.7416C9.60313 12.3096 9.2586 11.9432 8.8211 11.9514C8.75821 11.9514 8.59688 11.9869 8.46016 12.028Z" fill="#F58888"/>
<path d="M5.48244 12.2063C5.05314 12.4086 4.91642 12.9527 5.19533 13.3465C5.32658 13.5297 5.65744 13.6418 6.07306 13.6445C6.40119 13.6445 6.62814 13.5051 6.75666 13.2207C6.82775 13.0676 6.82502 12.7668 6.75119 12.6055C6.63635 12.3512 6.46408 12.2391 6.10041 12.1789C5.76955 12.1242 5.64103 12.1297 5.48244 12.2063Z" fill="#F58888"/>
</g>
<defs>
<linearGradient id="paint0_linear_1094_2456" x1="6.99743" y1="12.1992" x2="7" y2="-1.5" gradientUnits="userSpaceOnUse">
<stop stop-color="#3674B6"/>
<stop offset="1" stop-color="#2B5279"/>
</linearGradient>
<linearGradient id="paint1_linear_1094_2456" x1="5.98737" y1="8.96875" x2="5.98737" y2="3.30536" gradientUnits="userSpaceOnUse">
<stop stop-color="#3674B6"/>
<stop offset="1" stop-color="#2B5279"/>
</linearGradient>
<clipPath id="clip0_1094_2456">
<rect width="14" height="14" fill="white"/>
</clipPath>
</defs>
</svg>
