<svg width="8" height="9" viewBox="0 0 8 9" fill="none" xmlns="http://www.w3.org/2000/svg">
<g clip-path="url(#clip0_247_480)">
<path d="M1.5236 0.521772C1.45485 0.553022 1.39391 0.615522 1.35954 0.690522C1.33141 0.75146 1.32829 0.795209 1.32829 1.12802V1.4999H1.08454C0.7986 1.4999 0.709538 1.51865 0.523601 1.61396C0.354851 1.70146 0.201726 1.85458 0.114226 2.02333C-0.00921198 2.2624 0.000163024 2.02646 0.000163024 4.9999C0.000163024 7.97333 -0.00921198 7.7374 0.114226 7.97646C0.201726 8.14521 0.354851 8.29833 0.525163 8.3874C0.759538 8.50771 0.4861 8.4999 4.00016 8.4999C7.51423 8.4999 7.24079 8.50771 7.47516 8.3874C7.64548 8.29833 7.7986 8.14521 7.8861 7.97646C8.00954 7.7374 8.00016 7.97333 8.00016 4.9999C8.00016 2.02646 8.00954 2.2624 7.8861 2.02333C7.7986 1.85458 7.64548 1.70146 7.47673 1.61396C7.29079 1.51865 7.20173 1.4999 6.91579 1.4999H6.67204V1.12802C6.67204 0.760834 6.67204 0.754584 6.63298 0.676459C6.60798 0.62646 6.56891 0.579585 6.52829 0.553022C6.46423 0.50771 6.46266 0.50771 6.1861 0.503022C5.87985 0.496772 5.83923 0.506147 5.74704 0.604584C5.66735 0.68896 5.65641 0.75146 5.65641 1.14208V1.4999H4.00016H2.34391V1.14677C2.34391 0.760834 2.3361 0.706147 2.26266 0.617085C2.17516 0.512397 2.12985 0.499897 1.83298 0.499897C1.65016 0.50146 1.55641 0.50771 1.5236 0.521772ZM7.32516 5.72177L7.32048 7.58583L7.27673 7.65927C7.2486 7.70771 7.20798 7.74833 7.15954 7.77646L7.0861 7.82021H4.00016H0.914226L0.840788 7.77646C0.79235 7.74833 0.751726 7.70771 0.723601 7.65927L0.679851 7.58583L0.675163 5.72177L0.672038 3.85927H4.00016H7.32829L7.32516 5.72177Z" fill="white"/>
</g>
<defs>
<clipPath id="clip0_247_480">
<rect width="8" height="8" fill="white" transform="translate(0 0.5)"/>
</clipPath>
</defs>
</svg>
