<svg width="25" height="24" viewBox="0 0 25 24" fill="none" xmlns="http://www.w3.org/2000/svg">
<path d="M7.45067 3.58916C7.33587 3.681 7.275 3.85385 7.25169 4.2014V5.51311H6.43282C5.72874 5.51311 5.26411 5.50896 4.93503 5.66202C4.52177 5.85334 4.46522 5.90224 4.29685 6.30019C4.22798 6.47621 4.19049 7.02163 4.19049 8.10835V9.01514H12.7619H21.3332V7.92225C21.3332 6.83553 21.2774 6.68894 21.2085 6.51292C21.0401 6.11496 20.9836 5.9597 20.5703 5.76838C20.2412 5.61532 19.795 5.51315 19.0985 5.51315L18.272 5.51311V4.2014C18.272 3.80344 18.1936 3.67252 18.0176 3.53477C17.9028 3.44293 17.6006 3.4284 17.4858 3.4284C17.371 3.4284 17.0688 3.44293 16.954 3.53477C16.778 3.67252 16.7413 3.77498 16.7413 4.17294V5.51311H12.7619H8.78535V4.21813C8.78535 3.82017 8.71252 3.72691 8.5365 3.58916C8.42171 3.49732 8.13434 3.4284 8.01954 3.4284C7.90475 3.4284 7.56546 3.49732 7.45067 3.58916ZM8.46852 5.732C8.43791 6.71924 8.43791 6.73454 8.22362 6.91822C8.10883 7.0177 7.94046 7.10189 7.86393 7.10189C7.7874 7.10189 7.61904 7.0177 7.50424 6.91822C7.28996 6.73454 7.28996 6.71924 7.25934 5.732V7.39576L10.9006 6.6121L8.47617 5.36745L8.46852 5.732ZM18.2644 5.732C18.2337 6.71924 18.2338 6.73454 18.0195 6.91822C17.9047 7.0177 17.7363 7.10189 17.6598 7.10189C17.5832 7.10189 17.4149 7.0177 17.3001 6.91822C17.0858 6.73454 17.0858 6.71924 17.0552 5.732L16.8761 7.98351L20.2067 7.68964L18.8685 7.04473L18.2644 5.732Z" fill="#B8CCE0"/>
<path d="M21.1583 9.96899C21.2549 9.96899 21.3331 10.0472 21.3331 10.1438V19.1145L21.1036 19.512C20.8511 19.9481 20.5836 20.1708 20.1016 20.3391C19.6196 20.5075 5.90915 20.5074 5.42291 20.3391C4.94077 20.1707 4.67253 19.9482 4.41998 19.512L4.19049 19.1145V10.1438C4.19049 10.0473 4.26883 9.96916 4.3653 9.96899H21.1583ZM15.7618 12.1975C15.571 12.2298 15.6762 12.1317 13.585 14.22L11.6524 16.1516L10.7676 15.2698C9.94912 14.4527 9.87712 14.3846 9.79205 14.3479C9.52359 14.2305 9.20793 14.3227 9.04791 14.5647C8.98041 14.6645 8.95221 14.7632 8.95221 14.8967C8.95221 15.0257 8.98005 15.1242 9.0401 15.218C9.06358 15.2547 9.58342 15.7862 10.1954 16.3967C11.4102 17.6101 11.3563 17.5637 11.5645 17.5959C11.6877 17.6165 11.8022 17.5969 11.9297 17.5383C12.0207 17.4958 12.1488 17.371 14.1944 15.3254C16.2764 13.2434 16.3633 13.1532 16.4102 13.0549C16.4557 12.9582 16.459 12.9435 16.459 12.7913C16.459 12.6417 16.4556 12.6223 16.4131 12.5344C16.2972 12.2894 16.0333 12.152 15.7618 12.1975Z" fill="#DDE7F0"/>
</svg>
