<svg width="16" height="16" viewBox="0 0 16 16" fill="none" xmlns="http://www.w3.org/2000/svg">
<path d="M8.44379 1.06564C8.22191 1.20938 8.15629 1.52814 8.29379 1.76564C8.39379 1.93126 8.50316 1.98439 8.92191 2.06564C10.075 2.28751 11.2375 2.93126 12.0594 3.80001C12.5125 4.27813 12.8344 4.74688 13.125 5.35001C13.625 6.39376 13.7969 7.39376 13.6813 8.58438C13.6532 8.87813 13.6532 8.99688 13.6844 9.09063C13.75 9.31251 14.025 9.46876 14.2657 9.42501C14.4157 9.39688 14.6157 9.21251 14.6563 9.06563C14.7719 8.62501 14.7719 7.43126 14.6563 6.75001C14.2313 4.29063 12.5532 2.25314 10.2188 1.35939C9.77816 1.19064 9.12191 1.02814 8.81254 1.00939C8.57816 0.996885 8.53441 1.00314 8.44379 1.06564Z" fill="#F58888"/>
<path d="M3.76558 1.84379C3.48433 1.89379 3.34058 1.96566 2.59683 2.41566C1.62183 3.00316 1.4312 3.19379 1.29683 3.70941C1.17808 4.16566 1.29058 5.61566 1.5312 6.71879C1.85933 8.21566 2.52495 9.74066 3.38433 10.9688C4.14058 12.0469 5.04683 12.9907 6.0812 13.775C6.7687 14.2938 7.7437 14.8657 8.0937 14.9563C8.34683 15.0188 8.7937 15.0032 8.99995 14.9219C9.28433 14.8094 10.5968 13.9907 10.7875 13.8094C11.2218 13.3844 11.3593 12.6782 11.1093 12.1313C11.0312 11.9625 10.4031 10.9157 10.1843 10.5875C9.89995 10.1657 9.47183 9.95316 8.92183 9.95629C8.53433 9.95941 8.4187 10 7.8437 10.3438C7.37808 10.6219 7.3312 10.6407 7.16245 10.6125C7.0687 10.5938 6.98745 10.5282 6.7187 10.2532C5.88745 9.40941 5.1687 8.21566 4.7812 7.05316C4.6187 6.55629 4.6687 6.46254 5.31245 6.07816C5.72183 5.83129 5.90308 5.67816 6.04995 5.45004C6.21558 5.19379 6.2812 4.95316 6.2812 4.61879C6.27808 4.20316 6.21558 4.04691 5.67808 3.16879C5.0937 2.20941 4.9187 2.03129 4.43745 1.89379C4.2062 1.83129 3.95308 1.81254 3.76558 1.84379Z" fill="url(#paint0_linear_247_494)"/>
<path d="M8.20318 3.00931C7.93755 3.13431 7.83755 3.43431 7.97193 3.70619C8.05318 3.88119 8.17505 3.94994 8.4938 4.01556C8.97818 4.11244 9.5688 4.35306 9.93755 4.60306C10.8876 5.24681 11.5251 6.26556 11.6876 7.39056C11.7251 7.64994 11.7251 8.19681 11.6876 8.43744C11.6407 8.74994 11.7501 8.98119 11.9876 9.08119C12.1907 9.16556 12.3844 9.12494 12.5532 8.96244C12.7063 8.81556 12.7344 8.64681 12.7344 7.90619C12.7313 7.20306 12.6876 6.90619 12.4969 6.32806C12.0501 4.96556 10.9282 3.77806 9.60005 3.26556C8.97818 3.02494 8.39693 2.91869 8.20318 3.00931Z" fill="#F58888"/>
<path d="M7.88438 5.00309C7.54376 5.17184 7.51251 5.68122 7.82813 5.87497C7.88126 5.90622 8.03751 5.95934 8.18126 5.99684C8.93438 6.18434 9.50626 6.76872 9.67501 7.51872C9.71563 7.70309 9.72188 7.83747 9.70938 8.07809C9.69063 8.36559 9.69376 8.40934 9.75938 8.53122C9.85626 8.72184 9.96251 8.79059 10.1781 8.80622C10.3281 8.81559 10.3781 8.80622 10.4656 8.74372C10.6969 8.58747 10.7469 8.43747 10.7469 7.92184C10.7531 6.53747 9.80001 5.32184 8.46251 4.99997C8.13438 4.92184 8.04688 4.92184 7.88438 5.00309Z" fill="#F58888"/>
<defs>
<linearGradient id="paint0_linear_247_494" x1="6.24135" y1="14.9946" x2="6.24135" y2="1.82894" gradientUnits="userSpaceOnUse">
<stop stop-color="#3674B6"/>
<stop offset="1" stop-color="#2B5279"/>
</linearGradient>
</defs>
</svg>
