<svg width="14" height="14" viewBox="0 0 14 14" fill="none" xmlns="http://www.w3.org/2000/svg">
<g clip-path="url(#clip0_1433_3206)">
<path d="M11.3122 0.35257C11.5638 0.418195 12.9118 1.23851 13.363 1.60491C13.5052 1.71976 13.6063 1.88382 13.6446 2.06976C13.6829 2.23929 13.6391 2.5264 13.4778 3.17991C12.9063 5.5014 11.561 7.79827 9.67157 9.68499C8.0118 11.342 6.06493 12.5588 3.9786 13.2451C3.53016 13.3928 2.8575 13.5651 2.48016 13.628C2.02352 13.7073 1.78837 13.6143 1.52313 13.2561C1.17587 12.783 0.683678 12.001 0.470397 11.5799C0.278991 11.2026 0.292663 11.0221 0.536021 10.5819C1.12665 9.51273 1.95243 8.8428 3.18836 8.42991C3.64227 8.27952 3.86922 8.26038 4.0743 8.35882C4.14266 8.3889 4.49813 8.66507 4.86727 8.96859C5.23641 9.2721 5.58368 9.54554 5.64383 9.57562C5.79149 9.65218 6.00751 9.66858 6.16063 9.61663C6.29188 9.57288 6.73211 9.28851 7.09579 9.01507C7.77665 8.50101 8.38641 7.90218 8.91961 7.21585C9.18212 6.87679 9.52391 6.36819 9.58407 6.22327C9.64696 6.07835 9.64149 5.82679 9.57586 5.68187C9.54579 5.61624 9.26688 5.25804 8.9579 4.88069C8.64891 4.50609 8.37274 4.15335 8.3454 4.1014C8.31258 4.03304 8.29891 3.94007 8.29891 3.77327C8.30165 3.57366 8.31805 3.49437 8.41649 3.19905C8.78836 2.1053 9.37626 1.3096 10.2294 0.749054C10.7325 0.418195 11.0743 0.292413 11.3122 0.35257Z" fill="white"/>
</g>
<defs>
<clipPath id="clip0_1433_3206">
<rect width="14" height="14" fill="white" transform="matrix(-1 0 0 1 14 0)"/>
</clipPath>
</defs>
</svg>
