<svg width="14" height="14" viewBox="0 0 14 14" fill="none" xmlns="http://www.w3.org/2000/svg">
<path d="M6.21915 1.0159C5.59845 1.11434 5.10079 1.37137 4.67423 1.81707C3.85392 2.67293 3.7172 3.97996 4.34337 5.02723C4.48282 5.26238 4.86017 5.6452 5.13087 5.82567C6.08517 6.46278 7.35392 6.39715 8.26446 5.65887C8.7211 5.28973 9.08478 4.66082 9.17774 4.06746C9.23243 3.74207 9.19962 3.18973 9.11212 2.89442C8.83321 1.96199 8.07853 1.25379 7.1461 1.05418C6.90275 1.00223 6.4297 0.983087 6.21915 1.0159Z" fill="url(#paint0_linear_1094_2429)"/>
<path d="M9.35579 6.62759C7.83001 6.90376 6.75814 8.31743 6.91673 9.84048C7.05071 11.1667 7.96399 12.1866 9.2765 12.4846C9.51712 12.5393 10.1925 12.5448 10.4277 12.4956C11.598 12.2522 12.4484 11.451 12.771 10.2862C12.823 10.103 12.8312 9.99907 12.8312 9.56704C12.8339 9.09673 12.8284 9.04204 12.7601 8.79321C12.4921 7.83618 11.7894 7.07329 10.8788 6.75611C10.4222 6.59751 9.81243 6.54556 9.35579 6.62759ZM8.92103 8.09321C9.00306 8.11509 9.11517 8.20806 9.39134 8.47603C9.74954 8.82876 9.75228 8.82876 9.88079 8.82876C10.012 8.82876 10.012 8.82876 10.3702 8.47603C10.7613 8.09048 10.8515 8.03853 11.0456 8.09048C11.1878 8.12876 11.2781 8.21079 11.33 8.35025C11.4148 8.56626 11.382 8.63462 11.0183 9.0065C10.6355 9.39751 10.6054 9.43853 10.6054 9.57798C10.6054 9.67642 10.6273 9.7065 10.9581 10.0428C11.2042 10.2944 11.3191 10.4311 11.3437 10.5049C11.4503 10.8331 11.1113 11.142 10.7777 11.0135C10.7367 10.9999 10.5534 10.8385 10.373 10.6608C10.1925 10.4831 10.012 10.3245 9.97103 10.3081C9.81517 10.2506 9.73587 10.2971 9.37493 10.6471C9.18626 10.8303 9.00579 10.9944 8.97298 11.0135C8.94017 11.0299 8.86634 11.0436 8.80892 11.0436C8.52454 11.0436 8.31673 10.7456 8.4179 10.4803C8.43431 10.4393 8.59837 10.2506 8.78431 10.062C8.97025 9.87329 9.13157 9.68736 9.14251 9.65454C9.18626 9.50689 9.13978 9.42485 8.81165 9.1022C8.39603 8.68931 8.3304 8.55806 8.42884 8.32837C8.47532 8.21626 8.55189 8.15064 8.68314 8.10142C8.81165 8.05767 8.79251 8.05767 8.92103 8.09321Z" fill="#F58888"/>
<path d="M5.4043 7.00781C3.91133 7.19922 2.65078 8.23008 2.18047 9.64375C2.03555 10.084 2 10.3109 2 10.8059C2 11.2051 2.0082 11.2762 2.06016 11.4184C2.24336 11.9051 2.57969 12.2305 3.09922 12.4273C3.25508 12.4848 3.28789 12.4875 4.98047 12.4957L6.70586 12.5039L6.79883 12.441C6.90547 12.3672 6.97656 12.2059 6.95195 12.0828C6.94375 12.0418 6.86172 11.8859 6.77148 11.7383C5.98672 10.4586 5.98945 8.93008 6.77969 7.66133C6.92188 7.43711 6.94375 7.29219 6.86719 7.1418C6.79063 6.99141 6.72227 6.97773 6.12344 6.98047C5.82539 6.9832 5.50273 6.99414 5.4043 7.00781Z" fill="url(#paint1_linear_1094_2429)"/>
<defs>
<linearGradient id="paint0_linear_1094_2429" x1="6.70117" y1="10.3398" x2="6.57836" y2="0.999695" gradientUnits="userSpaceOnUse">
<stop stop-color="#3674B6"/>
<stop offset="1" stop-color="#2B5279"/>
</linearGradient>
<linearGradient id="paint1_linear_1094_2429" x1="4.47842" y1="12.5039" x2="4.20117" y2="1.33984" gradientUnits="userSpaceOnUse">
<stop stop-color="#3674B6"/>
<stop offset="1" stop-color="#2B5279"/>
</linearGradient>
</defs>
</svg>
