<svg width="14" height="14" viewBox="0 0 14 14" fill="none" xmlns="http://www.w3.org/2000/svg">
<path d="M5.91717 0.366406C5.87069 0.388281 5.81874 0.4375 5.7996 0.48125C5.77772 0.541406 5.76952 0.935156 5.77499 2.0207L5.78319 3.47813L5.85975 3.54375L5.93631 3.60938H7.00272H8.06913L8.13475 3.54102L8.20311 3.47539V1.99609C8.20311 1.03359 8.19217 0.497656 8.17577 0.462109C8.10467 0.333594 8.05272 0.328125 6.99452 0.328125C6.22616 0.330859 5.9828 0.339062 5.91717 0.366406Z" fill="#F58888"/>
<path d="M2.72617 2.55391C2.57305 2.60859 2.44453 2.71797 2.38164 2.85195L2.32422 2.96953V8.09648V13.2234L2.41445 13.3711C2.48008 13.4832 2.53477 13.5352 2.63867 13.5898L2.77266 13.6582H7H11.2273L11.3613 13.5898C11.4652 13.5352 11.5199 13.4832 11.5883 13.3711L11.6758 13.2234L11.6703 8.06641L11.6621 2.90938L11.5883 2.79453C11.5473 2.73438 11.4543 2.64688 11.3832 2.60586L11.252 2.5293L10.0598 2.52109L8.86484 2.51289L8.78281 2.58398L8.70078 2.65234L8.68984 3.06797C8.67617 3.56289 8.63242 3.70508 8.43008 3.88281C8.2168 4.07148 8.18672 4.07422 7 4.07422C5.81328 4.07422 5.7832 4.07148 5.56992 3.88281C5.36758 3.70508 5.32383 3.56289 5.31016 3.06797L5.29922 2.65234L5.21719 2.58398L5.13516 2.51562H3.98398C3.09258 2.51836 2.80547 2.52656 2.72617 2.55391ZM7.36094 6.45312C7.85039 6.60352 8.20312 7.08477 8.20312 7.60156C8.20312 8.07734 7.94062 8.48477 7.49492 8.70352C7.32266 8.78555 7.29805 8.79102 7 8.79102C6.69922 8.79102 6.67461 8.78555 6.50508 8.70352C6.05938 8.48203 5.79688 8.07461 5.79688 7.60156C5.79688 6.79766 6.58984 6.21523 7.36094 6.45312ZM7.62891 9.38164C8.63789 9.63594 9.40625 10.4754 9.57031 11.5063C9.58672 11.6074 9.59492 11.7168 9.58398 11.7496C9.54844 11.8973 9.61133 11.8945 7 11.8945C4.37773 11.8945 4.45156 11.9 4.41328 11.7441C4.39141 11.6539 4.44336 11.3531 4.52813 11.107C4.84531 10.1609 5.64922 9.47734 6.63086 9.32422C6.87695 9.28594 7.36094 9.31328 7.62891 9.38164Z" fill="url(#paint0_linear_1089_2364)"/>
<defs>
<linearGradient id="paint0_linear_1089_2364" x1="7" y1="13.6582" x2="7" y2="2.51289" gradientUnits="userSpaceOnUse">
<stop stop-color="#3674B6"/>
<stop offset="1" stop-color="#2B5279"/>
</linearGradient>
</defs>
</svg>
