<svg width="16" height="16" viewBox="0 0 16 16" fill="none" xmlns="http://www.w3.org/2000/svg">
<mask id="mask0_954_2408" style="mask-type:alpha" maskUnits="userSpaceOnUse" x="0" y="0" width="16" height="16">
<rect width="16" height="16" fill="#D9D9D9"/>
</mask>
<g mask="url(#mask0_954_2408)">
<path d="M4.5 8.7H11.5V7.3H4.5V8.7ZM8 15C7.03167 15 6.12167 14.8162 5.27 14.4487C4.41833 14.0812 3.6775 13.5825 3.0475 12.9525C2.4175 12.3225 1.91875 11.5817 1.55125 10.73C1.18375 9.87833 1 8.96833 1 8C1 7.03167 1.18375 6.12167 1.55125 5.27C1.91875 4.41833 2.4175 3.6775 3.0475 3.0475C3.6775 2.4175 4.41833 1.91875 5.27 1.55125C6.12167 1.18375 7.03167 1 8 1C8.96833 1 9.87833 1.18375 10.73 1.55125C11.5817 1.91875 12.3225 2.4175 12.9525 3.0475C13.5825 3.6775 14.0812 4.41833 14.4487 5.27C14.8162 6.12167 15 7.03167 15 8C15 8.96833 14.8162 9.87833 14.4487 10.73C14.0812 11.5817 13.5825 12.3225 12.9525 12.9525C12.3225 13.5825 11.5817 14.0812 10.73 14.4487C9.87833 14.8162 8.96833 15 8 15Z" fill="#EE4345"/>
</g>
</svg>
