<svg width="16" height="16" viewBox="0 0 16 16" fill="none" xmlns="http://www.w3.org/2000/svg">
<path d="M6.49375 2.53751C6.48125 4.05001 6.47188 4.28751 6.42813 4.45001C6.27813 4.96876 5.91875 5.40313 5.46563 5.61876C5.32188 5.69063 5.11875 5.75938 5.01875 5.77813C4.90313 5.80001 4.29063 5.81251 3.43125 5.81251H2.03125V9.71251C2.03125 14.0094 2.02188 13.7719 2.22813 14.1875C2.375 14.4813 2.72813 14.8313 3.03125 14.9813C3.48125 15.2 3.2125 15.1906 8.30625 15.1813C12.6625 15.1719 12.9 15.1688 13.0625 15.1156C13.6906 14.9031 14.1844 14.3813 14.3281 13.7781C14.3688 13.6031 14.375 12.8625 14.375 8.00001C14.375 3.13751 14.3688 2.39688 14.3281 2.22188C14.2125 1.73126 13.8219 1.24063 13.375 1.01876C12.9406 0.809382 13.0438 0.812508 9.60313 0.812508H6.50313L6.49375 2.53751ZM11.5531 7.56876C11.7156 7.65938 11.7969 7.80313 11.7969 8.00001C11.7969 8.19688 11.7156 8.34063 11.5531 8.43126C11.4594 8.48126 11.2531 8.48438 8.67188 8.48438C5.92188 8.48438 5.89063 8.48438 5.78125 8.41876C5.3875 8.19063 5.47188 7.63751 5.91563 7.53126C5.96875 7.51563 7.24063 7.50938 8.73438 7.50938C11.25 7.51563 11.4594 7.51876 11.5531 7.56876ZM8.875 10.2344C9.00313 10.3 9.12813 10.4781 9.14688 10.6156C9.16875 10.7969 9.05313 10.9969 8.875 11.0844C8.7375 11.1563 8.725 11.1563 7.3375 11.1563C5.80625 11.1563 5.81563 11.1563 5.64375 10.9719C5.56875 10.8938 5.55 10.8406 5.5375 10.6969C5.52813 10.5469 5.5375 10.4969 5.6 10.4094C5.75313 10.1844 5.71875 10.1875 7.3375 10.1875C8.5625 10.1875 8.79688 10.1938 8.875 10.2344Z" fill="url(#paint0_linear_247_541)"/>
<path d="M5.62469 1.03193C5.43891 1.2107 2.34718 4.76865 2.26655 4.89834L2.19995 5H3.63365C5.06033 5 5.06383 5 5.2391 4.91587C5.44592 4.82123 5.6983 4.55482 5.74738 4.37254C5.77192 4.29192 5.78243 3.66095 5.77542 2.57078L5.76491 0.895218L5.62469 1.03193Z" fill="#F58888"/>
<defs>
<linearGradient id="paint0_linear_247_541" x1="8.2031" y1="15.1851" x2="8.2031" y2="0.812505" gradientUnits="userSpaceOnUse">
<stop stop-color="#3674B6"/>
<stop offset="1" stop-color="#2B5279"/>
</linearGradient>
</defs>
</svg>
