<svg width="16" height="16" viewBox="0 0 16 16" fill="none" xmlns="http://www.w3.org/2000/svg">
<path d="M12.1797 1.18416C11.8153 1.26186 11.7134 1.33689 11.0462 1.99605L10.4326 2.60431L11.9171 4.0834L13.3989 5.5625L13.9776 4.98372C14.5993 4.36207 14.7091 4.21738 14.8083 3.89316C14.8565 3.7431 14.8619 3.66272 14.8538 3.41084C14.8324 2.85886 14.7413 2.70345 13.991 1.95854C13.3989 1.36904 13.289 1.29134 12.9139 1.19488C12.6754 1.13325 12.4289 1.13057 12.1797 1.18416Z" fill="url(#paint0_linear_954_3029)"/>
<path d="M5.79447 7.24612L1.99223 11.0484L1.56618 12.7472C1.31966 13.7386 1.14014 14.4996 1.14014 14.5746C1.14014 14.7595 1.24196 14.8613 1.42685 14.8613C1.50187 14.8613 2.26286 14.6818 3.25428 14.4353L4.9531 14.0092L8.75534 10.207C10.8454 8.11697 12.5549 6.39671 12.5549 6.38063C12.5549 6.3458 9.65566 3.44656 9.62083 3.44656C9.60475 3.44656 7.8845 5.15609 5.79447 7.24612Z" fill="url(#paint1_linear_954_3029)"/>
<defs>
<linearGradient id="paint0_linear_954_3029" x1="12.8993" y1="12.4106" x2="12.6448" y2="1.14616" gradientUnits="userSpaceOnUse">
<stop stop-color="#3674B6"/>
<stop offset="1" stop-color="#2B5279"/>
</linearGradient>
<linearGradient id="paint1_linear_954_3029" x1="6.84752" y1="14.8613" x2="6.84752" y2="3.44656" gradientUnits="userSpaceOnUse">
<stop stop-color="#3674B6"/>
<stop offset="1" stop-color="#2B5279"/>
</linearGradient>
</defs>
</svg>
