<svg width="30" height="30" viewBox="0 0 30 30" fill="none" xmlns="http://www.w3.org/2000/svg">
<mask id="mask0_865_3461" style="mask-type:alpha" maskUnits="userSpaceOnUse" x="0" y="0" width="30" height="30">
<rect x="0.390015" y="0.389999" width="29.22" height="29.22" fill="#D9D9D9"/>
</mask>
<g mask="url(#mask0_865_3461)">
<path d="M15 21.0875C15.345 21.0875 15.6341 20.9708 15.8675 20.7375C16.1008 20.5041 16.2175 20.215 16.2175 19.87C16.2175 19.525 16.1008 19.2359 15.8675 19.0025C15.6341 18.7692 15.345 18.6525 15 18.6525C14.6551 18.6525 14.3659 18.7692 14.1325 19.0025C13.8992 19.2359 13.7825 19.525 13.7825 19.87C13.7825 20.215 13.8992 20.5041 14.1325 20.7375C14.3659 20.9708 14.6551 21.0875 15 21.0875ZM13.7825 16.2175H16.2175V8.9125H13.7825V16.2175ZM15 27.175C13.3158 27.175 11.7331 26.8554 10.2518 26.2162C8.77047 25.577 7.48195 24.7096 6.3862 23.6138C5.29045 22.5181 4.42298 21.2295 3.78379 19.7482C3.14461 18.267 2.82501 16.6842 2.82501 15C2.82501 13.3158 3.14461 11.733 3.78379 10.2517C4.42298 8.77045 5.29045 7.48193 6.3862 6.38618C7.48195 5.29043 8.77047 4.42297 10.2518 3.78378C11.7331 3.14459 13.3158 2.825 15 2.825C16.6842 2.825 18.267 3.14459 19.7483 3.78378C21.2296 4.42297 22.5181 5.29043 23.6138 6.38618C24.7096 7.48193 25.577 8.77045 26.2162 10.2517C26.8554 11.733 27.175 13.3158 27.175 15C27.175 16.6842 26.8554 18.267 26.2162 19.7482C25.577 21.2295 24.7096 22.5181 23.6138 23.6138C22.5181 24.7096 21.2296 25.577 19.7483 26.2162C18.267 26.8554 16.6842 27.175 15 27.175Z" fill="white"/>
</g>
</svg>
