<svg width="17" height="15" viewBox="0 0 17 15" fill="none" xmlns="http://www.w3.org/2000/svg">
<path d="M8.5 3.01234C10.57 3.01234 12.25 4.69234 12.25 6.76234C12.25 7.14484 12.175 7.51234 12.07 7.85734L14.365 10.1523C15.4075 9.22984 16.2325 8.07484 16.75 6.75484C15.4525 3.46984 12.25 1.13734 8.5 1.13734C7.5475 1.13734 6.6325 1.28734 5.77 1.56484L7.3975 3.19234C7.75 3.08734 8.1175 3.01234 8.5 3.01234ZM1.5325 0.507339C1.24 0.799839 1.24 1.27234 1.5325 1.56484L3.01 3.04234C1.795 4.00984 0.8275 5.28484 0.25 6.76234C1.5475 10.0548 4.75 12.3873 8.5 12.3873C9.64 12.3873 10.7275 12.1623 11.7325 11.7723L13.7725 13.8123C14.065 14.1048 14.5375 14.1048 14.83 13.8123C15.1225 13.5198 15.1225 13.0473 14.83 12.7548L2.5975 0.507339C2.305 0.214839 1.825 0.214839 1.5325 0.507339ZM8.5 10.5123C6.43 10.5123 4.75 8.83234 4.75 6.76234C4.75 6.18484 4.885 5.63734 5.1175 5.15734L6.295 6.33484C6.2725 6.46984 6.25 6.61234 6.25 6.76234C6.25 8.00734 7.255 9.01234 8.5 9.01234C8.65 9.01234 8.785 8.98984 8.9275 8.95984L10.105 10.1373C9.6175 10.3773 9.0775 10.5123 8.5 10.5123ZM10.7275 6.51484C10.615 5.46484 9.79 4.64734 8.7475 4.53484L10.7275 6.51484Z" fill="#DFDFDF"/>
</svg>
