<svg width="16" height="14" viewBox="0 0 16 14" fill="none" xmlns="http://www.w3.org/2000/svg">
<path d="M1.6 14C1.16 14 0.783333 13.8477 0.47 13.5431C0.156667 13.2384 0 12.8722 0 12.4444V3.11111C0 2.68333 0.156667 2.31713 0.47 2.0125C0.783333 1.70787 1.16 1.55556 1.6 1.55556H4.12L5.6 0H10.4L11.88 1.55556H14.4C14.84 1.55556 15.2167 1.70787 15.53 2.0125C15.8433 2.31713 16 2.68333 16 3.11111V12.4444C16 12.8722 15.8433 13.2384 15.53 13.5431C15.2167 13.8477 14.84 14 14.4 14H1.6ZM8 11.6667C9.05333 11.6667 9.96 11.3199 10.72 10.6264C11.48 9.93287 11.8933 9.07407 11.96 8.05L12.56 8.59444L13.4 7.77778L11.4 5.83333L9.4 7.77778L10.24 8.59444L10.76 8.08889C10.68 8.77593 10.38 9.34954 9.86 9.80972C9.34 10.2699 8.72 10.5 8 10.5C7.82667 10.5 7.65667 10.4838 7.49 10.4514C7.32333 10.419 7.16 10.3704 7 10.3056L6.12 11.1611C6.41333 11.3167 6.71667 11.4398 7.03 11.5306C7.34333 11.6213 7.66667 11.6667 8 11.6667ZM4.6 9.72222L6.6 7.77778L5.76 6.96111L5.24 7.46667C5.32 6.77963 5.62 6.20602 6.14 5.74583C6.66 5.28565 7.28 5.05556 8 5.05556C8.17333 5.05556 8.34333 5.07176 8.51 5.10417C8.67667 5.13657 8.84 5.18519 9 5.25L9.88 4.39444C9.58667 4.23889 9.28333 4.11574 8.97 4.025C8.65667 3.93426 8.33333 3.88889 8 3.88889C6.94667 3.88889 6.04 4.23565 5.28 4.92917C4.52 5.62269 4.10667 6.48148 4.04 7.50556L3.44 6.96111L2.6 7.77778L4.6 9.72222Z" fill="#333333"/>
</svg>
