<svg width="14" height="14" viewBox="0 0 14 14" fill="none" xmlns="http://www.w3.org/2000/svg">
<g clip-path="url(#clip0_1089_2376)">
<path d="M5.85976 0.287621C5.68476 0.364182 0.585155 3.31731 0.514061 3.38567C0.347264 3.54153 0.352733 3.37747 0.360936 6.8009L0.369139 9.92082L0.451171 10.0357C0.524999 10.1396 0.820311 10.32 3.1582 11.6681C4.60195 12.5021 5.83242 13.2048 5.89258 13.2267C6.09219 13.3005 6.19062 13.265 6.86601 12.8767L7.48945 12.5185L7.76562 12.1357C8.03633 11.7611 8.0418 11.7529 8.01172 11.6599C7.99258 11.5997 7.95976 11.5614 7.92148 11.5532C7.84492 11.5368 6.9918 11.4029 6.96445 11.4029C6.95351 11.4029 6.94531 11.0529 6.94531 10.6236C6.94531 10.022 6.95351 9.83879 6.98086 9.83059C6.99726 9.82512 7.22969 9.78684 7.49492 9.74582L7.97617 9.672L8.00898 9.58176C8.04726 9.47512 8.06914 9.5134 7.74648 9.07043C7.6043 8.87903 7.48398 8.70676 7.47578 8.68762C7.47031 8.67122 7.7082 8.41145 8.00898 8.11067C8.4164 7.70325 8.56133 7.57473 8.5914 7.59114C8.61328 7.60481 8.79922 7.73606 9.0043 7.88371C9.37344 8.15168 9.37617 8.15168 9.46914 8.11887L9.56211 8.08606L9.63594 7.60481C9.67695 7.33957 9.71523 7.10715 9.7207 7.08801C9.7289 7.0634 9.91211 7.0552 10.5137 7.0552C10.943 7.0552 11.293 7.0634 11.293 7.07434C11.293 7.10168 11.427 7.95481 11.4434 8.03137C11.4516 8.06965 11.4898 8.10246 11.5555 8.12161C11.6375 8.14895 11.6594 8.14621 11.7059 8.1052C11.7551 8.05871 11.7578 7.99856 11.7578 5.84661C11.7578 3.44309 11.7633 3.53332 11.6047 3.38567C11.5117 3.30364 9.78086 2.29739 9.7289 2.29739C9.70976 2.29739 8.41914 3.03293 6.86328 3.93254L4.0332 5.5677L4.025 6.78997C4.01953 7.99582 4.01953 8.01223 3.96211 8.04231C3.91289 8.06692 3.81445 8.02043 3.20195 7.67043C2.81641 7.44895 2.48008 7.24114 2.45547 7.20832C2.41172 7.15637 2.40625 7.04426 2.40898 5.89309V4.63528L5.25 2.99739C6.81406 2.09504 8.09375 1.35129 8.09375 1.34309C8.09101 1.32395 6.52969 0.424339 6.32187 0.323167C6.14961 0.238401 5.99648 0.227464 5.85976 0.287621Z" fill="url(#paint0_linear_1089_2376)"/>
<path d="M10.0105 7.8668C9.97773 8.07461 9.94492 8.27695 9.93672 8.31797C9.92578 8.37539 9.8957 8.39727 9.78359 8.43555C9.70703 8.46016 9.58125 8.50938 9.50742 8.54766C9.43086 8.5832 9.35977 8.61328 9.34609 8.61328C9.33516 8.61328 9.16289 8.4957 8.96602 8.35352C8.76914 8.21133 8.59961 8.09375 8.58867 8.09375C8.58047 8.09375 8.43828 8.22773 8.27422 8.3918C8.06641 8.59961 7.98438 8.70078 7.99805 8.72539C8.01172 8.74727 8.1293 8.91406 8.26328 9.09727C8.39453 9.2832 8.50391 9.4418 8.50391 9.45547C8.50391 9.46914 8.47383 9.54023 8.43828 9.6168C8.4 9.69063 8.35078 9.81641 8.32617 9.89297C8.27422 10.0516 8.31523 10.0352 7.76016 10.1199L7.35547 10.1828V10.6121C7.35547 11.0113 7.3582 11.0414 7.40742 11.0551C7.4375 11.0605 7.64531 11.0961 7.86953 11.1316L8.27695 11.1945L8.32617 11.3449C8.35352 11.4297 8.40273 11.5582 8.44102 11.632C8.47656 11.7031 8.50117 11.7797 8.49297 11.7988C8.4875 11.8207 8.36719 11.9902 8.22773 12.1816L7.97617 12.5289L8.27422 12.827C8.45195 13.0047 8.58867 13.1223 8.61328 13.1168C8.63516 13.1113 8.81016 12.9938 8.99883 12.857L9.34609 12.6055L9.50469 12.6848C9.59492 12.7285 9.7207 12.7805 9.78359 12.7996C9.86016 12.8215 9.91211 12.8543 9.92578 12.8898C9.93672 12.9227 9.97227 13.1277 10.0078 13.3492L10.068 13.7539H10.5027C10.7434 13.7539 10.9375 13.7512 10.9402 13.7457C10.9402 13.743 10.9758 13.5406 11.0141 13.2945L11.0879 12.8488L11.2656 12.7859C11.3641 12.7531 11.4953 12.6984 11.5582 12.6656L11.673 12.6055L12.0285 12.8652C12.2254 13.0074 12.4004 13.125 12.4195 13.125C12.4633 13.125 13.0156 12.5754 13.0156 12.5316C13.0156 12.5125 12.898 12.3348 12.7559 12.1379L12.4961 11.7797L12.5563 11.6676C12.5891 11.6047 12.6437 11.4734 12.6766 11.375L12.7395 11.1973L13.1852 11.1234C13.4313 11.0852 13.6336 11.0496 13.6391 11.0496C13.6418 11.0469 13.6445 10.8527 13.6445 10.6121V10.1801L13.2426 10.1172C13.0184 10.0844 12.8133 10.0461 12.7832 10.0352C12.7449 10.0215 12.7094 9.96133 12.6793 9.86289C12.6547 9.78086 12.6027 9.65508 12.5645 9.58398L12.4961 9.45547L12.7449 9.11094C12.8844 8.91953 13.002 8.74453 13.0074 8.72266C13.0129 8.69805 12.8953 8.56133 12.7176 8.38359L12.4195 8.08555L12.0723 8.33711C11.8809 8.47656 11.7113 8.59688 11.6895 8.60234C11.6703 8.61055 11.5938 8.58594 11.5227 8.55039C11.4488 8.51211 11.3203 8.46289 11.2383 8.43555L11.0852 8.38906L11.0168 7.94609L10.9484 7.50586L10.5109 7.49766L10.0707 7.49219L10.0105 7.8668ZM10.7816 9.41992C11.3914 9.57852 11.7578 10.0762 11.725 10.7023C11.7141 10.8992 11.6977 10.9648 11.6129 11.1371C11.4844 11.3969 11.2875 11.5938 11.0277 11.7223C10.8555 11.807 10.7898 11.8234 10.593 11.8344C9.93672 11.8699 9.40078 11.4406 9.28867 10.7898C9.1875 10.1992 9.59766 9.58672 10.1992 9.42812C10.4234 9.3707 10.582 9.36797 10.7816 9.41992Z" fill="#F58888"/>
</g>
<defs>
<linearGradient id="paint0_linear_1089_2376" x1="6.05777" y1="13.2578" x2="6.05777" y2="0.249649" gradientUnits="userSpaceOnUse">
<stop stop-color="#3674B6"/>
<stop offset="1" stop-color="#2B5279"/>
</linearGradient>
<clipPath id="clip0_1089_2376">
<rect width="14" height="14" fill="white"/>
</clipPath>
</defs>
</svg>
