<svg width="24" height="24" viewBox="0 0 24 24" fill="none" xmlns="http://www.w3.org/2000/svg">
<path d="M12.606 8.47095C12.248 8.19823 11.752 8.19823 11.394 8.47095L5.68873 12.8174C5.44046 13.0065 5.29474 13.3007 5.29474 13.6129V19.4833C5.29474 20.0356 5.74245 20.4833 6.29474 20.4833H9.48552C10.0378 20.4833 10.4855 20.0356 10.4855 19.4833V16.4657C10.4855 15.9134 10.9332 15.4657 11.4855 15.4657H12.1401C12.6924 15.4657 13.1401 15.9134 13.1401 16.4657V19.4833C13.1401 20.0356 13.5878 20.4833 14.1401 20.4833H17.7053C18.2575 20.4833 18.7053 20.0356 18.7053 19.4833V13.6129C18.7053 13.3007 18.5595 13.0065 18.3113 12.8174L12.606 8.47095Z" fill="url(#paint0_linear_247_661)"/>
<path d="M12.0803 3.51762C12.1093 3.51908 12.1382 3.52332 12.1672 3.5264C12.1838 3.52818 12.2004 3.52898 12.217 3.53129C12.253 3.53628 12.2887 3.54329 12.3244 3.55082C12.3391 3.55391 12.3537 3.55707 12.3683 3.56058C12.3985 3.56786 12.4283 3.57685 12.4582 3.58597C12.4731 3.5905 12.4883 3.5937 12.5031 3.59867L12.5383 3.61039C12.5564 3.61703 12.574 3.6255 12.592 3.63285C12.6163 3.64272 12.6404 3.65299 12.6642 3.6641C12.6817 3.6723 12.6987 3.68157 12.716 3.69047C12.7467 3.70619 12.7771 3.72245 12.8068 3.74027C12.8177 3.74683 12.8283 3.75393 12.839 3.76078C12.8743 3.78313 12.9089 3.80671 12.9426 3.83207C12.9453 3.83415 12.9486 3.83583 12.9513 3.83793L19.508 8.84086C20.1967 9.36632 20.3293 10.3503 19.8039 11.0391C19.2784 11.7274 18.2943 11.8602 17.6056 11.335L12.6057 7.52125C12.2475 7.24804 11.7509 7.24806 11.3927 7.52129L6.3947 11.334C5.70591 11.8595 4.72093 11.7269 4.19548 11.0381C3.67038 10.3494 3.80282 9.36526 4.49138 8.83988L11.049 3.83793C11.0511 3.8363 11.0537 3.83466 11.0558 3.83304C11.0927 3.80524 11.1303 3.77912 11.1691 3.75492C11.1753 3.75103 11.1814 3.747 11.1877 3.7432C11.22 3.72367 11.2529 3.70556 11.2863 3.68851C11.3023 3.68032 11.318 3.6717 11.3342 3.6641C11.3608 3.65166 11.388 3.64081 11.4152 3.62992C11.4374 3.62099 11.4592 3.61141 11.4816 3.60355C11.5031 3.59605 11.5253 3.59057 11.547 3.58402C11.575 3.57559 11.6028 3.56741 11.631 3.56058C11.6456 3.55706 11.6603 3.55392 11.675 3.55082C11.7107 3.54326 11.7464 3.53631 11.7824 3.53129C11.795 3.52952 11.8078 3.52884 11.8205 3.52738C11.8576 3.52313 11.8946 3.51921 11.9318 3.51762C11.9445 3.51706 11.9572 3.51787 11.9699 3.51762C12.0067 3.51693 12.0435 3.51573 12.0803 3.51762Z" fill="#F58888"/>
<rect x="6.95953" y="3.81885" width="1.87874" height="4.25465" rx="0.93937" fill="#F58888"/>
<defs>
<linearGradient id="paint0_linear_247_661" x1="12" y1="8.00928" x2="12" y2="20.4833" gradientUnits="userSpaceOnUse">
<stop stop-color="#2B5279"/>
<stop offset="1" stop-color="#3674B6"/>
</linearGradient>
</defs>
</svg>
