<svg width="12" height="12" viewBox="0 0 12 12" fill="none" xmlns="http://www.w3.org/2000/svg">
<g clip-path="url(#clip0_686_6387)">
<path d="M5.70235 0.0445311C5.06719 0.274219 4.44141 1.29844 4.06641 2.73047C4.02422 2.89687 3.97032 3.12422 3.94922 3.23438C3.92813 3.34453 3.90469 3.45234 3.9 3.47344C3.88828 3.51328 3.99844 3.51562 6 3.51562H8.10938L8.09766 3.46172C8.09063 3.43359 8.06016 3.28359 8.02735 3.12891C7.6875 1.52578 6.99375 0.290625 6.29063 0.0445311C6.12657 -0.0140626 5.86641 -0.0140626 5.70235 0.0445311Z" fill="#DFDFDF"/>
<path d="M4.14844 0.278906C3.80391 0.39375 3.56953 0.4875 3.30234 0.623437C2.38594 1.08281 1.54219 1.8375 0.970313 2.70703C0.799219 2.96953 0.539062 3.43828 0.539062 3.4875C0.539062 3.50859 0.874219 3.51562 1.87031 3.51562H3.20391L3.25781 3.23906C3.47344 2.13047 3.84375 1.13672 4.30313 0.440625C4.38516 0.316406 4.45313 0.208594 4.45313 0.201562C4.45313 0.180469 4.43672 0.185156 4.14844 0.278906Z" fill="#DFDFDF"/>
<path d="M7.54688 0.201563C7.54688 0.208594 7.61484 0.316406 7.69688 0.440625C8.15625 1.14141 8.52656 2.13047 8.74453 3.25078L8.79609 3.51562H10.1273C11.0719 3.51562 11.4609 3.50859 11.4609 3.48984C11.4609 3.43828 11.2195 2.99766 11.0438 2.72813C10.7859 2.33672 10.5305 2.02734 10.1766 1.68281C9.69375 1.21172 9.19453 0.8625 8.58984 0.571875C8.22891 0.398438 7.54688 0.157032 7.54688 0.201563Z" fill="#DFDFDF"/>
<path d="M0.222656 4.32891C0.0679688 4.85391 0 5.37422 0 6C0 6.62578 0.0679688 7.14609 0.222656 7.66875L0.260156 7.80469H1.68047H3.10078L3.08672 7.64531C3.07734 7.55859 3.05859 7.35 3.04219 7.18359C3.00469 6.78281 3.00469 5.21719 3.04219 4.81641C3.05859 4.64766 3.07734 4.44141 3.08672 4.35234L3.10078 4.19531H1.68047H0.260156L0.222656 4.32891Z" fill="#DFDFDF"/>
<path d="M3.78519 4.22344C3.77113 4.26797 3.72894 4.725 3.70316 5.12109C3.65863 5.81953 3.68207 6.84375 3.75707 7.54687L3.78519 7.79297H6.00003H8.21488L8.243 7.54687C8.34378 6.62578 8.34378 5.37422 8.243 4.45312L8.21488 4.20703L6.00472 4.2C4.24925 4.19531 3.79457 4.2 3.78519 4.22344Z" fill="#DFDFDF"/>
<path d="M8.91323 4.35234C8.92261 4.44141 8.94136 4.64297 8.95776 4.80469C8.97417 4.97812 8.98589 5.46797 8.98589 6C8.98589 6.53203 8.97417 7.02187 8.95776 7.19531C8.94136 7.35703 8.92261 7.55859 8.91323 7.64531L8.89917 7.80469H10.3195H11.7398L11.7773 7.66875C11.932 7.14609 12 6.62578 12 6C12 5.37422 11.932 4.85391 11.7773 4.32891L11.7398 4.19531H10.3195H8.89917L8.91323 4.35234Z" fill="#DFDFDF"/>
<path d="M0.539062 8.51291C0.539062 8.52697 0.597656 8.65119 0.670313 8.78712C1.32422 10.027 2.40938 11.0207 3.69141 11.5527C3.93984 11.6582 4.43203 11.8199 4.44844 11.8035C4.45313 11.7965 4.38984 11.6887 4.30547 11.5621C4.22344 11.4356 4.10625 11.2434 4.04766 11.1332C3.73359 10.5449 3.42188 9.60744 3.25781 8.759L3.20391 8.48478H1.87266C0.874219 8.48478 0.539062 8.49181 0.539062 8.51291Z" fill="#DFDFDF"/>
<path d="M3.9 8.52444C3.90469 8.54788 3.92813 8.65569 3.94922 8.76585C4.11797 9.64476 4.48828 10.6221 4.87969 11.2151C5.06016 11.4893 5.38594 11.8057 5.58985 11.9065C5.80547 12.0096 6.07735 12.0307 6.2836 11.958C6.99141 11.7096 7.6875 10.4768 8.02735 8.87132C8.06016 8.71663 8.09063 8.56663 8.09766 8.53616L8.10938 8.4846H6C3.99844 8.4846 3.88828 8.48694 3.9 8.52444Z" fill="#DFDFDF"/>
<path d="M8.7445 8.74704C8.52653 9.87204 8.15622 10.8588 7.6945 11.5619C7.61013 11.6884 7.54685 11.7986 7.55388 11.8056C7.57966 11.8291 8.29216 11.5713 8.5781 11.4353C9.56013 10.9666 10.4297 10.2072 11.0297 9.29313C11.2008 9.03063 11.4609 8.56188 11.4609 8.51266C11.4609 8.49157 11.1258 8.48454 10.1273 8.48454H8.79607L8.7445 8.74704Z" fill="#DFDFDF"/>
</g>
<defs>
<clipPath id="clip0_686_6387">
<rect width="12" height="12" fill="white"/>
</clipPath>
</defs>
</svg>
