<svg width="14" height="14" viewBox="0 0 14 14" fill="none" xmlns="http://www.w3.org/2000/svg">
<path d="M0.933032 1.79287C0.591235 1.88311 0.282251 2.14834 0.115454 2.4874C0.0142822 2.68975 0.0142822 2.69521 0.0142822 3.03428C0.0142822 3.3624 0.0170166 3.38428 0.101782 3.55928C0.148267 3.66045 0.246704 3.80811 0.320532 3.88467C0.495532 4.07334 6.34163 7.97803 6.56584 8.05459C6.77092 8.12568 7.2303 8.12568 7.43538 8.05459C7.65959 7.97803 13.5057 4.07334 13.6807 3.88467C13.7545 3.80811 13.853 3.66045 13.8994 3.55928C13.9733 3.40068 13.9869 3.34053 13.9951 3.09717C14.0061 2.86748 13.9979 2.79092 13.9487 2.64326C13.8065 2.21943 13.4701 1.89951 13.0573 1.79014C12.9151 1.75459 12.2205 1.74912 6.98694 1.75186C1.90647 1.75186 1.05881 1.75732 0.933032 1.79287Z" fill="url(#paint0_linear_686_6496)"/>
<path d="M0.00568987 7.98971L0.013893 11.3065L0.115065 11.5116C0.229909 11.744 0.432252 11.9655 0.642799 12.0858C0.949049 12.2608 0.522487 12.2499 7.00022 12.2499C12.2174 12.2499 12.9147 12.2444 13.0569 12.2088C13.467 12.0995 13.8061 11.7796 13.9455 11.3639C14.0002 11.1971 14.0002 11.1534 13.9948 7.93502L13.9865 4.67565L11.0334 6.64713C9.40921 7.72994 8.01194 8.65143 7.92991 8.69244C7.56624 8.88111 7.05764 8.95768 6.65842 8.88932C6.21819 8.81276 6.22092 8.81276 3.04905 6.69908C1.41116 5.60807 0.0521742 4.70299 0.0330336 4.69205C0.00568987 4.67565 0.000221121 5.31822 0.00568987 7.98971Z" fill="url(#paint1_linear_686_6496)"/>
<defs>
<linearGradient id="paint0_linear_686_6496" x1="7.07837" y1="10.0621" x2="7.00685" y2="1.75125" gradientUnits="userSpaceOnUse">
<stop stop-color="#3674B6"/>
<stop offset="1" stop-color="#2B5279"/>
</linearGradient>
<linearGradient id="paint1_linear_686_6496" x1="7.00042" y1="12.25" x2="7.07813" y2="1.75" gradientUnits="userSpaceOnUse">
<stop stop-color="#3674B6"/>
<stop offset="1" stop-color="#2B5279"/>
</linearGradient>
</defs>
</svg>
