<svg width="12" height="12" viewBox="0 0 12 12" fill="none" xmlns="http://www.w3.org/2000/svg">
<g clip-path="url(#clip0_686_6379)">
<path d="M4.49297 0.825C4.33594 0.91875 4.3125 1.00312 4.3125 1.50703V1.94531H4.67578H5.03906V1.72266V1.5H5.98828H6.9375V1.72266V1.94531H7.30078H7.66406V1.50703C7.66406 0.998437 7.64063 0.916406 7.47891 0.825C7.3875 0.773438 7.38516 0.773438 5.98594 0.773438C4.58672 0.773438 4.58203 0.775781 4.49297 0.825Z" fill="#DFDFDF"/>
<path d="M0.539034 2.64609C0.407784 2.68828 0.281222 2.77031 0.18044 2.88281C-0.00705956 3.09141 -0.00237206 3.03984 0.00465919 4.63125C0.0116904 5.93203 0.0140342 6.04219 0.0538779 6.11953C0.121847 6.25547 0.241378 6.38203 0.358565 6.44062C0.42419 6.47344 1.28903 6.68203 2.6531 6.99609C3.85544 7.27266 4.85153 7.5 4.86794 7.5C4.88903 7.5 4.89841 7.36875 4.9031 6.99844C4.91013 6.43828 4.91716 6.41719 5.08825 6.31641C5.16325 6.27187 5.21013 6.26953 5.98825 6.26953C6.76638 6.26953 6.81325 6.27187 6.88825 6.31641C7.05935 6.41719 7.06638 6.44297 7.07341 6.96328C7.0781 7.21875 7.08982 7.42969 7.10153 7.42969C7.14372 7.42969 11.4515 6.51328 11.5312 6.4875C11.7234 6.42656 11.8968 6.25547 11.9695 6.06328C11.9883 6.00937 11.9976 5.60156 11.9976 4.60312C12 3.0375 12.0047 3.08906 11.8195 2.88281C11.7609 2.81719 11.6578 2.73516 11.5922 2.7L11.4726 2.63672L6.03513 2.63203C3.0445 2.62969 0.571847 2.63672 0.539034 2.64609Z" fill="#DFDFDF"/>
<path d="M5.57812 7.72266V8.50781H5.98828H6.39844V7.72266V6.9375H5.98828H5.57812V7.72266Z" fill="#DFDFDF"/>
<path d="M0.5625 8.65319C0.5625 9.44304 0.574219 10.1696 0.585938 10.2657C0.644531 10.7274 1.0125 11.1165 1.46484 11.2032C1.56797 11.2219 2.82891 11.2266 6.07031 11.2219L10.5352 11.2149L10.6688 11.1657C11.0578 11.018 11.3391 10.6665 11.3906 10.2657C11.4141 10.0758 11.4234 7.21882 11.4 7.21882C11.3789 7.21882 7.16719 8.10944 7.12031 8.1235C7.08516 8.13288 7.08047 8.18444 7.07344 8.55007C7.06641 8.94382 7.06406 8.9696 7.01016 9.0446C6.90938 9.18288 6.88359 9.18757 5.98828 9.18757C5.09297 9.18757 5.06719 9.18288 4.96641 9.0446C4.9125 8.9696 4.91016 8.94382 4.90313 8.57116L4.89609 8.17975H4.83984C4.80938 8.17975 3.84375 7.96413 2.69297 7.69929C1.54453 7.43444 0.592969 7.21882 0.583594 7.21882C0.571875 7.21882 0.5625 7.85397 0.5625 8.65319Z" fill="#DFDFDF"/>
</g>
<defs>
<clipPath id="clip0_686_6379">
<rect width="12" height="12" fill="white"/>
</clipPath>
</defs>
</svg>
