<svg width="10" height="10" viewBox="0 0 10 10" fill="none" xmlns="http://www.w3.org/2000/svg">
<path d="M4.49902 7.49878H5.49902V4.49878H4.49902V7.49878ZM4.99902 3.49878C5.14069 3.49878 5.25944 3.45086 5.35527 3.35503C5.45111 3.2592 5.49902 3.14045 5.49902 2.99878C5.49902 2.85711 5.45111 2.73836 5.35527 2.64253C5.25944 2.5467 5.14069 2.49878 4.99902 2.49878C4.85736 2.49878 4.73861 2.5467 4.64277 2.64253C4.54694 2.73836 4.49902 2.85711 4.49902 2.99878C4.49902 3.14045 4.54694 3.2592 4.64277 3.35503C4.73861 3.45086 4.85736 3.49878 4.99902 3.49878ZM4.99902 9.99878C4.30736 9.99878 3.65736 9.86753 3.04902 9.60503C2.44069 9.34253 1.91152 8.98628 1.46152 8.53628C1.01152 8.08628 0.655273 7.55711 0.392773 6.94878C0.130273 6.34045 -0.000976562 5.69045 -0.000976562 4.99878C-0.000976562 4.30711 0.130273 3.65711 0.392773 3.04878C0.655273 2.44045 1.01152 1.91128 1.46152 1.46128C1.91152 1.01128 2.44069 0.655029 3.04902 0.392529C3.65736 0.130029 4.30736 -0.0012207 4.99902 -0.0012207C5.69069 -0.0012207 6.34069 0.130029 6.94902 0.392529C7.55736 0.655029 8.08652 1.01128 8.53652 1.46128C8.98652 1.91128 9.34277 2.44045 9.60527 3.04878C9.86777 3.65711 9.99902 4.30711 9.99902 4.99878C9.99902 5.69045 9.86777 6.34045 9.60527 6.94878C9.34277 7.55711 8.98652 8.08628 8.53652 8.53628C8.08652 8.98628 7.55736 9.34253 6.94902 9.60503C6.34069 9.86753 5.69069 9.99878 4.99902 9.99878Z" fill="#E24E50"/>
</svg>
