<svg width="25" height="24" viewBox="0 0 25 24" fill="none" xmlns="http://www.w3.org/2000/svg">
<path d="M16.6443 13.4058C19.2479 13.4059 21.3582 15.517 21.3582 18.1206C21.3581 20.7241 19.2478 22.8344 16.6443 22.8345C14.0407 22.8345 11.9296 20.7242 11.9295 18.1206C11.9295 15.517 14.0407 13.4058 16.6443 13.4058ZM16.6746 15.7612C16.6147 15.6451 16.4692 15.5883 16.3494 15.6323C16.2798 15.6592 16.2101 15.7324 16.1892 15.8032C16.177 15.8411 16.1707 15.9174 16.1707 16.0054V16.147L16.0574 16.1685C15.7934 16.2198 15.5403 16.3782 15.3777 16.5933C15.2898 16.7093 15.2315 16.8266 15.1863 16.978C15.1558 17.0782 15.1534 17.1065 15.1521 17.2837C15.1521 17.5095 15.1717 17.6023 15.2547 17.7769C15.3793 18.0359 15.5957 18.2413 15.8572 18.3452C15.9037 18.3636 16.1397 18.4277 16.3816 18.4888C16.7058 18.5692 16.8416 18.6081 16.8943 18.6362C17.3062 18.8562 17.3381 19.4262 16.9519 19.6841C16.9104 19.7121 16.8374 19.7463 16.7898 19.7622C16.7116 19.7866 16.6768 19.7886 16.4519 19.7886C16.2275 19.7886 16.1931 19.7866 16.115 19.7622C15.8926 19.6913 15.7359 19.5151 15.6883 19.2817C15.6614 19.1546 15.6605 19.1507 15.6189 19.103C15.5628 19.0396 15.5016 19.0133 15.4138 19.0132C15.2832 19.0132 15.1843 19.0897 15.156 19.2153C15.1438 19.2679 15.145 19.2975 15.1658 19.3989C15.2367 19.7509 15.456 20.0386 15.7762 20.1987C15.8713 20.2463 16.0785 20.3078 16.1414 20.3081C16.1707 20.3081 16.1707 20.3084 16.1707 20.4526C16.1707 20.6394 16.1895 20.7041 16.2615 20.77C16.3935 20.891 16.5927 20.8582 16.6746 20.7007C16.7076 20.6384 16.7088 20.6272 16.7088 20.4722V20.3081H16.7439C16.8062 20.3081 16.9518 20.2729 17.0496 20.2339C17.4003 20.0946 17.6599 19.7802 17.7381 19.4038C17.7698 19.2547 17.7635 19.0309 17.7244 18.8843C17.6963 18.7755 17.6231 18.6155 17.5633 18.5288C17.4606 18.3785 17.2956 18.2367 17.1306 18.1548C17.0121 18.0949 16.9752 18.0843 16.5037 17.9683C16.0307 17.8509 15.9755 17.8285 15.8582 17.7124C15.653 17.5071 15.6203 17.1946 15.7791 16.9526C15.8609 16.8268 15.9682 16.7462 16.116 16.6997C16.193 16.6753 16.2273 16.6724 16.4519 16.6724C16.6768 16.6724 16.7116 16.6753 16.7898 16.6997C17.0119 16.7706 17.1679 16.9462 17.2156 17.1792C17.2425 17.3063 17.2444 17.3102 17.2859 17.3579C17.3421 17.4214 17.403 17.4487 17.491 17.4487C17.6218 17.4487 17.7207 17.3715 17.7488 17.2456C17.761 17.1931 17.7598 17.1634 17.739 17.062C17.6681 16.7102 17.4478 16.4232 17.1277 16.2632C17.0239 16.212 16.8243 16.153 16.7508 16.1528H16.7088V15.9897C16.7088 15.8348 16.7074 15.8233 16.6746 15.7612Z" fill="#F58888"/>
<rect x="9.6742" y="0.959961" width="4.17032" height="4.17032" rx="2.08516" fill="url(#paint0_linear_247_727)"/>
<path d="M10.1363 5.95923H13.3418C14.4508 5.95923 15.5712 6.65099 15.7867 8.0238C15.9721 9.20455 15.7867 10.4144 13.3418 10.4144H10.1363C7.76812 10.4144 7.85398 9.15066 7.96305 8.0238C8.09345 6.6764 9.28935 5.95923 10.1363 5.95923Z" fill="url(#paint1_linear_247_727)"/>
<path d="M16.607 7.81348C18.3063 8.19376 19.5296 8.77732 19.8912 9.4668L19.9879 9.64551L19.9976 10.5195L20.0074 11.3965L18.5211 12.8857C17.9076 12.6508 17.2416 12.5215 16.5455 12.5215C13.4938 12.5216 11.0193 14.9962 11.0191 18.0479C11.0194 19.9672 11.9992 21.6571 13.4849 22.6475C13.2596 22.7813 12.9639 22.894 12.6451 22.9561C12.4989 22.986 12.2127 23.0023 11.8638 22.999C11.3887 22.9957 11.2724 22.9823 10.9967 22.9092C10.4485 22.763 10.0594 22.5207 9.93318 22.2383C9.87688 22.1154 9.87068 21.9564 9.87068 19.7793V17.4541L6.82967 14.4141L3.7867 11.374L3.80623 9.64551L3.90291 9.4668C3.95281 9.36715 4.07228 9.21053 4.16853 9.11426C4.6974 8.58747 5.75448 8.14051 7.14119 7.8252C7.10682 8.18733 7.0801 8.55871 7.11189 8.9082C6.6293 9.02857 6.19161 9.16585 5.81697 9.32031C5.49498 9.45309 5.12593 9.65869 4.97615 9.79492L4.87361 9.88477L5.08943 10.0449C5.82384 10.5864 7.43837 11.0309 9.40486 11.2402C10.9266 11.3997 12.8542 11.3997 14.3892 11.2402C16.3228 11.0375 18.1398 10.5093 18.8209 9.95117L18.9176 9.87207L18.7379 9.73926C18.2916 9.40346 17.5643 9.11468 16.6334 8.88867C16.6815 8.54603 16.6609 8.17971 16.607 7.81348Z" fill="url(#paint2_linear_247_727)"/>
<defs>
<linearGradient id="paint0_linear_247_727" x1="12" y1="0.5" x2="12" y2="8.5" gradientUnits="userSpaceOnUse">
<stop stop-color="#2B5279"/>
<stop offset="1" stop-color="#3674B6"/>
</linearGradient>
<linearGradient id="paint1_linear_247_727" x1="12" y1="4" x2="12" y2="13.5" gradientUnits="userSpaceOnUse">
<stop stop-color="#2B5279"/>
<stop offset="1" stop-color="#3674B6"/>
</linearGradient>
<linearGradient id="paint2_linear_247_727" x1="12" y1="-4" x2="11.897" y2="22.9994" gradientUnits="userSpaceOnUse">
<stop stop-color="#2B5279"/>
<stop offset="1" stop-color="#3674B6"/>
</linearGradient>
</defs>
</svg>
