<svg width="25" height="24" viewBox="0 0 25 24" fill="none" xmlns="http://www.w3.org/2000/svg">
<path d="M16.6443 13.4058C19.2479 13.4059 21.3582 15.517 21.3582 18.1206C21.3581 20.7241 19.2478 22.8344 16.6443 22.8345C14.0408 22.8345 11.9296 20.7242 11.9295 18.1206C11.9295 15.517 14.0407 13.4058 16.6443 13.4058ZM16.6746 15.7612C16.6147 15.6451 16.4692 15.5883 16.3494 15.6323C16.2799 15.6592 16.2101 15.7324 16.1893 15.8032C16.177 15.8411 16.1707 15.9174 16.1707 16.0054V16.147L16.0574 16.1685C15.7935 16.2198 15.5403 16.3782 15.3777 16.5933C15.2899 16.7093 15.2315 16.8266 15.1863 16.978C15.1558 17.0782 15.1534 17.1065 15.1522 17.2837C15.1522 17.5095 15.1717 17.6023 15.2547 17.7769C15.3794 18.0359 15.5957 18.2413 15.8572 18.3452C15.9037 18.3636 16.1397 18.4277 16.3817 18.4888C16.7059 18.5692 16.8416 18.6081 16.8943 18.6362C17.3062 18.8562 17.3382 19.4262 16.952 19.6841C16.9104 19.7121 16.8374 19.7463 16.7899 19.7622C16.7116 19.7866 16.6768 19.7886 16.452 19.7886C16.2275 19.7886 16.1931 19.7866 16.1151 19.7622C15.8926 19.6913 15.736 19.5151 15.6883 19.2817C15.6614 19.1546 15.6605 19.1507 15.619 19.103C15.5628 19.0396 15.5016 19.0133 15.4139 19.0132C15.2833 19.0132 15.1843 19.0897 15.1561 19.2153C15.1438 19.2679 15.1451 19.2975 15.1658 19.3989C15.2367 19.7509 15.456 20.0386 15.7762 20.1987C15.8713 20.2463 16.0786 20.3078 16.1414 20.3081C16.1707 20.3081 16.1707 20.3084 16.1707 20.4526C16.1707 20.6394 16.1896 20.7041 16.2615 20.77C16.3935 20.891 16.5927 20.8582 16.6746 20.7007C16.7076 20.6384 16.7088 20.6272 16.7088 20.4722V20.3081H16.744C16.8062 20.3081 16.9519 20.2729 17.0496 20.2339C17.4004 20.0946 17.6599 19.7802 17.7381 19.4038C17.7698 19.2547 17.7635 19.0309 17.7244 18.8843C17.6963 18.7755 17.6231 18.6155 17.5633 18.5288C17.4607 18.3785 17.2956 18.2367 17.1307 18.1548C17.0121 18.0949 16.9753 18.0843 16.5037 17.9683C16.0308 17.8509 15.9755 17.8285 15.8582 17.7124C15.653 17.5071 15.6203 17.1946 15.7791 16.9526C15.8609 16.8268 15.9683 16.7462 16.116 16.6997C16.193 16.6753 16.2274 16.6724 16.452 16.6724C16.6768 16.6724 16.7116 16.6753 16.7899 16.6997C17.0119 16.7706 17.1679 16.9462 17.2156 17.1792C17.2425 17.3063 17.2444 17.3102 17.2859 17.3579C17.3422 17.4214 17.4031 17.4487 17.491 17.4487C17.6218 17.4487 17.7207 17.3715 17.7488 17.2456C17.7611 17.1931 17.7599 17.1634 17.7391 17.062C17.6681 16.7102 17.4479 16.4232 17.1277 16.2632C17.024 16.212 16.8243 16.153 16.7508 16.1528H16.7088V15.9897C16.7088 15.8348 16.7074 15.8233 16.6746 15.7612Z" fill="#B8CCE0"/>
<rect x="9.67426" y="0.959961" width="4.17032" height="4.17032" rx="2.08516" fill="#DDE7F0"/>
<path d="M10.1363 5.95923H13.3418C14.4508 5.95923 15.5712 6.65099 15.7867 8.0238C15.9721 9.20455 15.7867 10.4144 13.3418 10.4144H10.1363C7.76815 10.4144 7.85401 9.15066 7.96308 8.0238C8.09348 6.6764 9.28938 5.95923 10.1363 5.95923Z" fill="#DDE7F0"/>
<path d="M16.6071 7.81348C18.3064 8.19382 19.5298 8.77728 19.8912 9.4668L19.9879 9.64648L19.9977 10.5205L20.0074 11.3975L18.5211 12.8867C17.9076 12.6517 17.2417 12.5215 16.5455 12.5215C13.4938 12.5216 11.0192 14.9961 11.0192 18.0479C11.0194 19.9674 11.999 21.6581 13.485 22.6484C13.2596 22.7822 12.9639 22.895 12.6451 22.957C12.4989 22.9869 12.2127 23.0033 11.8639 23C11.3888 22.9967 11.2724 22.9832 10.9967 22.9102C10.4487 22.764 10.0597 22.5215 9.93323 22.2393C9.87675 22.1163 9.87073 21.9596 9.87073 19.7803V17.4541L6.82971 14.4141L3.78674 11.374L3.79651 10.5107L3.80627 9.64648L3.90295 9.4668C3.95276 9.36726 4.07235 9.21157 4.16858 9.11523C4.6974 8.58836 5.75434 8.14054 7.14124 7.8252C7.10686 8.18733 7.08015 8.55871 7.11194 8.9082C6.62927 9.02867 6.19171 9.16679 5.81702 9.32129C5.49476 9.45419 5.12571 9.65968 4.9762 9.7959L4.87366 9.88574L5.08948 10.0449C5.82382 10.5864 7.43826 11.0319 9.40491 11.2412C10.9266 11.4007 12.8543 11.4007 14.3893 11.2412C16.3226 11.0385 18.1396 10.5102 18.8209 9.95215L18.9176 9.87207L18.7379 9.73926C18.2917 9.40349 17.5643 9.11471 16.6334 8.88867C16.6815 8.54603 16.661 8.17971 16.6071 7.81348Z" fill="#DDE7F0"/>
</svg>
