<svg width="16" height="16" viewBox="0 0 16 16" fill="none" xmlns="http://www.w3.org/2000/svg">
<path d="M7.60931 0.834526C5.62494 1.01578 4.01556 2.45328 3.57806 4.43765C3.49681 4.80953 3.47806 5.64703 3.54681 6.02203C3.83119 7.60953 5.17494 9.98765 7.21869 12.5314C7.64056 13.0564 7.73431 13.1439 7.90306 13.172C8.19369 13.2189 8.29681 13.1408 8.83431 12.4689C10.8593 9.9314 12.1718 7.5939 12.4531 6.02203C12.5218 5.64703 12.5031 4.80953 12.4218 4.43765C12.0374 2.68453 10.7312 1.33765 9.03119 0.940776C8.57494 0.834526 8.04681 0.7939 7.60931 0.834526ZM8.39994 3.5689C8.68119 3.62203 9.04994 3.82828 9.28119 4.06265C9.84369 4.63453 9.96869 5.45953 9.60306 6.1689C9.30619 6.74078 8.63119 7.1564 7.99994 7.1564C7.36869 7.1564 6.69369 6.74078 6.39681 6.1689C6.03119 5.45953 6.15931 4.62203 6.71869 4.06265C7.17181 3.6064 7.73744 3.44078 8.39994 3.5689Z" fill="url(#paint0_linear_671_345)"/>
<path d="M4.28125 10.6845C2.87813 11.1688 2.15625 11.847 2.15625 12.672C2.15625 13.5376 2.99063 14.2563 4.53125 14.7157C6.72813 15.372 9.74688 15.3251 11.8219 14.6032C13.3531 14.072 14.0719 13.2157 13.7812 12.272C13.5875 11.647 12.9594 11.1438 11.8594 10.7345C11.4719 10.5907 11.2469 10.5657 11.0938 10.6501C10.8781 10.7688 10.7719 11.0251 10.8438 11.2595C10.9031 11.4563 11.0094 11.5376 11.3813 11.6657C12.2 11.947 12.8125 12.372 12.8125 12.6563C12.8125 12.9063 12.3969 13.2532 11.7781 13.5157C9.72813 14.397 5.9125 14.347 4.01562 13.4188C3.525 13.1782 3.1875 12.8688 3.1875 12.6595C3.1875 12.3751 3.7625 11.972 4.57188 11.6813C5 11.5313 5.05313 11.497 5.12812 11.3345C5.2 11.1688 5.20312 11.0501 5.12812 10.8876C4.99688 10.597 4.72187 10.5313 4.28125 10.6845Z" fill="#F58888"/>
<defs>
<linearGradient id="paint0_linear_671_345" x1="7.99994" y1="13.1831" x2="7.99994" y2="0.819038" gradientUnits="userSpaceOnUse">
<stop stop-color="#3674B6"/>
<stop offset="1" stop-color="#2B5279"/>
</linearGradient>
</defs>
</svg>
