<svg width="14" height="14" viewBox="0 0 14 14" fill="none" xmlns="http://www.w3.org/2000/svg">
<path d="M1.93558 1.3547C1.6954 1.44133 1.49303 1.62348 1.37739 1.85671L1.3129 1.98998V6.52132V11.0527L1.38406 11.197C1.42409 11.277 1.48636 11.377 1.52194 11.4214C1.67761 11.608 1.74655 11.6369 3.36553 12.1766L4.89334 12.6875L5.12684 12.6808C5.34034 12.6742 5.37592 12.6675 5.51157 12.6009C5.78066 12.4676 5.97414 12.221 6.03641 11.9345C6.04975 11.8701 6.06087 11.6924 6.06087 11.5413V11.2637H6.87926C7.5353 11.2637 7.72433 11.257 7.82885 11.2304C8.21358 11.1326 8.5783 10.8372 8.74731 10.484C8.90298 10.1619 8.90966 10.0909 8.90298 8.87584L8.89631 7.80964L8.84072 7.70969C8.80958 7.65638 8.74064 7.58086 8.68949 7.54309C8.60054 7.48312 8.57607 7.47646 8.41818 7.47646C8.26028 7.47646 8.23582 7.48312 8.14687 7.54309C8.09572 7.58086 8.02678 7.65638 7.99564 7.70969L7.94005 7.80964L7.92893 8.89805L7.91781 9.98647L7.86666 10.0709C7.80439 10.1686 7.70432 10.2486 7.59757 10.2841C7.54642 10.2997 7.27955 10.3085 6.79253 10.3085H6.06087L6.05642 6.64793L6.04975 2.98954L6.00083 2.86737C5.90075 2.62304 5.68059 2.40313 5.44931 2.31206L5.33811 2.26986H6.42559C7.17948 2.26764 7.53752 2.27652 7.59757 2.29207C7.70209 2.32317 7.82885 2.42534 7.88 2.51864C7.91336 2.58083 7.92003 2.68967 7.92893 3.4449L7.94005 4.30008L8.00231 4.40447C8.09127 4.55774 8.22915 4.63326 8.41818 4.63326C8.57607 4.63104 8.65836 4.59994 8.76066 4.49777C8.89854 4.35783 8.89631 4.37782 8.90298 3.46711C8.90966 2.51197 8.89854 2.40313 8.74731 2.09216C8.5783 1.73898 8.21358 1.44355 7.82885 1.34582C7.71543 1.31694 7.31958 1.3125 4.8711 1.3125C2.20245 1.31472 2.0401 1.31694 1.93558 1.3547Z" fill="url(#paint0_linear_960_648)"/>
<path d="M10.154 3.69682C10.0406 3.73458 9.945 3.81899 9.87828 3.94338C9.83158 4.02778 9.82936 4.06332 9.82269 4.803L9.81379 5.57377L8.78636 5.58044L7.7567 5.5871L7.66553 5.65152C7.42312 5.81811 7.39421 6.20016 7.60771 6.4023C7.74559 6.53113 7.74781 6.53113 8.82639 6.53113H9.81601L9.82269 7.29302L9.82936 8.0549L9.88718 8.16374C9.96724 8.32367 10.0918 8.40364 10.2719 8.41475C10.5321 8.43252 10.4898 8.46361 11.5707 7.38853C12.1111 6.85099 12.5825 6.3712 12.6136 6.32233C12.6848 6.22238 12.7093 6.00914 12.6648 5.87142C12.6426 5.80478 12.4291 5.57821 11.6329 4.78079C11.0636 4.20993 10.5921 3.75457 10.5454 3.73014C10.4343 3.67239 10.2741 3.65906 10.154 3.69682Z" fill="#F58888"/>
<defs>
<linearGradient id="paint0_linear_960_648" x1="5.10876" y1="12.6875" x2="5.10876" y2="1.3125" gradientUnits="userSpaceOnUse">
<stop stop-color="#3674B6"/>
<stop offset="1" stop-color="#2B5279"/>
</linearGradient>
</defs>
</svg>
