<svg width="16" height="16" viewBox="0 0 16 16" fill="none" xmlns="http://www.w3.org/2000/svg">
<path d="M11.9458 7.95068C13.3901 7.95068 14.8497 8.8522 15.1304 10.6401C15.3717 12.1777 15.1352 13.765 11.9517 13.7651H11.6147C11.9632 13.0268 11.9439 12.1347 11.8296 11.4067C11.5959 9.91817 10.2506 8.4132 8.97314 7.95068H11.9458ZM9.88525 1.43994C11.3851 1.43994 12.6011 2.65592 12.6011 4.15576C12.601 5.65554 11.385 6.87158 9.88525 6.87158C9.52177 6.87158 9.17575 6.79801 8.85889 6.66846C9.1402 6.12815 9.30029 5.50777 9.30029 4.92236C9.30022 3.92996 8.82592 2.79447 8.07178 2.13818C8.55283 1.70548 9.18729 1.43994 9.88525 1.43994Z" fill="#F58888"/>
<path d="M3.08302 4.92273C3.08302 3.42289 4.29888 2.20703 5.79872 2.20703C7.29856 2.20703 8.51442 3.42289 8.51442 4.92273C8.51442 6.42257 7.29856 7.63842 5.79872 7.63842C4.29888 7.63842 3.08302 6.42257 3.08302 4.92273Z" fill="url(#paint0_linear_247_513)"/>
<path d="M3.68485 8.7179H7.85971C9.30403 8.7179 10.7632 9.61885 11.0439 11.4068C11.2853 12.9446 11.0489 14.5326 7.86476 14.5326H3.70247C0.618183 14.5326 0.712381 12.8744 0.854442 11.4068C1.02427 9.65194 2.5818 8.7179 3.68485 8.7179Z" fill="url(#paint1_linear_247_513)"/>
<defs>
<linearGradient id="paint0_linear_247_513" x1="5.95675" y1="2.20703" x2="5.95675" y2="14.5326" gradientUnits="userSpaceOnUse">
<stop stop-color="#2B5279"/>
<stop offset="1" stop-color="#3674B6"/>
</linearGradient>
<linearGradient id="paint1_linear_247_513" x1="5.95675" y1="2.20703" x2="5.95675" y2="14.5326" gradientUnits="userSpaceOnUse">
<stop stop-color="#2B5279"/>
<stop offset="1" stop-color="#3674B6"/>
</linearGradient>
</defs>
</svg>
