<svg width="18" height="18" viewBox="0 0 18 18" fill="none" xmlns="http://www.w3.org/2000/svg">
<path d="M8.2501 17.2121V15.7121C6.6876 15.5371 5.34697 14.8902 4.22822 13.7715C3.10947 12.6527 2.4626 11.3121 2.2876 9.74961H0.787598V8.24961H2.2876C2.4626 6.68711 3.10947 5.34648 4.22822 4.22773C5.34697 3.10898 6.6876 2.46211 8.2501 2.28711V0.787109H9.7501V2.28711C11.3126 2.46211 12.6532 3.10898 13.772 4.22773C14.8907 5.34648 15.5376 6.68711 15.7126 8.24961H17.2126V9.74961H15.7126C15.5376 11.3121 14.8907 12.6527 13.772 13.7715C12.6532 14.8902 11.3126 15.5371 9.7501 15.7121V17.2121H8.2501ZM9.0001 14.2496C10.4501 14.2496 11.6876 13.7371 12.7126 12.7121C13.7376 11.6871 14.2501 10.4496 14.2501 8.99961C14.2501 7.54961 13.7376 6.31211 12.7126 5.28711C11.6876 4.26211 10.4501 3.74961 9.0001 3.74961C7.5501 3.74961 6.3126 4.26211 5.2876 5.28711C4.2626 6.31211 3.7501 7.54961 3.7501 8.99961C3.7501 10.4496 4.2626 11.6871 5.2876 12.7121C6.3126 13.7371 7.5501 14.2496 9.0001 14.2496ZM9.0001 11.9996C8.1751 11.9996 7.46885 11.7059 6.88135 11.1184C6.29385 10.5309 6.0001 9.82461 6.0001 8.99961C6.0001 8.17461 6.29385 7.46836 6.88135 6.88086C7.46885 6.29336 8.1751 5.99961 9.0001 5.99961C9.8251 5.99961 10.5313 6.29336 11.1188 6.88086C11.7063 7.46836 12.0001 8.17461 12.0001 8.99961C12.0001 9.82461 11.7063 10.5309 11.1188 11.1184C10.5313 11.7059 9.8251 11.9996 9.0001 11.9996Z" fill="#333333"/>
</svg>
