<svg width="16" height="16" viewBox="0 0 16 16" fill="none" xmlns="http://www.w3.org/2000/svg">
<g clip-path="url(#clip0_247_571)">
<path d="M1.16563 1.95019C0.653126 2.07519 0.218751 2.48456 0.0625014 2.99394C0.00312637 3.18769 1.37018e-06 3.29081 1.37018e-06 6.24706C1.37018e-06 9.51894 -0.00624863 9.38456 0.156251 9.73456C0.253126 9.93769 0.625001 10.3096 0.828126 10.4064C1.15938 10.5596 1.225 10.5689 2.1 10.5846L2.93125 10.6002L2.94375 11.3564L2.95313 12.1127L3.0375 12.2408C3.15 12.4096 3.30313 12.4783 3.53438 12.4627L3.71563 12.4502L4.94688 11.5221L6.175 10.5939H8.59688C9.92813 10.5939 11.1313 10.5814 11.2719 10.5627C11.9406 10.4877 12.4875 9.99394 12.6219 9.35019C12.6469 9.23456 12.6563 8.26581 12.6563 6.22519C12.6563 2.96581 12.6625 3.08769 12.4625 2.71269C12.3375 2.47519 12.0875 2.22519 11.85 2.10019C11.4656 1.89394 11.8063 1.90644 6.3125 1.90956C2.43438 1.91269 1.29375 1.91894 1.16563 1.95019ZM9.28125 4.88144C9.4375 4.98769 9.50625 5.10331 9.52188 5.27206C9.5375 5.47206 9.44063 5.64081 9.25313 5.74081L9.11563 5.81269H6.33125H3.54375L3.40625 5.74081C3.04063 5.55956 3.025 5.11894 3.37188 4.88456L3.47813 4.81269H6.32813H9.17813L9.28125 4.88144ZM8.3125 7.12519C8.49688 7.21894 8.57813 7.35644 8.57813 7.56894C8.57813 7.75956 8.525 7.86269 8.3625 7.98144C8.27813 8.04706 8.24688 8.04706 6.32813 8.04706C4.4 8.04706 4.37813 8.04706 4.29063 7.98144C4.0125 7.77519 3.98125 7.42206 4.225 7.19706C4.2625 7.15956 4.33125 7.11581 4.375 7.09706C4.425 7.07831 5.15938 7.06581 6.32188 7.06581C8.12188 7.06269 8.19375 7.06581 8.3125 7.12519Z" fill="url(#paint0_linear_247_571)"/>
<path d="M13.7562 5.14697C13.5312 5.14697 13.4094 5.37891 13.4094 5.51572C13.3875 5.60009 13.375 6.27822 13.375 7.64072C13.375 9.34384 13.3688 9.67197 13.3281 9.82822C13.1719 10.4251 12.7406 10.8813 12.1094 11.1126C11.9625 11.1688 11.7844 11.172 9.325 11.1876L6.69688 11.2032L6.58438 11.2907C6.43125 11.4063 6.375 11.5251 6.375 11.7188C6.375 12.0001 6.525 12.1751 6.93437 12.372L7.17188 12.4845L8.49063 12.4938L9.80938 12.5032L10.9563 13.222C11.5844 13.6157 12.1719 13.9751 12.2594 14.022C12.5969 14.1907 12.95 14.0313 13.0312 13.6688C13.0469 13.6032 13.0625 13.3126 13.0625 13.0251V12.5032L13.9625 12.4938L14.8594 12.4845L15.1031 12.3688C15.4469 12.2032 15.6844 11.9688 15.8531 11.6282L15.9844 11.3657L15.9938 8.89384C16 6.49384 16 6.41572 15.9375 6.21572C15.7812 5.69384 15.3313 5.28447 14.7844 5.16884C14.5938 5.12822 13.9281 5.11572 13.7562 5.14697Z" fill="#F58888"/>
</g>
<defs>
<linearGradient id="paint0_linear_247_571" x1="6.32812" y1="12.4648" x2="6.32812" y2="1.90827" gradientUnits="userSpaceOnUse">
<stop stop-color="#3674B6"/>
<stop offset="1" stop-color="#2B5279"/>
</linearGradient>
<clipPath id="clip0_247_571">
<rect width="16" height="16" fill="white"/>
</clipPath>
</defs>
</svg>
