<svg width="4" height="18" viewBox="0 0 4 18" fill="none" xmlns="http://www.w3.org/2000/svg">
<path d="M1.6449 0.949219C1.35583 1.04297 1.0824 1.21875 0.863647 1.45312C0.508179 1.83203 0.363647 2.21094 0.363647 2.75C0.363647 3.28906 0.508179 3.66797 0.863647 4.04688C1.23474 4.44141 1.66833 4.625 2.23865 4.625C2.80896 4.625 3.24255 4.44141 3.61365 4.04688C3.96912 3.66797 4.11365 3.28906 4.11365 2.75C4.11365 2.21094 3.96912 1.83203 3.61365 1.45312C3.39099 1.21484 3.11755 1.04297 2.82068 0.949219C2.50427 0.851562 1.95349 0.851562 1.6449 0.949219Z" fill="white"/>
<path d="M1.6449 7.19922C1.35583 7.29297 1.0824 7.46875 0.863647 7.70312C0.508179 8.08203 0.363647 8.46094 0.363647 9C0.363647 9.53906 0.508179 9.91797 0.863647 10.2969C1.23474 10.6914 1.66833 10.875 2.23865 10.875C2.80896 10.875 3.24255 10.6914 3.61365 10.2969C3.96912 9.91797 4.11365 9.53906 4.11365 9C4.11365 8.46094 3.96912 8.08203 3.61365 7.70312C3.39099 7.46484 3.11755 7.29297 2.82068 7.19922C2.50427 7.10156 1.95349 7.10156 1.6449 7.19922Z" fill="white"/>
<path d="M1.6449 13.4492C1.35583 13.543 1.0824 13.7188 0.863647 13.9531C0.508179 14.332 0.363647 14.7109 0.363647 15.25C0.363647 15.7891 0.508179 16.168 0.863647 16.5469C1.23474 16.9414 1.66833 17.125 2.23865 17.125C2.80896 17.125 3.24255 16.9414 3.61365 16.5469C3.96912 16.168 4.11365 15.7891 4.11365 15.25C4.11365 14.7109 3.96912 14.332 3.61365 13.9531C3.39099 13.7148 3.11755 13.543 2.82068 13.4492C2.50427 13.3516 1.95349 13.3516 1.6449 13.4492Z" fill="white"/>
</svg>
