<svg width="24" height="25" viewBox="0 0 24 25" fill="none" xmlns="http://www.w3.org/2000/svg">
<g clip-path="url(#clip0_2282_10770)">
<path d="M5.2582 0.612501C5.0707 0.668751 4.93477 0.734377 4.95352 0.753126C4.97227 0.776564 4.95352 0.781252 4.91133 0.767189C4.86445 0.74844 4.82695 0.757814 4.82695 0.781252C4.82695 0.809376 4.78945 0.828127 4.74258 0.828127C4.6957 0.828127 4.61133 0.870314 4.55508 0.921877C4.49883 0.973438 4.43789 1.01563 4.41445 1.01563C4.3582 1.01563 4.1707 1.16094 4.03477 1.31563C3.96914 1.39063 3.8332 1.53594 3.73008 1.63906C3.63164 1.7375 3.54727 1.84531 3.54258 1.87813C3.5332 1.94375 3.41602 2.15469 3.37383 2.1875C3.32227 2.22969 3.13008 2.67031 3.11602 2.79219C3.10664 2.85781 3.09258 2.91406 3.08789 2.91406C3.0832 2.91406 3.07383 2.98438 3.07383 3.06406C3.06914 3.14844 3.05039 3.23281 3.03164 3.24688C2.98945 3.29375 2.98945 21.7109 3.03164 21.7531C3.05039 21.7719 3.06914 21.8516 3.07852 21.9359C3.0832 22.0203 3.09727 22.1281 3.11133 22.1797C3.1207 22.2313 3.13477 22.3016 3.13477 22.3344C3.13945 22.3672 3.16289 22.3813 3.1957 22.3625C3.22852 22.3391 3.2332 22.3484 3.21445 22.3859C3.17227 22.4516 3.44414 23.0422 3.55664 23.1266C3.59883 23.1594 3.61289 23.1875 3.58945 23.1875C3.56602 23.1875 3.60352 23.2297 3.66914 23.2859C3.73945 23.3375 3.79102 23.3938 3.78633 23.4125C3.78164 23.4313 3.85664 23.525 3.95039 23.6234C4.04414 23.7219 4.12383 23.7875 4.12383 23.7641C4.12383 23.7453 4.15664 23.7781 4.19883 23.8344C4.23633 23.8906 4.29258 23.9375 4.3207 23.9375C4.34883 23.9375 4.44258 23.9891 4.53164 24.0594C4.61602 24.125 4.68633 24.1578 4.68633 24.1391C4.68633 24.1203 4.70508 24.125 4.72383 24.1531C4.7707 24.2234 5.09414 24.3641 5.21602 24.3688C5.27227 24.3734 5.34258 24.3969 5.37539 24.4203C5.4082 24.4438 5.45508 24.4484 5.47852 24.4344C5.50195 24.4156 5.53477 24.425 5.55352 24.4531C5.57227 24.4813 7.75195 24.5 11.966 24.5C18.2051 24.5 18.6316 24.4906 18.7488 24.3594C18.7629 24.3453 18.8051 24.3313 18.8426 24.3266C19.016 24.3078 19.1285 24.2656 19.3629 24.1203C19.5035 24.0359 19.6441 23.9375 19.677 23.9094C19.7051 23.8766 19.7754 23.8344 19.827 23.8203C19.8785 23.8016 19.9113 23.7688 19.8973 23.7453C19.8785 23.7219 19.8879 23.7031 19.9113 23.7031C19.977 23.7031 20.202 23.4969 20.202 23.4359C20.202 23.4078 20.2535 23.3516 20.3191 23.3094C20.3848 23.2672 20.4363 23.2016 20.4363 23.1641C20.4363 23.1266 20.4551 23.0938 20.4738 23.0938C20.4973 23.0938 20.5488 23.0141 20.591 22.9203C20.6332 22.8219 20.7176 22.6203 20.7832 22.475C20.8441 22.3297 20.8863 22.1984 20.8723 22.1844C20.8582 22.1703 20.8676 22.1328 20.891 22.1C20.9191 22.0672 20.9426 22.0063 20.952 21.9688C20.9566 21.9313 20.9707 18.6781 20.9848 14.7359L21.0035 7.57813H17.577H14.1551V4.03906V0.495314L9.88008 0.504688C5.64727 0.514065 5.5957 0.514065 5.2582 0.612501ZM8.90039 14.075C9.26133 14.1734 9.55664 14.3984 9.72539 14.7078C9.85664 14.9422 9.86602 14.9984 9.86602 15.4297C9.86602 15.8609 9.85664 15.9172 9.73008 16.1469C9.58008 16.4188 9.38789 16.5828 9.05508 16.7281C8.88164 16.8078 8.7082 16.8313 8.23945 16.85L7.63945 16.8734V17.6375V18.4063H7.05352H6.46758V16.2031V14H7.55508C8.39883 14 8.69883 14.0188 8.90039 14.075ZM12.7535 14.1266C13.3301 14.3422 13.6207 14.5531 13.8785 14.9516C14.291 15.5844 14.3145 16.6859 13.9348 17.3844C13.7801 17.6703 13.4426 17.9844 13.1285 18.1438C12.6879 18.3688 12.4395 18.4063 11.3332 18.4063H10.3113V16.1984V13.9906L11.4035 14.0094C12.3551 14.0281 12.5238 14.0422 12.7535 14.1266ZM17.9051 14.4922V14.9844H16.8973H15.8895V15.3125V15.6406H16.6863H17.4832V16.1328V16.625H16.6863H15.8895V17.5156V18.4063H15.3035H14.7176V16.2031V14H16.3113H17.9051V14.4922Z" fill="#EC1515"/>
<path d="M7.64062 15.425V15.875H7.9125C8.50313 15.8703 8.73281 15.7297 8.70938 15.3922C8.68594 15.1062 8.53125 15.0125 8.03438 14.9891L7.64062 14.975V15.425Z" fill="#EC1515"/>
<path d="M11.4844 16.2031V17.4219H11.7562C12.1734 17.4219 12.4922 17.3094 12.7219 17.0797C12.9703 16.8266 13.05 16.5641 13.0219 16.0906C12.9937 15.6828 12.8437 15.3781 12.5953 15.2234C12.3984 15.1016 11.9484 14.9844 11.6859 14.9844H11.4844V16.2031Z" fill="#EC1515"/>
<path d="M14.1562 4.04004V7.53223H17.5359H20.9156L20.3859 6.9791C19.1766 5.72754 16.8563 3.29004 16.2422 2.63379C15.3844 1.71504 14.2406 0.547851 14.1938 0.547851C14.175 0.547851 14.1562 2.11816 14.1562 4.04004Z" fill="#EC6B6B"/>
<path d="M6.49219 16.227C6.49219 17.441 6.49687 17.9426 6.50156 17.3426C6.51094 16.7473 6.51094 15.7535 6.50156 15.1395C6.49687 14.5254 6.49219 15.0129 6.49219 16.227Z" fill="#EC6B6B"/>
<path d="M10.3359 16.227C10.3359 17.441 10.3406 17.9426 10.3453 17.3426C10.3547 16.7473 10.3547 15.7535 10.3453 15.1395C10.3406 14.5254 10.3359 15.0129 10.3359 16.227Z" fill="#EC6B6B"/>
<path d="M17.8779 14.5164C17.8779 14.7883 17.8826 14.8961 17.892 14.7601C17.9014 14.6289 17.9014 14.4039 17.892 14.2679C17.8826 14.1367 17.8779 14.2445 17.8779 14.5164Z" fill="#EC6B6B"/>
<path d="M7.86579 16.8455C8.00173 16.8549 8.21267 16.8549 8.33454 16.8455C8.45641 16.8361 8.34391 16.8314 8.0861 16.8314C7.82829 16.8314 7.72985 16.8361 7.86579 16.8455Z" fill="#EC6B6B"/>
<path d="M11.545 17.4549C11.6153 17.4643 11.7278 17.4643 11.8028 17.4549C11.8732 17.4455 11.8122 17.4361 11.6716 17.4361C11.531 17.4361 11.47 17.4455 11.545 17.4549Z" fill="#EC6B6B"/>
<path d="M16.945 3.36035C17.0715 3.48691 17.184 3.59473 17.1981 3.59473C17.2121 3.59473 17.1184 3.48691 16.9918 3.36035C16.8653 3.2291 16.7528 3.12598 16.7387 3.12598C16.7246 3.12598 16.8184 3.2291 16.945 3.36035Z" fill="#ECECEC"/>
<path d="M18.141 4.60254C18.3847 4.84629 18.5956 5.04785 18.6097 5.04785C18.6191 5.04785 18.4316 4.84629 18.1878 4.60254C17.9441 4.35879 17.7331 4.15723 17.7191 4.15723C17.7097 4.15723 17.8972 4.35879 18.141 4.60254Z" fill="#ECECEC"/>
<path d="M19.827 6.35953C20.4316 6.99235 20.9473 7.51735 20.9754 7.52672C21.027 7.54547 19.1379 5.58141 18.8848 5.35172C18.8004 5.27204 19.2223 5.72672 19.827 6.35953Z" fill="#ECECEC"/>
<path d="M6.51562 16.2229V18.4072H7.05469H7.59375V17.615V16.8229L8.21719 16.8041C8.7375 16.79 8.87344 16.7713 9.07031 16.6822C9.59063 16.4432 9.84375 16.0354 9.84375 15.4307C9.83906 14.84 9.62344 14.465 9.11719 14.1979C8.88281 14.0713 8.87813 14.0713 7.70156 14.0572L6.51562 14.0385V16.2229ZM8.54531 15.0416C8.70469 15.126 8.76094 15.2291 8.76562 15.4213C8.76562 15.5572 8.73281 15.6322 8.62969 15.74C8.49844 15.8713 8.475 15.876 8.04375 15.876H7.59375V15.4307V14.9854H8.02031C8.25469 14.9854 8.48906 15.0088 8.54531 15.0416Z" fill="#ECECEC"/>
<path d="M10.3594 16.2321V18.4165L11.3813 18.3931C12.1734 18.379 12.4547 18.3556 12.6562 18.2899C13.6734 17.9665 14.1563 17.3009 14.1563 16.2321C14.1563 15.304 13.8375 14.7134 13.125 14.3337C12.6844 14.0993 12.3703 14.0478 11.3109 14.0478H10.3594V16.2321ZM12.3328 15.0556C12.8016 15.2243 13.0312 15.5431 13.0688 16.0915C13.125 16.954 12.7078 17.4134 11.8266 17.4603L11.4375 17.4837V16.2321V14.9853H11.7844C11.9719 14.9853 12.2203 15.0181 12.3328 15.0556Z" fill="#ECECEC"/>
<path d="M14.7656 16.2275V18.4072H15.3047H15.8438V17.5166V16.626H16.6406H17.4375V16.1572V15.6885H16.6406H15.8438V15.3369V14.9854H16.8516H17.8594V14.5166V14.0479H16.3125H14.7656V16.2275Z" fill="#ECECEC"/>
</g>
<defs>
<clipPath id="clip0_2282_10770">
<rect width="24" height="24" fill="white" transform="translate(0 0.5)"/>
</clipPath>
</defs>
</svg>
