<svg width="18" height="18" viewBox="0 0 18 18" fill="none" xmlns="http://www.w3.org/2000/svg">
<path d="M3.90204 1.14052C3.60462 1.21811 2.01087 2.18793 1.47747 2.62112C1.30936 2.7569 1.18975 2.95086 1.14449 3.17069C1.09924 3.37112 1.15096 3.71056 1.34169 4.48319C2.01734 7.2278 3.60786 9.94332 5.84169 12.1739C7.80398 14.133 10.1057 15.5716 12.5723 16.383C13.1025 16.5575 13.8977 16.7612 14.3438 16.8356C14.8837 16.9293 15.1617 16.8194 15.4753 16.3959C15.8859 15.8366 16.4678 14.9121 16.7199 14.4142C16.9462 13.9681 16.9301 13.7547 16.6423 13.2343C15.9441 11.9703 14.9678 11.1782 13.5066 10.6901C12.9699 10.5123 12.7016 10.4897 12.4591 10.606C12.3783 10.6416 11.9581 10.9681 11.5216 11.3269C11.0852 11.6858 10.6747 12.0091 10.6035 12.0446C10.429 12.1351 10.1736 12.1545 9.99255 12.0931C9.83738 12.0414 9.31691 11.7052 8.88695 11.3819C8.08199 10.7741 7.36109 10.0662 6.7307 9.25474C6.42036 8.85388 6.01626 8.25259 5.94514 8.08125C5.87079 7.90992 5.87725 7.6125 5.95484 7.44117C5.9904 7.36358 6.32014 6.94009 6.68544 6.49397C7.05074 6.05108 7.37725 5.63405 7.40958 5.57263C7.44837 5.49181 7.46454 5.3819 7.46454 5.1847C7.4613 4.94871 7.44191 4.85496 7.32553 4.50582C6.88587 3.21272 6.19083 2.27199 5.18221 1.60927C4.58738 1.21811 4.18329 1.0694 3.90204 1.14052Z" fill="url(#paint0_linear_686_6507)"/>
<defs>
<linearGradient id="paint0_linear_686_6507" x1="9.00232" y1="16.8667" x2="9.00232" y2="1.12336" gradientUnits="userSpaceOnUse">
<stop stop-color="#3674B6"/>
<stop offset="1" stop-color="#2B5279"/>
</linearGradient>
</defs>
</svg>
