<svg width="18" height="18" viewBox="0 0 18 18" fill="none" xmlns="http://www.w3.org/2000/svg">
<mask id="mask0_336_1844" style="mask-type:alpha" maskUnits="userSpaceOnUse" x="0" y="0" width="18" height="18">
<rect width="18" height="18" fill="#D9D9D9"/>
</mask>
<g mask="url(#mask0_336_1844)">
<path d="M8.99988 13.125C9.93738 13.125 10.7343 12.7969 11.3905 12.1406C12.0468 11.4844 12.3749 10.6875 12.3749 9.75C12.3749 8.8125 12.0468 8.01562 11.3905 7.35938C10.7343 6.70312 9.93738 6.375 8.99988 6.375C8.06238 6.375 7.2655 6.70312 6.60925 7.35938C5.953 8.01562 5.62488 8.8125 5.62488 9.75C5.62488 10.6875 5.953 11.4844 6.60925 12.1406C7.2655 12.7969 8.06238 13.125 8.99988 13.125ZM8.99988 11.625C8.47488 11.625 8.03113 11.4438 7.66863 11.0813C7.30613 10.7188 7.12488 10.275 7.12488 9.75C7.12488 9.225 7.30613 8.78125 7.66863 8.41875C8.03113 8.05625 8.47488 7.875 8.99988 7.875C9.52488 7.875 9.96863 8.05625 10.3311 8.41875C10.6936 8.78125 10.8749 9.225 10.8749 9.75C10.8749 10.275 10.6936 10.7188 10.3311 11.0813C9.96863 11.4438 9.52488 11.625 8.99988 11.625ZM2.99988 15.75C2.58738 15.75 2.23425 15.6031 1.9405 15.3094C1.64675 15.0156 1.49988 14.6625 1.49988 14.25V5.25C1.49988 4.8375 1.64675 4.48438 1.9405 4.19063C2.23425 3.89688 2.58738 3.75 2.99988 3.75H5.36238L6.74988 2.25H11.2499L12.6374 3.75H14.9999C15.4124 3.75 15.7655 3.89688 16.0593 4.19063C16.353 4.48438 16.4999 4.8375 16.4999 5.25V14.25C16.4999 14.6625 16.353 15.0156 16.0593 15.3094C15.7655 15.6031 15.4124 15.75 14.9999 15.75H2.99988Z" fill="url(#paint0_linear_336_1844)"/>
</g>
<defs>
<linearGradient id="paint0_linear_336_1844" x1="8.99988" y1="2.25" x2="8.99988" y2="15.75" gradientUnits="userSpaceOnUse">
<stop stop-color="#2B5279"/>
<stop offset="1" stop-color="#3674B6"/>
</linearGradient>
</defs>
</svg>
