<svg width="160" height="160" viewBox="0 0 160 160" fill="none" xmlns="http://www.w3.org/2000/svg">
<g filter="url(#filter0_f_954_3149)">
<path d="M61.6892 30.3192C58.6354 31.1542 56.2736 33.0866 54.8898 35.8541C54.1264 37.4048 54.1025 37.5718 54.1025 40.3393C54.1025 43.0113 54.1503 43.2976 54.7944 44.6336C55.701 46.4945 57.9674 48.7609 59.8283 49.6675C61.1643 50.3117 61.4506 50.3594 64.1226 50.3594C66.8901 50.3594 67.0571 50.3355 68.6078 49.5721C73.7372 47.0432 75.8843 40.888 73.427 35.8064C71.3276 31.4643 66.246 29.1024 61.6892 30.3192Z" fill="#E5E5E5"/>
<path d="M97.5463 45.5883C97.0214 45.7791 96.258 46.2801 95.8524 46.7096C95.423 47.139 91.0809 53.9384 86.1901 61.8113C81.2994 69.6842 77.0051 76.4359 76.6711 76.8176C75.3828 78.2252 73.0209 78.7739 71.3031 78.0582C70.8737 77.8912 66.7464 74.7181 62.118 71.0202C57.4897 67.3223 53.3624 64.0777 52.9568 63.8392C51.1198 62.7179 48.3285 63.1234 46.8016 64.7219C46.1336 65.4376 31.7953 90.5356 30.0776 94.0188C29.505 95.1401 29.3857 96.1898 29.672 97.5497C30.006 99.1004 31.6283 100.866 33.1075 101.271C34.4435 101.629 124.553 101.653 125.889 101.271C128.251 100.627 129.968 97.7167 129.42 95.3071C129.157 94.2573 105.181 49.5247 103.678 47.3299C102.461 45.5644 99.765 44.801 97.5463 45.5883Z" fill="#E5E5E5"/>
</g>
<path d="M26.4494 126.549V118.149H27.6134L32.7494 125.025L32.5574 125.133C32.5254 124.933 32.4974 124.717 32.4734 124.485C32.4494 124.245 32.4254 123.993 32.4014 123.729C32.3854 123.457 32.3694 123.173 32.3534 122.877C32.3454 122.573 32.3374 122.257 32.3294 121.929C32.3214 121.601 32.3174 121.261 32.3174 120.909V118.149H33.6134V126.549H32.4254L27.3734 119.925L27.5054 119.757C27.5454 120.245 27.5774 120.661 27.6014 121.005C27.6334 121.341 27.6574 121.629 27.6734 121.869C27.6974 122.101 27.7134 122.293 27.7214 122.445C27.7294 122.589 27.7334 122.709 27.7334 122.805C27.7414 122.901 27.7454 122.985 27.7454 123.057V126.549H26.4494ZM38.4851 126.669C37.8691 126.669 37.3171 126.529 36.8291 126.249C36.3491 125.961 35.9691 125.573 35.6891 125.085C35.4091 124.589 35.2691 124.025 35.2691 123.393C35.2691 122.761 35.4091 122.201 35.6891 121.713C35.9691 121.217 36.3491 120.829 36.8291 120.549C37.3171 120.261 37.8691 120.117 38.4851 120.117C39.0931 120.117 39.6371 120.261 40.1171 120.549C40.6051 120.829 40.9891 121.217 41.2691 121.713C41.5491 122.201 41.6891 122.761 41.6891 123.393C41.6891 124.025 41.5491 124.589 41.2691 125.085C40.9891 125.573 40.6051 125.961 40.1171 126.249C39.6371 126.529 39.0931 126.669 38.4851 126.669ZM38.4851 125.541C38.8611 125.541 39.1971 125.449 39.4931 125.265C39.7891 125.073 40.0211 124.817 40.1891 124.497C40.3571 124.169 40.4371 123.801 40.4291 123.393C40.4371 122.977 40.3571 122.609 40.1891 122.289C40.0211 121.961 39.7891 121.705 39.4931 121.521C39.1971 121.337 38.8611 121.245 38.4851 121.245C38.1091 121.245 37.7691 121.341 37.4651 121.533C37.1691 121.717 36.9371 121.973 36.7691 122.301C36.6011 122.621 36.5211 122.985 36.5291 123.393C36.5211 123.801 36.6011 124.169 36.7691 124.497C36.9371 124.817 37.1691 125.073 37.4651 125.265C37.7691 125.449 38.1091 125.541 38.4851 125.541ZM46.3992 129.189V120.249H47.6472V121.689L47.4552 121.581C47.5032 121.341 47.6392 121.113 47.8632 120.897C48.0872 120.673 48.3592 120.493 48.6792 120.357C49.0072 120.213 49.3432 120.141 49.6872 120.141C50.2552 120.141 50.7592 120.281 51.1992 120.561C51.6392 120.841 51.9872 121.225 52.2432 121.713C52.4992 122.201 52.6272 122.761 52.6272 123.393C52.6272 124.017 52.4992 124.577 52.2432 125.073C51.9952 125.561 51.6512 125.949 51.2112 126.237C50.7712 126.517 50.2752 126.657 49.7232 126.657C49.3552 126.657 48.9992 126.585 48.6552 126.441C48.3112 126.289 48.0192 126.097 47.7792 125.865C47.5392 125.633 47.3912 125.393 47.3352 125.145L47.6472 124.977V129.189H46.3992ZM49.5192 125.517C49.8872 125.517 50.2152 125.425 50.5032 125.241C50.7912 125.057 51.0192 124.805 51.1872 124.485C51.3552 124.165 51.4392 123.801 51.4392 123.393C51.4392 122.985 51.3552 122.625 51.1872 122.313C51.0272 121.993 50.8032 121.741 50.5152 121.557C50.2272 121.373 49.8952 121.281 49.5192 121.281C49.1432 121.281 48.8112 121.373 48.5232 121.557C48.2352 121.733 48.0072 121.981 47.8392 122.301C47.6712 122.621 47.5872 122.985 47.5872 123.393C47.5872 123.801 47.6712 124.165 47.8392 124.485C48.0072 124.805 48.2352 125.057 48.5232 125.241C48.8112 125.425 49.1432 125.517 49.5192 125.517ZM53.9695 126.549V117.669H55.2055V121.545L54.9895 121.689C55.0695 121.409 55.2255 121.153 55.4575 120.921C55.6895 120.681 55.9655 120.489 56.2855 120.345C56.6055 120.193 56.9335 120.117 57.2695 120.117C57.7495 120.117 58.1495 120.213 58.4695 120.405C58.7895 120.589 59.0295 120.873 59.1895 121.257C59.3495 121.641 59.4295 122.125 59.4295 122.709V126.549H58.1935V122.793C58.1935 122.433 58.1455 122.137 58.0495 121.905C57.9535 121.665 57.8055 121.493 57.6055 121.389C57.4055 121.277 57.1575 121.229 56.8615 121.245C56.6215 121.245 56.4015 121.285 56.2015 121.365C56.0015 121.437 55.8255 121.541 55.6735 121.677C55.5295 121.813 55.4135 121.973 55.3255 122.157C55.2455 122.333 55.2055 122.525 55.2055 122.733V126.549H54.5935C54.4895 126.549 54.3855 126.549 54.2815 126.549C54.1775 126.549 54.0735 126.549 53.9695 126.549ZM63.9382 126.669C63.3222 126.669 62.7702 126.529 62.2822 126.249C61.8022 125.961 61.4222 125.573 61.1422 125.085C60.8622 124.589 60.7222 124.025 60.7222 123.393C60.7222 122.761 60.8622 122.201 61.1422 121.713C61.4222 121.217 61.8022 120.829 62.2822 120.549C62.7702 120.261 63.3222 120.117 63.9382 120.117C64.5462 120.117 65.0902 120.261 65.5702 120.549C66.0582 120.829 66.4422 121.217 66.7222 121.713C67.0022 122.201 67.1422 122.761 67.1422 123.393C67.1422 124.025 67.0022 124.589 66.7222 125.085C66.4422 125.573 66.0582 125.961 65.5702 126.249C65.0902 126.529 64.5462 126.669 63.9382 126.669ZM63.9382 125.541C64.3142 125.541 64.6502 125.449 64.9462 125.265C65.2422 125.073 65.4742 124.817 65.6422 124.497C65.8102 124.169 65.8902 123.801 65.8822 123.393C65.8902 122.977 65.8102 122.609 65.6422 122.289C65.4742 121.961 65.2422 121.705 64.9462 121.521C64.6502 121.337 64.3142 121.245 63.9382 121.245C63.5622 121.245 63.2222 121.341 62.9182 121.533C62.6222 121.717 62.3902 121.973 62.2222 122.301C62.0542 122.621 61.9742 122.985 61.9822 123.393C61.9742 123.801 62.0542 124.169 62.2222 124.497C62.3902 124.817 62.6222 125.073 62.9182 125.265C63.2222 125.449 63.5622 125.541 63.9382 125.541ZM69.269 126.549V118.641H70.505V126.549H69.269ZM67.961 121.449V120.249H71.969V121.449H67.961ZM75.8679 126.669C75.2519 126.669 74.6999 126.529 74.2119 126.249C73.7319 125.961 73.3519 125.573 73.0719 125.085C72.7919 124.589 72.6519 124.025 72.6519 123.393C72.6519 122.761 72.7919 122.201 73.0719 121.713C73.3519 121.217 73.7319 120.829 74.2119 120.549C74.6999 120.261 75.2519 120.117 75.8679 120.117C76.4759 120.117 77.0199 120.261 77.4999 120.549C77.9879 120.829 78.3719 121.217 78.6519 121.713C78.9319 122.201 79.0719 122.761 79.0719 123.393C79.0719 124.025 78.9319 124.589 78.6519 125.085C78.3719 125.573 77.9879 125.961 77.4999 126.249C77.0199 126.529 76.4759 126.669 75.8679 126.669ZM75.8679 125.541C76.2439 125.541 76.5799 125.449 76.8759 125.265C77.1719 125.073 77.4039 124.817 77.5719 124.497C77.7399 124.169 77.8199 123.801 77.8119 123.393C77.8199 122.977 77.7399 122.609 77.5719 122.289C77.4039 121.961 77.1719 121.705 76.8759 121.521C76.5799 121.337 76.2439 121.245 75.8679 121.245C75.4919 121.245 75.1519 121.341 74.8479 121.533C74.5519 121.717 74.3199 121.973 74.1519 122.301C73.9839 122.621 73.9039 122.985 73.9119 123.393C73.9039 123.801 73.9839 124.169 74.1519 124.497C74.3199 124.817 74.5519 125.073 74.8479 125.265C75.1519 125.449 75.4919 125.541 75.8679 125.541ZM83.782 129.189V120.249H85.03V121.689L84.838 121.581C84.886 121.341 85.022 121.113 85.246 120.897C85.47 120.673 85.742 120.493 86.062 120.357C86.39 120.213 86.726 120.141 87.07 120.141C87.638 120.141 88.142 120.281 88.582 120.561C89.022 120.841 89.37 121.225 89.626 121.713C89.882 122.201 90.01 122.761 90.01 123.393C90.01 124.017 89.882 124.577 89.626 125.073C89.378 125.561 89.034 125.949 88.594 126.237C88.154 126.517 87.658 126.657 87.106 126.657C86.738 126.657 86.382 126.585 86.038 126.441C85.694 126.289 85.402 126.097 85.162 125.865C84.922 125.633 84.774 125.393 84.718 125.145L85.03 124.977V129.189H83.782ZM86.902 125.517C87.27 125.517 87.598 125.425 87.886 125.241C88.174 125.057 88.402 124.805 88.57 124.485C88.738 124.165 88.822 123.801 88.822 123.393C88.822 122.985 88.738 122.625 88.57 122.313C88.41 121.993 88.186 121.741 87.898 121.557C87.61 121.373 87.278 121.281 86.902 121.281C86.526 121.281 86.194 121.373 85.906 121.557C85.618 121.733 85.39 121.981 85.222 122.301C85.054 122.621 84.97 122.985 84.97 123.393C84.97 123.801 85.054 124.165 85.222 124.485C85.39 124.805 85.618 125.057 85.906 125.241C86.194 125.425 86.526 125.517 86.902 125.517ZM91.3523 126.549V120.249H92.6003V122.229L92.4803 121.749C92.5683 121.445 92.7163 121.169 92.9243 120.921C93.1403 120.673 93.3843 120.477 93.6563 120.333C93.9363 120.189 94.2243 120.117 94.5203 120.117C94.6563 120.117 94.7843 120.129 94.9043 120.153C95.0323 120.177 95.1323 120.205 95.2043 120.237L94.8803 121.581C94.7843 121.541 94.6763 121.509 94.5563 121.485C94.4443 121.453 94.3323 121.437 94.2203 121.437C94.0043 121.437 93.7963 121.481 93.5963 121.569C93.4043 121.649 93.2323 121.765 93.0803 121.917C92.9363 122.061 92.8203 122.233 92.7323 122.433C92.6443 122.625 92.6003 122.837 92.6003 123.069V126.549H91.3523ZM98.7546 126.669C98.1386 126.669 97.5866 126.529 97.0986 126.249C96.6186 125.961 96.2386 125.573 95.9586 125.085C95.6786 124.589 95.5386 124.025 95.5386 123.393C95.5386 122.761 95.6786 122.201 95.9586 121.713C96.2386 121.217 96.6186 120.829 97.0986 120.549C97.5866 120.261 98.1386 120.117 98.7546 120.117C99.3626 120.117 99.9066 120.261 100.387 120.549C100.875 120.829 101.259 121.217 101.539 121.713C101.819 122.201 101.959 122.761 101.959 123.393C101.959 124.025 101.819 124.589 101.539 125.085C101.259 125.573 100.875 125.961 100.387 126.249C99.9066 126.529 99.3626 126.669 98.7546 126.669ZM98.7546 125.541C99.1306 125.541 99.4666 125.449 99.7626 125.265C100.059 125.073 100.291 124.817 100.459 124.497C100.627 124.169 100.707 123.801 100.699 123.393C100.707 122.977 100.627 122.609 100.459 122.289C100.291 121.961 100.059 121.705 99.7626 121.521C99.4666 121.337 99.1306 121.245 98.7546 121.245C98.3786 121.245 98.0386 121.341 97.7346 121.533C97.4386 121.717 97.2066 121.973 97.0386 122.301C96.8706 122.621 96.7906 122.985 96.7986 123.393C96.7906 123.801 96.8706 124.169 97.0386 124.497C97.2066 124.817 97.4386 125.073 97.7346 125.265C98.0386 125.449 98.3786 125.541 98.7546 125.541ZM105.194 126.549L102.53 120.249H103.862L105.782 124.965L105.554 125.073L107.606 120.249H108.878L106.082 126.549H105.194ZM110.213 126.549V120.249H111.449V126.549H110.213ZM110.813 118.857C110.549 118.857 110.345 118.789 110.201 118.653C110.057 118.517 109.985 118.325 109.985 118.077C109.985 117.845 110.057 117.657 110.201 117.513C110.353 117.369 110.557 117.297 110.813 117.297C111.077 117.297 111.281 117.365 111.425 117.501C111.569 117.637 111.641 117.829 111.641 118.077C111.641 118.309 111.565 118.497 111.413 118.641C111.269 118.785 111.069 118.857 110.813 118.857ZM115.976 126.669C115.4 126.669 114.884 126.529 114.428 126.249C113.98 125.961 113.624 125.573 113.36 125.085C113.096 124.589 112.964 124.025 112.964 123.393C112.964 122.761 113.092 122.201 113.348 121.713C113.612 121.217 113.968 120.829 114.416 120.549C114.864 120.261 115.372 120.117 115.94 120.117C116.252 120.117 116.552 120.169 116.84 120.273C117.136 120.369 117.4 120.505 117.632 120.681C117.864 120.849 118.044 121.037 118.172 121.245C118.308 121.445 118.376 121.649 118.376 121.857L118.016 121.881V117.669H119.252V126.549H118.016V125.049H118.256C118.256 125.241 118.192 125.433 118.064 125.625C117.936 125.809 117.764 125.981 117.548 126.141C117.34 126.301 117.096 126.429 116.816 126.525C116.544 126.621 116.264 126.669 115.976 126.669ZM116.144 125.601C116.52 125.601 116.852 125.505 117.14 125.313C117.428 125.121 117.652 124.861 117.812 124.533C117.98 124.197 118.064 123.817 118.064 123.393C118.064 122.969 117.98 122.593 117.812 122.265C117.652 121.929 117.428 121.665 117.14 121.473C116.852 121.281 116.52 121.185 116.144 121.185C115.768 121.185 115.436 121.281 115.148 121.473C114.86 121.665 114.632 121.929 114.464 122.265C114.304 122.593 114.224 122.969 114.224 123.393C114.224 123.817 114.304 124.197 114.464 124.533C114.632 124.861 114.86 125.121 115.148 125.313C115.436 125.505 115.768 125.601 116.144 125.601ZM123.894 126.669C123.246 126.669 122.67 126.533 122.166 126.261C121.67 125.981 121.278 125.601 120.99 125.121C120.71 124.641 120.57 124.089 120.57 123.465C120.57 122.969 120.65 122.517 120.81 122.109C120.97 121.701 121.19 121.349 121.47 121.053C121.758 120.749 122.098 120.517 122.49 120.357C122.89 120.189 123.322 120.105 123.786 120.105C124.194 120.105 124.574 120.185 124.926 120.345C125.278 120.497 125.582 120.709 125.838 120.981C126.102 121.253 126.302 121.577 126.438 121.953C126.582 122.321 126.65 122.725 126.642 123.165L126.63 123.693H121.482L121.206 122.709H125.562L125.382 122.913V122.625C125.358 122.361 125.27 122.125 125.118 121.917C124.966 121.709 124.774 121.545 124.542 121.425C124.31 121.305 124.058 121.245 123.786 121.245C123.354 121.245 122.99 121.329 122.694 121.497C122.398 121.657 122.174 121.897 122.022 122.217C121.87 122.529 121.794 122.917 121.794 123.381C121.794 123.821 121.886 124.205 122.07 124.533C122.254 124.853 122.514 125.101 122.85 125.277C123.186 125.453 123.574 125.541 124.014 125.541C124.326 125.541 124.614 125.489 124.878 125.385C125.15 125.281 125.442 125.093 125.754 124.821L126.378 125.697C126.186 125.889 125.95 126.057 125.67 126.201C125.398 126.345 125.106 126.461 124.794 126.549C124.49 126.629 124.19 126.669 123.894 126.669ZM130.613 126.669C130.037 126.669 129.521 126.529 129.065 126.249C128.617 125.961 128.261 125.573 127.997 125.085C127.733 124.589 127.601 124.025 127.601 123.393C127.601 122.761 127.729 122.201 127.985 121.713C128.249 121.217 128.605 120.829 129.053 120.549C129.501 120.261 130.009 120.117 130.577 120.117C130.889 120.117 131.189 120.169 131.477 120.273C131.773 120.369 132.037 120.505 132.269 120.681C132.501 120.849 132.681 121.037 132.809 121.245C132.945 121.445 133.013 121.649 133.013 121.857L132.653 121.881V117.669H133.889V126.549H132.653V125.049H132.893C132.893 125.241 132.829 125.433 132.701 125.625C132.573 125.809 132.401 125.981 132.185 126.141C131.977 126.301 131.733 126.429 131.453 126.525C131.181 126.621 130.901 126.669 130.613 126.669ZM130.781 125.601C131.157 125.601 131.489 125.505 131.777 125.313C132.065 125.121 132.289 124.861 132.449 124.533C132.617 124.197 132.701 123.817 132.701 123.393C132.701 122.969 132.617 122.593 132.449 122.265C132.289 121.929 132.065 121.665 131.777 121.473C131.489 121.281 131.157 121.185 130.781 121.185C130.405 121.185 130.073 121.281 129.785 121.473C129.497 121.665 129.269 121.929 129.101 122.265C128.941 122.593 128.861 122.969 128.861 123.393C128.861 123.817 128.941 124.197 129.101 124.533C129.269 124.861 129.497 125.121 129.785 125.313C130.073 125.505 130.405 125.601 130.781 125.601Z" fill="#A9AAB5"/>
<defs>
<filter id="filter0_f_954_3149" x="28.5225" y="29" width="102" height="73.5488" filterUnits="userSpaceOnUse" color-interpolation-filters="sRGB">
<feFlood flood-opacity="0" result="BackgroundImageFix"/>
<feBlend mode="normal" in="SourceGraphic" in2="BackgroundImageFix" result="shape"/>
<feGaussianBlur stdDeviation="0.5" result="effect1_foregroundBlur_954_3149"/>
</filter>
</defs>
</svg>
