<svg width="14" height="14" viewBox="0 0 14 14" fill="none" xmlns="http://www.w3.org/2000/svg">
<path d="M5.50975 1.39453C4.62381 1.90859 3.86639 2.35703 3.8281 2.39531L3.75975 2.46094L3.75154 4.375C3.74607 6.02383 3.75154 6.3 3.78435 6.36836C3.84725 6.48594 7.06287 8.33984 7.20506 8.33984C7.28709 8.33984 7.60975 8.16211 8.94686 7.39102C10.4179 6.54062 10.5929 6.43398 10.6258 6.35195C10.6586 6.27539 10.664 5.93359 10.6586 4.36133L10.6504 2.46094L10.582 2.39531C10.5437 2.35703 10.2676 2.18477 9.96951 2.0125L9.42264 1.69805L9.28592 1.77734C9.20936 1.82109 8.43279 2.26953 7.56053 2.77266L5.97459 3.68867L5.96092 4.43242C5.95271 4.8918 5.93631 5.18164 5.9199 5.18711C5.90623 5.18984 5.69568 5.08047 5.45506 4.94102L5.01756 4.68672L5.01209 3.91016L5.00662 3.13086L6.71561 2.14648C7.65623 1.60508 8.43006 1.15664 8.43553 1.14844C8.441 1.14023 8.18943 0.987109 7.88045 0.80664C7.51131 0.593359 7.28162 0.47578 7.21873 0.470312C7.1367 0.462109 6.90701 0.58789 5.50975 1.39453Z" fill="#F58888"/>
<path d="M2.35155 4.28477C1.81835 4.59102 1.35077 4.87266 1.31249 4.91094L1.24413 4.97656L1.23593 6.88516C1.23046 8.65977 1.23319 8.79648 1.27694 8.88398C1.32069 8.96328 1.55312 9.10547 2.95312 9.91484C4.31757 10.7023 4.59648 10.8527 4.68671 10.8555C4.76874 10.8555 4.86718 10.8145 5.11601 10.6695L5.4414 10.4863L5.43319 9.16016L5.42773 7.83672L4.53905 7.32266C4.0496 7.04102 3.60937 6.77305 3.56288 6.72656C3.51366 6.68281 3.46718 6.64453 3.45898 6.64453C3.45077 6.64453 3.4453 6.87695 3.4453 7.16133C3.4453 7.48672 3.43437 7.68633 3.41796 7.69727C3.40155 7.7082 3.18827 7.60156 2.94491 7.45938L2.50194 7.20508V6.42852V5.64922L2.9121 5.41133L3.32226 5.17344L3.33046 4.79883C3.33319 4.59375 3.33319 4.26836 3.33046 4.07695L3.32226 3.72422L2.35155 4.28477Z" fill="url(#paint0_linear_1092_2403)"/>
<path d="M9.78906 7.8832L8.08008 8.87305L8.07187 9.61953C8.0664 10.284 8.06094 10.3633 8.02265 10.3633C7.99805 10.3633 7.78203 10.2512 7.54414 10.1145L7.10937 9.86836V9.31328V8.7582L7.01914 8.73086C6.96992 8.71719 6.69375 8.5668 6.40117 8.4C6.11133 8.23047 5.8707 8.09375 5.8625 8.09375C5.85703 8.09375 5.8543 8.86758 5.85703 9.81641L5.86523 11.5391L5.93359 11.6047C5.97187 11.643 6.7293 12.0914 7.61523 12.6027C8.7582 13.2617 9.25312 13.5352 9.31055 13.5352C9.36797 13.5352 9.86289 13.2645 11.0059 12.6055C11.8945 12.0914 12.6492 11.643 12.6875 11.6047L12.7559 11.5391L12.7641 9.63867C12.7695 8.06094 12.7641 7.72461 12.7312 7.64805C12.6984 7.56875 12.6137 7.50859 12.1187 7.22422C11.8016 7.04102 11.5309 6.89062 11.5199 6.89336C11.509 6.89336 10.7297 7.33906 9.78906 7.8832Z" fill="url(#paint1_linear_1092_2403)"/>
<defs>
<linearGradient id="paint0_linear_1092_2403" x1="3.33763" y1="10.8555" x2="3.33763" y2="3.72422" gradientUnits="userSpaceOnUse">
<stop stop-color="#3674B6"/>
<stop offset="1" stop-color="#2B5279"/>
</linearGradient>
<linearGradient id="paint1_linear_1092_2403" x1="9.31093" y1="13.5352" x2="9.31093" y2="6.89332" gradientUnits="userSpaceOnUse">
<stop stop-color="#3674B6"/>
<stop offset="1" stop-color="#2B5279"/>
</linearGradient>
</defs>
</svg>
