<svg width="14" height="14" viewBox="0 0 14 14" fill="none" xmlns="http://www.w3.org/2000/svg">
<path d="M1.67344 1.53125C1.62422 1.56133 1.56133 1.62422 1.53125 1.67344C1.47656 1.76367 1.47656 1.82383 1.47656 7C1.47656 12.1762 1.47656 12.2363 1.53125 12.3266C1.56133 12.3758 1.62422 12.4387 1.67344 12.4688C1.76367 12.5234 1.82383 12.5234 7 12.5234C12.1762 12.5234 12.2363 12.5234 12.3266 12.4688C12.3758 12.4387 12.4387 12.3758 12.4688 12.3266C12.5234 12.2363 12.5234 12.1762 12.5234 7C12.5234 1.82383 12.5234 1.76367 12.4688 1.67344C12.4387 1.62422 12.3758 1.56133 12.3266 1.53125C12.2391 1.4793 12.1844 1.47656 10.6586 1.47656H9.07812V3.94023C9.07812 6.70742 9.0918 6.53242 8.87305 6.6582C8.81016 6.69648 8.71992 6.72656 8.6707 6.72656C8.61328 6.72656 8.31797 6.59531 7.79023 6.33008L6.99727 5.93086L6.2125 6.33008C5.71211 6.58164 5.39492 6.72656 5.34297 6.72656C5.21719 6.72656 5.03125 6.61719 4.97383 6.50781C4.92461 6.41758 4.92188 6.29727 4.92188 3.9457V1.47656H3.34414C1.81562 1.47656 1.76094 1.4793 1.67344 1.53125Z" fill="url(#paint0_linear_1094_2416)"/>
<path d="M5.76953 3.54102C5.76953 4.67578 5.77773 5.60547 5.78594 5.60547C5.79414 5.60547 6.04844 5.47969 6.34648 5.32656C6.77305 5.10508 6.91523 5.04492 7.00273 5.04492C7.0875 5.04492 7.22969 5.10508 7.64805 5.31836C7.94062 5.46875 8.19219 5.59453 8.20586 5.6C8.21953 5.60547 8.23047 4.75234 8.23047 3.54375V1.47656H7H5.76953V3.54102Z" fill="#F58888"/>
<defs>
<linearGradient id="paint0_linear_1094_2416" x1="7" y1="12.5234" x2="7" y2="1.47656" gradientUnits="userSpaceOnUse">
<stop stop-color="#3674B6"/>
<stop offset="1" stop-color="#2B5279"/>
</linearGradient>
</defs>
</svg>
