<svg width="14" height="14" viewBox="0 0 14 14" fill="none" xmlns="http://www.w3.org/2000/svg">
<path d="M1.49844 1.82656L0.875 2.20117V6.94805C0.875 10.9512 0.880469 11.7141 0.913281 11.8234C1.00625 12.1324 1.27422 12.4004 1.58867 12.4988C1.74727 12.548 1.88125 12.5508 4.94375 12.5508L8.13477 12.548L8.01172 12.4496C7.81758 12.291 7.43203 11.8945 7.30898 11.7277C6.57617 10.7297 6.40391 9.42813 6.85508 8.30156C7.05195 7.80391 7.29805 7.4375 7.68906 7.04922C8.18398 6.5625 8.80195 6.23438 9.5293 6.08125C9.82734 6.01836 10.5137 6.01836 10.8145 6.07852C10.9348 6.10586 11.0496 6.125 11.0687 6.125C11.0961 6.125 11.1016 5.72305 11.0961 4.16445L11.0879 2.20391L10.459 1.82656C10.1145 1.61875 9.81914 1.44922 9.8082 1.44922C9.79453 1.44922 9.50742 1.61602 9.16836 1.81836C8.83203 2.0207 8.54492 2.1875 8.53125 2.1875C8.51758 2.1875 8.23867 2.02617 7.91055 1.8293C7.58242 1.63242 7.30078 1.46562 7.28164 1.45742C7.26523 1.44922 6.97813 1.60508 6.64453 1.80469C6.31367 2.00156 6.02383 2.16836 6.00195 2.17656C5.98008 2.18477 5.68477 2.02617 5.34297 1.81836C4.82617 1.50938 4.71133 1.44922 4.66484 1.47109C4.63203 1.48477 4.34219 1.65703 4.01953 1.85117L3.43164 2.20391L2.80273 1.82656C2.4582 1.61875 2.16289 1.44922 2.14648 1.44922C2.13281 1.45195 1.84023 1.61875 1.49844 1.82656ZM9.13555 4.9082C9.38164 5.03672 9.38164 5.43594 9.13555 5.56445C9.06172 5.6 8.70078 5.60547 5.97187 5.60547C2.93125 5.60547 2.89023 5.60547 2.80273 5.55078C2.70156 5.48789 2.625 5.35117 2.625 5.23086C2.625 5.12422 2.7043 4.9875 2.80273 4.92188C2.88203 4.86992 2.94492 4.86719 5.96914 4.86719C8.70078 4.86719 9.06172 4.87266 9.13555 4.9082ZM6.43398 7.03828C6.4832 7.05742 6.55703 7.11484 6.59805 7.16133C6.74023 7.33086 6.67188 7.62617 6.46953 7.72188C6.3875 7.76016 6.17969 7.76562 4.64297 7.76562C2.96406 7.76562 2.90937 7.76289 2.82187 7.71094C2.71523 7.64531 2.625 7.50586 2.625 7.40195C2.625 7.23242 2.75625 7.06016 2.91211 7.01914C2.94219 7.01367 3.72695 7.00547 4.65664 7.00273C6.02656 7 6.36289 7.0082 6.43398 7.03828ZM5.8707 9.21484C6.12227 9.36523 6.11953 9.66875 5.86797 9.85469C5.79414 9.90937 5.75859 9.91211 4.41328 9.92031C3.46172 9.92578 2.99961 9.91758 2.92031 9.89844C2.71797 9.84102 2.58672 9.63867 2.63594 9.45C2.65781 9.36523 2.78086 9.21758 2.85469 9.1875C2.8875 9.17383 3.55742 9.16289 4.34766 9.16289C5.72305 9.16016 5.78594 9.16289 5.8707 9.21484Z" fill="url(#paint0_linear_1089_2352)"/>
<path d="M9.80275 6.6717C8.23321 6.87131 7.08478 8.3178 7.24611 9.8928C7.32267 10.6201 7.63165 11.2518 8.16212 11.7522C8.57775 12.1459 9.03165 12.3811 9.6004 12.4959C9.96407 12.5725 10.5492 12.5615 10.8992 12.4713C12.0094 12.1924 12.8707 11.2846 13.0813 10.1717C13.1387 9.87639 13.1387 9.30491 13.0813 9.02873C12.9199 8.24123 12.4715 7.57678 11.8098 7.13928C11.3531 6.8385 10.8664 6.68264 10.3141 6.66077C10.1391 6.65256 9.90939 6.65803 9.80275 6.6717ZM10.3934 7.801C10.4508 7.83928 10.5027 7.90764 10.5301 7.98147C10.5656 8.07717 10.593 8.10725 10.6695 8.13459C10.9703 8.23577 11.1563 8.48186 11.1563 8.77717C11.1563 9.16819 10.6203 9.30491 10.4535 8.95491C10.4016 8.84553 10.3742 8.84006 10.1391 8.89748C9.97775 8.93577 9.84376 9.00413 9.84376 9.05061C9.84376 9.10256 9.97228 9.15725 10.2758 9.23928C10.9703 9.42795 11.2766 9.71233 11.2711 10.1635C11.2684 10.3768 11.2 10.5381 11.0359 10.7131C10.9266 10.8307 10.6641 10.992 10.5848 10.992C10.5684 10.992 10.5547 11.0358 10.5547 11.0877C10.5547 11.3311 10.3031 11.5389 10.0899 11.4705C9.98595 11.4377 9.8465 11.2928 9.82736 11.1971C9.81368 11.1178 9.79728 11.1041 9.69064 11.074C9.54025 11.0303 9.33243 10.8526 9.26681 10.7049C9.23673 10.6393 9.21486 10.5299 9.21486 10.4342C9.21486 10.2865 9.22306 10.2674 9.31876 10.1717C9.50743 9.98303 9.75079 10.0076 9.89571 10.2319C9.95314 10.3221 9.97775 10.3358 10.0625 10.3358C10.2484 10.3358 10.5274 10.2209 10.5274 10.1444C10.5274 10.1115 10.3496 10.0405 10.0734 9.96662C9.409 9.78616 9.10001 9.50998 9.09454 9.09162C9.09181 8.73342 9.29415 8.43264 9.64689 8.26858C9.80548 8.19748 9.81642 8.18655 9.81642 8.09905C9.81642 7.8092 10.15 7.63694 10.3934 7.801Z" fill="#F58888"/>
<defs>
<linearGradient id="paint0_linear_1089_2352" x1="5.9865" y1="12.5508" x2="5.9865" y2="1.44922" gradientUnits="userSpaceOnUse">
<stop stop-color="#3674B6"/>
<stop offset="1" stop-color="#2B5279"/>
</linearGradient>
</defs>
</svg>
