<svg width="14" height="14" viewBox="0 0 14 14" fill="none" xmlns="http://www.w3.org/2000/svg">
<g clip-path="url(#clip0_671_2942)">
<path d="M6.03765 0.907952C3.62597 1.20087 1.64635 2.93152 1.04587 5.27485C0.904292 5.82406 0.875 6.08281 0.875 6.74187C0.875 7.34967 0.89941 7.58644 1.01169 8.0722C1.13862 8.62385 1.43886 9.34638 1.74154 9.82969C2.67155 11.3211 4.22157 12.3195 5.96442 12.5538C6.32324 12.6026 7.08238 12.6075 7.4168 12.566C7.79515 12.5172 8.22232 12.422 8.57381 12.3048C9.14256 12.1193 9.848 11.7434 10.302 11.3895C10.3875 11.3236 10.4631 11.2699 10.4729 11.2699C10.4827 11.2699 10.8879 11.6653 11.3712 12.1462C12.3085 13.0835 12.3598 13.1226 12.5868 13.125C12.8846 13.125 13.1165 12.8955 13.1165 12.6002C13.1165 12.3659 13.0798 12.3219 12.1376 11.3797C11.6568 10.8964 11.2613 10.4912 11.2613 10.4814C11.2613 10.4717 11.315 10.396 11.3785 10.3106C12.638 8.69464 12.948 6.44407 12.1742 4.545C11.3565 2.5434 9.54288 1.15693 7.40947 0.907952C7.04089 0.864015 6.39403 0.864015 6.03765 0.907952ZM7.40459 1.98442C8.20035 2.09914 8.93752 2.40671 9.60146 2.8949C9.83335 3.06577 10.2703 3.48806 10.4631 3.72727C11.6519 5.19918 11.8618 7.21542 11.0001 8.90212C10.7023 9.48796 10.3142 9.98103 9.83335 10.3862C8.10027 11.8459 5.64709 11.9216 3.8481 10.5693C3.604 10.3862 3.19392 9.9908 3.00352 9.75646C2.52021 9.15599 2.18336 8.44566 2.01981 7.67432C1.93438 7.26912 1.90997 6.51486 1.97099 6.09501C2.1736 4.70366 2.91321 3.52467 4.07023 2.74844C5.04906 2.09182 6.24269 1.81843 7.40459 1.98442Z" fill="#A9AAB5"/>
</g>
<defs>
<clipPath id="clip0_671_2942">
<rect width="14" height="14" fill="white"/>
</clipPath>
</defs>
</svg>
