<svg width="16" height="15" viewBox="0 0 16 15" fill="none" xmlns="http://www.w3.org/2000/svg">
<path d="M7.34915 0.710879C7.38534 0.661088 7.46976 0.590795 7.53308 0.558577C7.60242 0.52636 7.71398 0.502929 7.80745 0.5C7.90997 0.5 8.01248 0.520502 8.08786 0.558577C8.15419 0.590795 8.24163 0.661088 8.27781 0.710879C8.31701 0.763598 8.79641 1.69791 9.33914 2.78452C9.88487 3.87113 10.3311 4.76444 10.3311 4.76736C10.3341 4.76736 10.8648 4.84644 11.51 4.93724C12.1553 5.03096 12.692 5.11004 12.701 5.1159C12.71 5.12176 12.6497 5.20377 12.5653 5.29456C12.4839 5.38828 12.2789 5.60795 12.113 5.78661C11.9472 5.96527 11.6276 6.28745 11.4045 6.50418C11.1814 6.72092 10.8407 7.03724 10.6507 7.20711C10.4577 7.37699 10.1261 7.65816 9.91201 7.83389C9.69492 8.00669 9.30898 8.30544 9.0527 8.49289C8.79641 8.68326 8.3954 8.96444 8.16324 9.11674C7.93107 9.27197 7.58433 9.49163 7.39438 9.60879C7.20443 9.72594 6.82452 9.94561 6.55015 10.0979C6.27577 10.2502 5.75415 10.5167 5.38932 10.6925C5.02449 10.8653 4.58429 11.0674 4.40941 11.1406C4.23453 11.2138 3.93603 11.3339 3.74608 11.4071C3.55613 11.4803 3.39633 11.5389 3.3903 11.5331C3.38728 11.5301 3.46266 11.0644 3.73704 9.47699L2.58827 8.37866C1.9551 7.77531 1.22544 7.07531 0.963123 6.82636C0.700808 6.57741 0.459598 6.33138 0.429447 6.28452C0.39628 6.23473 0.360099 6.12929 0.351053 6.05021C0.332963 5.9272 0.342008 5.87741 0.408341 5.73389C0.471658 5.60502 0.5199 5.54937 0.616384 5.49372C0.730959 5.42929 1.00534 5.38536 3.02245 5.0954C4.27373 4.91674 5.29887 4.77029 5.30189 4.76736C5.30189 4.76444 5.74812 3.87113 6.29386 2.78452C6.83658 1.69791 7.31297 0.763598 7.34915 0.710879Z" fill="#FFC94D"/>
<path d="M12.1553 5.74299C12.3422 5.5409 12.5442 5.31537 12.6015 5.24215L12.707 5.11035L13.1925 5.17772C13.4608 5.21579 13.9523 5.28608 14.284 5.33587C14.7211 5.40031 14.9201 5.44131 15.0076 5.48818C15.083 5.52918 15.1553 5.6024 15.2036 5.68441C15.2609 5.78399 15.2789 5.85721 15.2759 5.99194C15.2759 6.11788 15.2578 6.19696 15.2126 6.27018C15.1764 6.32583 14.887 6.62165 14.5644 6.92625C14.2448 7.23085 13.5121 7.92793 11.899 9.4773L12.1191 10.7514C12.2397 11.4514 12.4146 12.4618 12.508 12.9919C12.6528 13.8296 12.6709 13.976 12.6437 14.0815C12.6256 14.1518 12.5744 14.2484 12.5292 14.2982C12.4809 14.3509 12.3935 14.4154 12.3332 14.4447C12.2638 14.4798 12.1553 14.5003 12.0618 14.5003C11.9261 14.5003 11.8507 14.471 11.5402 14.3129C11.3412 14.2104 10.9553 14.0112 10.6809 13.8706C10.4065 13.73 10.0688 13.5543 9.9271 13.4811C9.78539 13.4078 9.48689 13.2555 9.26377 13.1384C9.04065 13.0212 8.73613 12.8631 8.58537 12.7869C8.43763 12.7108 8.20245 12.5907 7.81651 12.3915L6.13709 13.2614L5.98806 13.3383C5.11471 13.7887 4.28114 14.2186 4.09284 14.3129C3.78228 14.471 3.7069 14.5003 3.57424 14.5003C3.47474 14.5003 3.36921 14.4798 3.29383 14.4417C3.2275 14.4095 3.14006 14.3392 3.10086 14.2865C3.06167 14.2367 3.01342 14.1371 2.99533 14.0668C2.97724 13.9995 2.9682 13.8999 2.97724 13.8472C2.98629 13.7974 3.07373 13.2848 3.17323 12.7137C3.27272 12.1426 3.36016 11.6476 3.36619 11.6154C3.37524 11.5744 3.45062 11.5275 3.63152 11.4572C3.77022 11.4016 4.07173 11.2786 4.3039 11.1819C4.53606 11.0882 5.02451 10.8656 5.38934 10.6928C5.75417 10.517 6.27579 10.2505 6.55016 10.0982C6.82454 9.94592 7.20444 9.72625 7.3944 9.6091C7.58435 9.49194 7.93109 9.27228 8.16325 9.11705C8.39542 8.96475 8.79643 8.68357 9.05272 8.4932C9.309 8.30575 9.69494 8.007 9.91202 7.8342C10.1261 7.65847 10.4578 7.3773 10.6507 7.20742C10.8407 7.03755 11.1814 6.72123 11.4045 6.50449C11.6306 6.28776 11.9683 5.94508 12.1553 5.74299Z" fill="#FFB92B"/>
</svg>
