<svg width="26" height="24" viewBox="0 0 26 24" fill="none" xmlns="http://www.w3.org/2000/svg">
<path d="M12.2093 0.361498C12.2713 0.276145 12.4161 0.155645 12.5246 0.100416C12.6435 0.0451873 12.8347 0.00502081 12.995 0C13.1707 0 13.3464 0.0351457 13.4756 0.100416C13.5893 0.155645 13.7392 0.276145 13.8013 0.361498C13.8685 0.451873 14.6903 2.05351 15.6206 3.91623C16.5562 5.77895 17.3211 7.3103 17.3211 7.31532C17.3263 7.31532 18.236 7.45088 19.3421 7.60653C20.4482 7.76719 21.3682 7.90275 21.3837 7.9128C21.3992 7.92284 21.2958 8.06342 21.1511 8.21906C21.0116 8.37973 20.6601 8.75629 20.3758 9.06256C20.0915 9.36883 19.5437 9.92112 19.1612 10.2927C18.7787 10.6642 18.1946 11.2064 17.869 11.4977C17.5382 11.7889 16.9697 12.2709 16.6027 12.5721C16.2305 12.8683 15.5689 13.3805 15.1296 13.7018C14.6903 14.0281 14.0028 14.5101 13.6049 14.7712C13.2069 15.0373 12.6125 15.4139 12.2868 15.6147C11.9612 15.8155 11.31 16.1921 10.8396 16.4532C10.3693 16.7143 9.47509 17.1712 8.84968 17.4724C8.22427 17.7686 7.46965 18.1151 7.16986 18.2406C6.87008 18.3661 6.35838 18.572 6.03276 18.6975C5.70713 18.823 5.43319 18.9234 5.42285 18.9134C5.41769 18.9084 5.5469 18.1101 6.01725 15.3888L4.04799 13.506C2.96257 12.4717 1.71175 11.2717 1.26208 10.8449C0.812403 10.4182 0.398909 9.99643 0.347222 9.9161C0.290367 9.83074 0.228343 9.64999 0.212837 9.51443C0.181825 9.30356 0.197331 9.21821 0.311042 8.97219C0.419584 8.75127 0.502283 8.65588 0.66768 8.56048C0.864089 8.45002 1.33444 8.37471 4.79228 7.87765C6.93727 7.57138 8.69462 7.32034 8.69979 7.31532C8.69979 7.3103 9.46475 5.77895 10.4003 3.91623C11.3306 2.05351 12.1473 0.451873 12.2093 0.361498Z" fill="#EAEAEA"/>
<path d="M20.4481 8.98782C20.7686 8.64138 21.1149 8.25478 21.2131 8.12926L21.394 7.90332L22.2261 8.0188C22.6862 8.08407 23.5287 8.20457 24.0972 8.28992C24.8467 8.40038 25.1878 8.47067 25.3377 8.551C25.4669 8.6213 25.591 8.74682 25.6737 8.8874C25.7719 9.05811 25.8029 9.18363 25.7977 9.41458C25.7977 9.63048 25.7667 9.76604 25.6892 9.89156C25.6271 9.98696 25.1309 10.4941 24.5779 11.0162C24.03 11.5384 22.774 12.7333 20.0088 15.3893L20.3861 17.5734C20.5928 18.7734 20.8926 20.5056 21.0529 21.4143C21.301 22.8503 21.332 23.1013 21.2854 23.2821C21.2544 23.4026 21.1666 23.5682 21.089 23.6536C21.0063 23.744 20.8565 23.8544 20.7531 23.9046C20.6342 23.9649 20.4481 24 20.2879 24C20.0553 24 19.9261 23.9498 19.3937 23.6787C19.0526 23.503 18.391 23.1616 17.9206 22.9206C17.4503 22.6796 16.8714 22.3783 16.6285 22.2528C16.3856 22.1273 15.8739 21.8662 15.4914 21.6654C15.1089 21.4645 14.5869 21.1934 14.3284 21.0629C14.0752 20.9323 13.672 20.7265 13.0104 20.3851L10.1315 21.8762L9.87665 22.0077C8.37928 22.78 6.94996 23.5171 6.62711 23.6787C6.09474 23.9498 5.96552 24 5.7381 24C5.56753 24 5.38663 23.9649 5.25741 23.8996C5.1437 23.8444 4.99381 23.7239 4.92662 23.6335C4.85942 23.5482 4.77673 23.3775 4.74571 23.257C4.7147 23.1415 4.6992 22.9708 4.7147 22.8804C4.73021 22.795 4.8801 21.9164 5.05066 20.9373C5.22123 19.9583 5.37112 19.1098 5.38146 19.0545C5.39697 18.9842 5.52618 18.9039 5.8363 18.7834C6.07406 18.688 6.59093 18.4771 6.98891 18.3115C7.3869 18.1508 8.22423 17.7692 8.84964 17.473C9.47504 17.1717 10.3692 16.7148 10.8396 16.4538C11.3099 16.1927 11.9612 15.8161 12.2868 15.6153C12.6124 15.4145 13.2068 15.0379 13.6048 14.7718C14.0028 14.5107 14.6902 14.0287 15.1296 13.7024C15.5689 13.381 16.2305 12.8689 16.6026 12.5727C16.9696 12.2714 17.5382 11.7894 17.869 11.4982C18.1946 11.207 18.7786 10.6648 19.1611 10.2932C19.5488 9.92169 20.1277 9.33425 20.4481 8.98782Z" fill="#DFDFDF"/>
</svg>
