<svg width="16" height="16" viewBox="0 0 16 16" fill="none" xmlns="http://www.w3.org/2000/svg">
<path d="M4.2135 2.09766C4.20395 2.17744 4.19788 2.25846 4.19788 2.34082C4.19788 3.46057 5.10547 4.36816 6.22522 4.36816H9.63147C10.7511 4.36798 11.6588 3.46045 11.6588 2.34082C11.6588 2.25845 11.6518 2.17746 11.6422 2.09766H12.6227C13.6829 2.09777 14.5426 2.9573 14.5426 4.01758V13.2803C14.5425 14.3405 13.6829 15.2001 12.6227 15.2002H3.35999C2.2997 15.2002 1.44017 14.3405 1.44006 13.2803V4.01758C1.44011 2.95725 2.29966 2.0977 3.35999 2.09766H4.2135ZM10.3121 6.63672C10.1636 6.66183 10.2454 6.58562 8.61682 8.21191L7.11194 9.7168L6.42249 9.0293C5.78567 8.39362 5.72889 8.34013 5.66272 8.31152C5.45363 8.22012 5.20729 8.29204 5.08264 8.48047C5.03006 8.5582 5.00842 8.63524 5.00842 8.73926C5.00843 8.83968 5.03007 8.91621 5.07678 8.98926C5.09507 9.01783 5.49968 9.43185 5.9762 9.90723C6.92265 10.8525 6.88126 10.8166 7.04358 10.8418C7.13938 10.8577 7.22851 10.8425 7.32776 10.7969C7.39863 10.7637 7.49814 10.6665 9.09143 9.07324C10.7134 7.45124 10.7814 7.38127 10.818 7.30469C10.8533 7.22941 10.8551 7.21741 10.8551 7.09863C10.8551 6.98232 10.8531 6.96696 10.8199 6.89844C10.7296 6.70775 10.5235 6.6013 10.3121 6.63672Z" fill="url(#paint0_linear_247_527)"/>
<rect x="5.00842" y="0.800049" width="5.87808" height="2.91958" rx="1.28" fill="#F58888"/>
<defs>
<linearGradient id="paint0_linear_247_527" x1="7.99124" y1="2.09766" x2="7.99124" y2="15.2" gradientUnits="userSpaceOnUse">
<stop stop-color="#2B5279"/>
<stop offset="1" stop-color="#3674B6"/>
</linearGradient>
</defs>
</svg>
