<svg width="16" height="16" viewBox="0 0 16 16" fill="none" xmlns="http://www.w3.org/2000/svg">
<path d="M7.00817 0.0463057C4.96713 0.31933 3.03859 1.39537 1.78504 2.95321C0.45917 4.59939 -0.207784 6.91206 0.0573901 8.94368C0.177924 9.9073 0.362743 10.5417 0.820771 11.5535L1.19041 12.3806L0.860949 13.9304C0.734066 14.5413 0.63202 15.0861 0.593434 15.3538C0.576738 15.4697 0.638471 15.5264 0.753688 15.5058C1.0196 15.4581 1.56006 15.3431 2.17075 15.1991L3.71358 14.8298L4.38054 15.1429C6.69479 16.219 9.01707 16.2832 11.251 15.3276C13.0509 14.5567 14.6179 12.9828 15.3813 11.1761C15.8554 10.0599 16 9.31307 16 7.9881C16 7.03251 15.9679 6.69525 15.8152 6.10905C14.9072 2.58382 11.9902 0.182817 8.40637 0.00615501C7.94834 -0.00990486 7.32156 0.00615501 7.00817 0.0463057ZM5.09571 3.34669C5.27249 3.54744 6.16444 5.50679 6.16444 5.70754C6.16444 5.86814 6.03587 6.10905 5.70641 6.53465C5.33677 7.02448 5.35284 7.28948 5.7948 7.87568C5.98766 8.14067 6.38943 8.58233 6.69479 8.87141C7.86798 9.9876 8.74386 10.5577 9.27421 10.5577C9.57153 10.5577 9.65992 10.5096 10.0617 10.1161C10.4072 9.77881 10.5679 9.67442 10.7528 9.67442C11.0661 9.67442 12.8822 10.1964 13.1313 10.357C13.6536 10.7023 13.5009 11.2564 12.6652 12.0995C12.0385 12.7259 11.6367 12.8865 10.6724 12.8865C8.95279 12.8865 7.03228 11.8426 5.11981 9.86715C3.7859 8.48596 3.15913 7.39387 2.9502 6.10102C2.82967 5.36225 2.9502 4.84029 3.36002 4.21394C4.00287 3.25835 4.69393 2.91306 5.09571 3.34669Z" fill="#27B378"/>
</svg>
