<svg width="176" height="8" viewBox="0 0 176 8" fill="none" xmlns="http://www.w3.org/2000/svg">
<path d="M7.63331 7.80766H6.43407L5.76547 5.97166H2.82575L2.15715 7.80766H0.989746L3.63231 0.803271H4.99074L7.63331 7.80766ZM3.14413 5.04836H5.44709L4.30091 1.77964L3.14413 5.04836Z" fill="white"/>
<path d="M18.4647 5.95044C18.3232 6.37495 18.1109 6.73578 17.8279 7.03294C17.5449 7.32302 17.2124 7.54235 16.8303 7.69093C16.4482 7.8395 16.0273 7.91379 15.5674 7.91379C14.8953 7.91379 14.3116 7.76875 13.8163 7.47867C13.321 7.18859 12.939 6.77469 12.6701 6.23698C12.4013 5.69927 12.2668 5.05543 12.2668 4.30547C12.2668 3.5555 12.4013 2.91166 12.6701 2.37395C12.939 1.83624 13.321 1.42235 13.8163 1.13227C14.3116 0.842184 14.8917 0.697144 15.5568 0.697144C16.0167 0.697144 16.4306 0.76082 16.7985 0.888173C17.1735 1.01553 17.4918 1.20655 17.7536 1.46126C18.0154 1.71596 18.217 2.03435 18.3585 2.4164L17.2867 2.89398C17.1451 2.47654 16.94 2.17231 16.6711 1.98128C16.4023 1.78318 16.052 1.68413 15.6205 1.68413C15.1889 1.68413 14.8104 1.78672 14.4849 1.99189C14.1594 2.19707 13.9047 2.49423 13.7208 2.88336C13.5439 3.2725 13.4555 3.74653 13.4555 4.30547C13.4555 4.85733 13.5404 5.33136 13.7102 5.72757C13.88 6.1167 14.1241 6.41386 14.4424 6.61904C14.7608 6.82422 15.1429 6.92681 15.5886 6.92681C16.0202 6.92681 16.3916 6.81714 16.703 6.59781C17.0213 6.37141 17.2477 6.03534 17.3822 5.58961L18.4647 5.95044Z" fill="white"/>
<path d="M29.7523 5.95044C29.6108 6.37495 29.3985 6.73578 29.1155 7.03294C28.8325 7.32302 28.5 7.54235 28.1179 7.69093C27.7359 7.8395 27.3149 7.91379 26.855 7.91379C26.1829 7.91379 25.5992 7.76875 25.1039 7.47867C24.6087 7.18859 24.2266 6.77469 23.9577 6.23698C23.6889 5.69927 23.5545 5.05543 23.5545 4.30547C23.5545 3.5555 23.6889 2.91166 23.9577 2.37395C24.2266 1.83624 24.6087 1.42235 25.1039 1.13227C25.5992 0.842184 26.1793 0.697144 26.8444 0.697144C27.3043 0.697144 27.7182 0.76082 28.0861 0.888173C28.4611 1.01553 28.7795 1.20655 29.0412 1.46126C29.303 1.71596 29.5047 2.03435 29.6462 2.4164L28.5743 2.89398C28.4328 2.47654 28.2276 2.17231 27.9587 1.98128C27.6899 1.78318 27.3397 1.68413 26.9081 1.68413C26.4765 1.68413 26.098 1.78672 25.7725 1.99189C25.4471 2.19707 25.1924 2.49423 25.0084 2.88336C24.8315 3.2725 24.7431 3.74653 24.7431 4.30547C24.7431 4.85733 24.828 5.33136 24.9978 5.72757C25.1676 6.1167 25.4117 6.41386 25.7301 6.61904C26.0484 6.82422 26.4305 6.92681 26.8762 6.92681C27.3078 6.92681 27.6793 6.81714 27.9906 6.59781C28.309 6.37141 28.5354 6.03534 28.6698 5.58961L29.7523 5.95044Z" fill="white"/>
<path d="M35.2347 7.80766V0.803271H40.3076V1.77964H36.3703V3.79606H39.448V4.7512H36.3703V6.83129H40.4562V7.80766H35.2347Z" fill="white"/>
<path d="M47.1501 6.83129H51.0131V7.80766H46.0145V0.803271H47.1501V6.83129Z" fill="white"/>
<path d="M56.4005 7.80766V0.803271H61.4734V1.77964H57.5361V3.79606H60.6137V4.7512H57.5361V6.83129H61.6219V7.80766H56.4005Z" fill="white"/>
<path d="M70.0351 0.803271C70.7851 0.803271 71.3794 0.990762 71.818 1.36574C72.2638 1.74073 72.4866 2.2466 72.4866 2.88336C72.4866 3.54135 72.2638 4.05076 71.818 4.41159C71.3794 4.76535 70.7851 4.94223 70.0351 4.94223L69.929 5.00591H68.3052V7.80766H67.1803V0.803271H70.0351ZM69.9502 4.06138C70.4101 4.06138 70.7497 3.9694 70.969 3.78544C71.1954 3.59442 71.3086 3.30433 71.3086 2.9152C71.3086 2.53314 71.1954 2.2466 70.969 2.05557C70.7497 1.86454 70.4101 1.76903 69.9502 1.76903H68.3052V4.06138H69.9502ZM70.6188 4.29485L72.9005 7.80766H71.5952L69.6424 4.74059L70.6188 4.29485Z" fill="white"/>
<path d="M84.1593 7.80766H82.9601L82.2915 5.97166H79.3517L78.6831 7.80766H77.5157L80.1583 0.803271H81.5167L84.1593 7.80766ZM79.6701 5.04836H81.9731L80.8269 1.77964L79.6701 5.04836Z" fill="white"/>
<path d="M93.7123 0.803271V1.77964H91.3138V7.80766H90.1783V1.77964H87.7798V0.803271H93.7123Z" fill="white"/>
<path d="M99.1051 7.80766V0.803271H104.178V1.77964H100.241V3.79606H103.318V4.7512H100.241V6.83129H104.327V7.80766H99.1051Z" fill="white"/>
<path d="M118.504 0.803271V7.80766H117.369V0.803271H118.504Z" fill="white"/>
<path d="M131.778 0.803271V7.80766H130.727V3.75361L130.812 1.82209H130.802L128.669 7.80766H127.724L125.591 1.82209H125.58L125.665 3.75361V7.80766H124.615V0.803271H126.302L127.713 4.85733L128.202 6.52353H128.223L128.722 4.85733L130.123 0.803271H131.778Z" fill="white"/>
<path d="M140.588 0.803271C141.09 0.803271 141.522 0.89171 141.882 1.06859C142.25 1.24547 142.537 1.49664 142.742 1.82209C142.947 2.14755 143.05 2.54022 143.05 3.0001C143.05 3.45291 142.947 3.84558 142.742 4.17812C142.537 4.50357 142.25 4.75474 141.882 4.93162C141.522 5.1085 141.09 5.19694 140.588 5.19694H139.028V7.80766H137.892V0.803271H140.588ZM140.407 4.22057C140.91 4.22057 141.278 4.11798 141.511 3.9128C141.752 3.70054 141.872 3.39631 141.872 3.0001C141.872 2.59682 141.752 2.29259 141.511 2.08741C141.278 1.87516 140.91 1.76903 140.407 1.76903H139.028V4.22057H140.407Z" fill="white"/>
<path d="M153.824 7.80766H152.625L151.956 5.97166H149.017L148.348 7.80766H147.181L149.823 0.803271H151.182L153.824 7.80766ZM149.335 5.04836H151.638L150.492 1.77964L149.335 5.04836Z" fill="white"/>
<path d="M164.656 5.95044C164.514 6.37495 164.302 6.73578 164.019 7.03294C163.736 7.32302 163.403 7.54235 163.021 7.69093C162.639 7.8395 162.218 7.91379 161.758 7.91379C161.086 7.91379 160.503 7.76875 160.007 7.47867C159.512 7.18859 159.13 6.77469 158.861 6.23698C158.592 5.69927 158.458 5.05543 158.458 4.30547C158.458 3.5555 158.592 2.91166 158.861 2.37395C159.13 1.83624 159.512 1.42235 160.007 1.13227C160.503 0.842184 161.083 0.697144 161.748 0.697144C162.208 0.697144 162.622 0.76082 162.989 0.888173C163.364 1.01553 163.683 1.20655 163.945 1.46126C164.206 1.71596 164.408 2.03435 164.55 2.4164L163.478 2.89398C163.336 2.47654 163.131 2.17231 162.862 1.98128C162.593 1.78318 162.243 1.68413 161.811 1.68413C161.38 1.68413 161.001 1.78672 160.676 1.99189C160.35 2.19707 160.096 2.49423 159.912 2.88336C159.735 3.2725 159.646 3.74653 159.646 4.30547C159.646 4.85733 159.731 5.33136 159.901 5.72757C160.071 6.1167 160.315 6.41386 160.633 6.61904C160.952 6.82422 161.334 6.92681 161.78 6.92681C162.211 6.92681 162.583 6.81714 162.894 6.59781C163.212 6.37141 163.439 6.03534 163.573 5.58961L164.656 5.95044Z" fill="white"/>
<path d="M175.349 0.803271V1.77964H172.951V7.80766H171.815V1.77964H169.416V0.803271H175.349Z" fill="white"/>
</svg>
