<svg width="58" height="35" viewBox="0 0 58 35" fill="none" xmlns="http://www.w3.org/2000/svg">
<path d="M34.5256 34.84C42.3131 34.84 48.6261 28.5203 48.6261 20.7247C48.6261 12.929 42.3131 6.60938 34.5256 6.60938C26.7382 6.60938 20.4252 12.929 20.4252 20.7247C20.4252 28.5203 26.7382 34.84 34.5256 34.84Z" fill="white"/>
<path d="M39.3307 0.185907C38.9652 1.32308 40.592 0.925819 46.4274 5.41061C49.9246 8.09962 51.7557 11.151 51.4273 14.6613C50.6069 23.4253 37.2932 28.9636 21.2944 27.6022C5.04958 26.2188 0.875833 19.2576 0.08564 20.1497C-1.1362 21.856 10.8153 32.576 29.5827 32.3972C45.6291 32.245 58.6086 24.3975 57.837 15.5847C57.3914 10.4901 54.6878 7.66055 48.7388 3.7368C46.3473 2.1594 39.6904 -0.761928 39.3307 0.184745V0.185907Z" fill="#EE4345"/>
</svg>
