<svg width="174" height="22" viewBox="0 0 174 22" fill="none" xmlns="http://www.w3.org/2000/svg">
<path d="M16.139 12.7459C15.8001 12.0559 15.3163 11.4565 14.6874 10.9466C14.0573 10.4367 13.3042 10.0023 12.4259 9.64218C11.5475 9.2821 10.5589 8.99287 9.46003 8.77333C8.88102 8.65369 8.35306 8.5143 7.87384 8.35401C7.39578 8.19371 6.98502 8.00902 6.6462 7.79878C6.30622 7.5897 6.04746 7.34461 5.86645 7.06351C5.68775 6.78358 5.59725 6.46531 5.59725 6.10522C5.59725 5.64525 5.73301 5.25496 6.00105 4.93437C6.27025 4.6161 6.64504 4.37101 7.12426 4.20026C7.60464 4.02952 8.17321 3.94588 8.83112 3.94588C9.42986 3.94588 10.0135 4.03997 10.5832 4.23163C11.1518 4.42096 11.6798 4.7067 12.1694 5.08421C12.6579 5.46404 13.1128 5.93447 13.5317 6.49319L16.3768 3.73564C15.8988 2.95507 15.3035 2.2953 14.5957 1.7575C13.8856 1.21738 13.0524 0.802698 12.094 0.512307C11.1367 0.223078 10.0182 0.0778809 8.74062 0.0778809C7.70211 0.0778809 6.7193 0.227725 5.79103 0.527408C4.86275 0.825929 4.04471 1.25687 3.33458 1.81558C2.62677 2.37429 2.07213 3.03987 1.67413 3.80882C1.27381 4.57893 1.0754 5.41293 1.0754 6.31315C1.0754 7.21336 1.20883 7.98115 1.47919 8.68041C1.74839 9.38083 2.16264 10.0057 2.72076 10.554C3.28121 11.1046 3.97857 11.5646 4.8175 11.9339C5.65527 12.3033 6.63343 12.6181 7.752 12.8771C8.27068 12.9573 8.7499 13.0618 9.18851 13.1919C9.62828 13.3232 10.0274 13.473 10.3871 13.6414C10.7468 13.8122 11.0567 14.0015 11.3154 14.2118C11.5742 14.4208 11.7749 14.6601 11.9142 14.9308C12.0534 15.2003 12.123 15.4953 12.123 15.8147C12.123 16.2549 11.9838 16.6348 11.7041 16.9542C11.4233 17.2725 11.0393 17.5187 10.5507 17.6883C10.0622 17.8591 9.50761 17.9427 8.88798 17.9427C7.75085 17.9427 6.69725 17.6976 5.72953 17.2086C4.76064 16.7184 3.78828 15.795 2.80895 14.4348L-0.00488281 17.6419C0.654192 18.5223 1.39681 19.2715 2.22645 19.8906C3.05378 20.5097 4.00178 20.9802 5.07162 21.2984C6.13913 21.619 7.32151 21.7793 8.61994 21.7793C10.2166 21.7793 11.6148 21.5145 12.8123 20.9848C14.0097 20.4563 14.9473 19.692 15.6261 18.6919C16.3049 17.693 16.6437 16.4838 16.6437 15.0643C16.6437 14.206 16.4755 13.4312 16.1343 12.7424L16.139 12.7459Z" fill="white"/>
<path d="M30.1997 17.1667C29.7901 17.4664 29.3561 17.6906 28.8966 17.8404C28.4371 17.9902 27.9486 18.0657 27.4288 18.0657C26.6305 18.0657 25.9122 17.8601 25.2741 17.4501C24.6347 17.0412 24.1311 16.5023 23.761 15.8332C23.392 15.163 23.2063 14.3987 23.2063 13.5391C23.2063 12.6796 23.385 11.8804 23.7459 11.2009C24.1056 10.5226 24.5976 9.98708 25.2276 9.59679C25.8554 9.20767 26.5806 9.01253 27.3986 9.01253C27.9162 9.01253 28.4209 9.10313 28.9094 9.28201C29.3991 9.46205 29.8528 9.70714 30.2716 10.0173C30.6917 10.3274 31.041 10.6724 31.3206 11.0511L33.6564 8.23428C32.9973 7.31432 32.0795 6.59532 30.9017 6.07494C29.724 5.55572 28.4267 5.29553 27.0088 5.29553C25.4922 5.29553 24.1334 5.65562 22.9348 6.37462C21.7373 7.09363 20.794 8.07747 20.1059 9.32731C19.4166 10.576 19.072 11.9803 19.072 13.5391C19.072 15.0979 19.4166 16.5278 20.1059 17.7672C20.794 19.0066 21.7373 19.9846 22.9348 20.7048C24.1334 21.4238 25.491 21.7839 27.0088 21.7839C28.3455 21.7839 29.6137 21.5191 30.8124 20.9894C32.011 20.4609 32.9486 19.7663 33.6285 18.9055L31.3218 16.0888C30.9829 16.5081 30.6081 16.8682 30.1985 17.1678L30.1997 17.1667Z" fill="white"/>
<path d="M47.3742 5.62547V7.70467C47.0714 7.28999 46.7163 6.91713 46.3113 6.58492C45.8228 6.18651 45.2531 5.87056 44.6045 5.64057C43.9558 5.41175 43.2422 5.29675 42.4636 5.29675C41.0863 5.29675 39.8587 5.65103 38.7796 6.36074C37.7016 7.0693 36.8488 8.0392 36.2198 9.26813C35.5898 10.4971 35.2765 11.9118 35.2765 13.5102C35.2765 15.1085 35.5863 16.5279 36.2048 17.7673C36.8244 19.0067 37.6622 19.9847 38.7204 20.7049C39.7786 21.4239 40.9656 21.784 42.285 21.784C43.0218 21.784 43.7215 21.669 44.3805 21.439C45.0396 21.209 45.6325 20.8988 46.1617 20.5097C46.6072 20.1822 46.9901 19.8151 47.315 19.4086V21.4831H51.5967V5.62431H47.3742V5.62547ZM46.9391 15.9227C46.6107 16.6127 46.1466 17.147 45.5478 17.5268C44.9491 17.9067 44.2494 18.096 43.4523 18.096C42.6551 18.096 41.9891 17.9067 41.4008 17.5268C40.8113 17.147 40.3483 16.6127 40.0072 15.9227C39.6684 15.2339 39.4978 14.4289 39.4978 13.5102C39.4978 12.5914 39.6684 11.8212 40.0072 11.1417C40.3472 10.4622 40.8113 9.9279 41.4008 9.53761C41.9902 9.14849 42.6737 8.95335 43.4523 8.95335C44.2308 8.95335 44.9491 9.14849 45.5478 9.53761C46.1466 9.9279 46.6107 10.4622 46.9391 11.1417C47.2698 11.8212 47.4334 12.6111 47.4334 13.5102C47.4334 14.4092 47.2686 15.2339 46.9391 15.9227Z" fill="white"/>
<path d="M55.8795 1.62621V21.4843H60.1322V0.173096L55.8795 1.62621Z" fill="white"/>
<path d="M78.0687 10.0325C77.709 9.07305 77.195 8.23905 76.5254 7.52934C75.8559 6.82079 75.0634 6.2702 74.1444 5.87992C73.2266 5.48963 72.2287 5.29565 71.1496 5.29565C69.9916 5.29565 68.9182 5.49893 67.9308 5.91012C66.9422 6.31899 66.0882 6.89861 65.3699 7.64898C64.6517 8.39819 64.0912 9.28213 63.6932 10.302C63.2929 11.323 63.0945 12.4404 63.0945 13.6612C63.0945 15.2398 63.4542 16.6383 64.1724 17.8568C64.8919 19.0764 65.8898 20.0359 67.1685 20.7351C68.4448 21.4356 69.9428 21.7852 71.659 21.7852C72.3784 21.7852 73.1059 21.6946 73.8462 21.5157C74.583 21.3357 75.3025 21.0697 76.001 20.7212C76.6995 20.3716 77.3388 19.936 77.9179 19.4168L75.8815 16.5686C75.2224 17.1087 74.6028 17.4886 74.0238 17.7069C73.4447 17.9288 72.8066 18.038 72.1069 18.038C71.0892 18.038 70.2062 17.8428 69.4566 17.4526C68.7082 17.0634 68.1292 16.5198 67.7196 15.8194C67.4864 15.4221 67.3193 14.9819 67.2195 14.4999H78.5154L78.5444 13.1803C78.5851 12.042 78.4249 10.992 78.0664 10.0325H78.0687ZM67.5873 10.9327C67.9053 10.2729 68.3717 9.77347 68.9786 9.43314C69.5878 9.09396 70.3315 8.92321 71.2099 8.92321C71.8087 8.92321 72.3482 9.04401 72.8274 9.28329C73.3078 9.52374 73.7012 9.86408 74.011 10.302C74.3196 10.7422 74.4937 11.2324 74.5343 11.7714V11.8922H67.2555C67.3355 11.5437 67.4458 11.2243 67.5873 10.9327Z" fill="white"/>
<path d="M101.458 6.61508C100.939 5.29555 100.194 4.14561 99.2264 3.16757C98.2575 2.18721 97.1297 1.42755 95.8417 0.888588C94.5549 0.348462 93.1311 0.0789795 91.5751 0.0789795C90.0191 0.0789795 88.6197 0.348462 87.3224 0.888588C86.024 1.42755 84.8904 2.18721 83.9238 3.16757C82.9549 4.14561 82.2111 5.28974 81.6913 6.59882C81.1726 7.90906 80.9127 9.35288 80.9127 10.9314C80.9127 12.51 81.1715 13.9329 81.6913 15.2629C82.21 16.5917 82.9549 17.7417 83.9238 18.7104C84.8904 19.6803 86.024 20.4342 87.3224 20.9743C88.6197 21.5144 90.0365 21.7839 91.5751 21.7839C93.1137 21.7839 94.5549 21.5144 95.8417 20.9743C97.1285 20.4342 98.2575 19.6757 99.2264 18.6953C100.193 17.7173 100.938 16.5673 101.458 15.2478C101.976 13.9283 102.236 12.4903 102.236 10.9314C102.236 9.37263 101.978 7.93346 101.458 6.61508ZM97.2202 13.5694C96.9104 14.3685 96.4868 15.0678 95.9473 15.6671C95.4077 16.2665 94.7649 16.7265 94.0165 17.0459C93.268 17.3665 92.4546 17.5268 91.5763 17.5268C90.6979 17.5268 89.888 17.3665 89.15 17.0459C88.4108 16.7276 87.7611 16.2665 87.2029 15.6671C86.6448 15.0678 86.2201 14.3685 85.93 13.5694C85.6411 12.7702 85.4961 11.8909 85.4961 10.9314C85.4961 9.972 85.64 9.0927 85.93 8.29354C86.219 7.49439 86.6436 6.79977 87.2029 6.2097C87.7611 5.61963 88.412 5.15965 89.15 4.82976C89.8868 4.50104 90.6956 4.3361 91.5763 4.3361C92.457 4.3361 93.268 4.50104 94.0165 4.82976C94.7649 5.16081 95.4077 5.62079 95.9473 6.2097C96.4868 6.79977 96.9104 7.49323 97.2202 8.29354C97.53 9.0927 97.6843 9.972 97.6843 10.9314C97.6843 11.8909 97.53 12.7702 97.2202 13.5694Z" fill="white"/>
<path d="M115.788 17.1668C115.378 17.4665 114.944 17.6907 114.485 17.8405C114.025 17.9904 113.537 18.0659 113.017 18.0659C112.219 18.0659 111.501 17.8603 110.86 17.4502C110.222 17.0414 109.717 16.5024 109.348 15.8333C108.979 15.1631 108.796 14.3988 108.796 13.5393C108.796 12.6797 108.974 11.8805 109.334 11.201C109.694 10.5227 110.188 9.9872 110.816 9.59692C111.446 9.20779 112.169 9.01265 112.987 9.01265C113.506 9.01265 114.01 9.10325 114.499 9.28213C114.987 9.46218 115.442 9.70726 115.861 10.0174C116.28 10.3275 116.629 10.6725 116.91 11.0512L119.246 8.2344C118.587 7.31445 117.668 6.59544 116.491 6.07506C115.312 5.55584 114.015 5.29565 112.598 5.29565C111.079 5.29565 109.723 5.65574 108.524 6.37475C107.327 7.09375 106.383 8.07759 105.694 9.32743C105.006 10.5761 104.661 11.9804 104.661 13.5393C104.661 15.0981 105.006 16.528 105.694 17.7673C106.383 19.0067 107.328 19.9848 108.524 20.7049C109.723 21.4239 111.079 21.784 112.598 21.784C113.935 21.784 115.203 21.5192 116.402 20.9895C117.599 20.461 118.538 19.7664 119.216 18.9057L116.91 16.0889C116.57 16.5082 116.196 16.8683 115.787 17.168L115.788 17.1668Z" fill="white"/>
<path d="M135.867 10.0325C135.507 9.07305 134.993 8.23905 134.324 7.52934C133.655 6.82079 132.861 6.2702 131.943 5.87992C131.024 5.48963 130.027 5.29565 128.947 5.29565C127.789 5.29565 126.716 5.49893 125.729 5.91012C124.74 6.31899 123.887 6.89861 123.168 7.64898C122.45 8.39819 121.891 9.28213 121.491 10.302C121.091 11.323 120.892 12.4404 120.892 13.6612C120.892 15.2398 121.252 16.6383 121.971 17.8568C122.69 19.0764 123.688 20.0359 124.966 20.7351C126.243 21.4356 127.741 21.7852 129.459 21.7852C130.177 21.7852 130.906 21.6946 131.645 21.5157C132.382 21.3357 133.103 21.0697 133.8 20.7212C134.5 20.3716 135.138 19.936 135.717 19.4168L133.68 16.5686C133.021 17.1087 132.402 17.4886 131.823 17.7069C131.244 17.9288 130.606 18.038 129.906 18.038C128.888 18.038 128.005 17.8428 127.256 17.4526C126.507 17.0634 125.928 16.5198 125.519 15.8194C125.285 15.4221 125.118 14.9819 125.019 14.4999H136.314L136.345 13.1803C136.384 12.042 136.224 10.992 135.864 10.0325H135.867ZM125.385 10.9327C125.703 10.2729 126.17 9.77347 126.779 9.43314C127.387 9.09396 128.129 8.92321 129.01 8.92321C129.608 8.92321 130.147 9.04401 130.628 9.28329C131.106 9.52374 131.5 9.86408 131.81 10.302C132.12 10.7422 132.294 11.2324 132.333 11.7714V11.8922H125.056C125.135 11.5437 125.245 11.2243 125.386 10.9327H125.385Z" fill="white"/>
<path d="M150.51 5.62547V7.70467C150.207 7.28999 149.854 6.91713 149.447 6.58492C148.959 6.18651 148.39 5.87056 147.741 5.64057C147.092 5.41175 146.379 5.29675 145.6 5.29675C144.222 5.29675 142.995 5.65103 141.917 6.36074C140.837 7.0693 139.983 8.0392 139.356 9.26813C138.728 10.4971 138.412 11.9118 138.412 13.5102C138.412 15.1085 138.722 16.5279 139.342 17.7673C139.96 19.0067 140.799 19.9847 141.856 20.7049C142.914 21.4239 144.103 21.784 145.421 21.784C146.16 21.784 146.857 21.669 147.516 21.439C148.175 21.209 148.768 20.8988 149.298 20.5097C149.741 20.1822 150.126 19.8163 150.451 19.412V21.4843H154.734V5.62547H150.51ZM150.076 15.9227C149.745 16.6127 149.282 17.147 148.683 17.5268C148.084 17.9067 147.385 18.096 146.587 18.096C145.789 18.096 145.124 17.9067 144.535 17.5268C143.947 17.147 143.483 16.6127 143.144 15.9227C142.804 15.2339 142.635 14.4289 142.635 13.5102C142.635 12.5914 142.803 11.8212 143.144 11.1417C143.483 10.4622 143.947 9.9279 144.535 9.53761C145.125 9.14849 145.81 8.95335 146.587 8.95335C147.364 8.95335 148.084 9.14849 148.683 9.53761C149.281 9.9279 149.745 10.4622 150.076 11.1417C150.404 11.8212 150.57 12.6111 150.57 13.5102C150.57 14.4092 150.404 15.2339 150.076 15.9227Z" fill="white"/>
<path d="M172.926 8.18904C172.516 7.21914 171.908 6.49432 171.099 6.01576C170.29 5.53487 169.287 5.29675 168.089 5.29675C167.211 5.29675 166.372 5.47563 165.575 5.83572C164.775 6.1958 164.092 6.67088 163.523 7.25979C163.384 7.40499 163.254 7.55367 163.137 7.70583L163.06 5.62664H158.986V21.4854H163.239V11.9525C163.239 11.5332 163.325 11.1429 163.493 10.784C163.664 10.4239 163.893 10.1045 164.182 9.82452C164.471 9.54458 164.821 9.32969 165.231 9.17985C165.64 9.03001 166.085 8.95567 166.563 8.95567C167.162 8.91502 167.666 9.01143 168.076 9.23909C168.485 9.46908 168.79 9.82452 168.99 10.3031C169.189 10.784 169.289 11.3833 169.289 12.1023V21.4854H173.542V11.7725C173.542 10.3542 173.336 9.1601 172.928 8.19136L172.926 8.18904Z" fill="white"/>
</svg>
