<svg width="120" height="175" viewBox="0 0 120 175" fill="none" xmlns="http://www.w3.org/2000/svg">
<path d="M47.0417 174.274C51.6091 174.274 55.3117 172.608 55.3117 170.553C55.3117 168.498 51.6091 166.832 47.0417 166.832C42.4744 166.832 38.7718 168.498 38.7718 170.553C38.7718 172.608 42.4744 174.274 47.0417 174.274Z" fill="#E8E8E8"/>
<path d="M66.0625 174.274C70.6299 174.274 74.3325 172.608 74.3325 170.553C74.3325 168.498 70.6299 166.832 66.0625 166.832C61.4952 166.832 57.7926 168.498 57.7926 170.553C57.7926 172.608 61.4952 174.274 66.0625 174.274Z" fill="#E8E8E8"/>
<path d="M5.30735 34.4368C4.00955 34.1589 2.24999 34.339 2.24999 34.339C2.24999 34.339 4.84189 34.7504 4.84189 34.9468C4.48612 36.1282 2.74881 36.1445 1.98688 36.3972C1.98688 36.3972 4.59879 37.8085 4.70033 37.8085C4.80187 37.8085 4.13333 36.4365 4.1741 36.3387C4.21486 36.2409 6.3665 34.6644 5.30809 34.4376L5.30735 34.4368Z" fill="#F38171"/>
<path d="M94.1949 90.933L88.9133 106.272L103.039 105.321L96.5289 127.199L106.846 130.172C106.846 130.172 120.234 104.846 118.761 98.5434C117.286 92.2419 94.1949 90.9337 94.1949 90.9337V90.933Z" fill="#332D35"/>
<path d="M68.1559 121.015C57.4696 135.164 54.3989 153.714 54.3989 153.714L66.4356 156.805C66.4356 156.805 71.1028 144.439 74.0512 139.207C76.9989 133.975 82.0352 124.463 82.1575 123.75C82.2805 123.037 94.6856 92.2411 94.6856 92.2411L76.3844 92.5976C73.4368 96.2835 68.1551 121.015 68.1551 121.015H68.1559Z" fill="#332D35"/>
<path d="M77.8594 124.503C76.8765 128.308 78.5961 130.289 78.5961 130.289C78.5961 130.289 83.6732 122.6 83.018 121.174C83.018 121.174 78.8422 120.698 77.8594 124.503Z" fill="#231D26"/>
<path d="M88.9957 62.0396L79.3329 63.1491L80.4795 92.0032L95.4647 90.8936C95.4647 90.8936 96.0376 81.6193 94.8095 75.1984C93.5813 68.7776 88.9957 62.0396 88.9957 62.0396Z" fill="#E6EAEF"/>
<path d="M69.7524 68.619C68.5243 70.9181 63.2834 84.8693 62.3829 88.9117C61.4824 92.9541 62.6282 106.747 62.6282 106.747L69.1788 106.589C69.1788 106.589 71.1444 89.8634 71.5535 88.5159C71.9626 87.1685 78.5139 64.0222 78.5139 64.0222C78.5139 64.0222 70.9806 66.3214 69.7524 68.6197V68.619Z" fill="#002F5D"/>
<path d="M95.9562 50.8515C94.2366 53.0713 87.1947 59.8086 87.1947 59.8086C87.1947 59.8086 92.7632 65.3571 94.0728 68.6072C95.3832 71.8572 95.6286 91.1197 95.6286 91.1197L98.4124 91.199C98.4124 91.199 98.0848 87.4731 97.6757 86.1257C97.2666 84.7782 98.0033 82.2411 98.0848 78.2781C98.1664 74.3142 96.8567 69.6374 96.8567 68.2106C96.8567 66.7839 97.1843 66.546 97.1843 66.546C97.1843 66.546 101.852 60.6803 105.045 55.0518C108.239 49.424 109.712 35.6307 109.712 35.6307L102.916 34.0453C102.916 34.0453 97.675 48.6309 95.9554 50.85L95.9562 50.8515Z" fill="#002F5D"/>
<path d="M63.2834 108.253L68.2782 108.134L68.565 106.667L63.1603 106.708L63.2834 108.253Z" fill="white"/>
<path d="M103.203 34.126L109.589 35.5128L110.04 33.7688L103.694 32.2627L103.203 34.126Z" fill="#FBF8EB"/>
<path d="M106.806 24.0979C106.027 23.5035 105.25 25.1682 104.554 26.357C103.858 27.5459 104.431 29.2899 104.799 30.2808C105.168 31.2718 104.758 32.302 104.758 32.302L109.344 33.4909C109.344 33.4909 110.245 32.7378 110.204 32.0641C110.163 31.3904 110.163 30.2408 110.163 29.8443C110.163 29.4478 110.695 28.6154 110.941 27.7038C111.187 26.7921 107.584 24.6916 106.806 24.0972L106.806 24.0979Z" fill="#F9B798"/>
<path d="M88.9135 61.5326L89.098 61.2353C89.098 61.2353 90.5107 59.5114 92.4755 58.9169C94.4412 58.3225 93.8267 57.0736 94.1951 55.8848C94.5634 54.6959 95.9554 50.8514 95.9554 50.8514L87.1939 59.8086L88.9135 61.5326Z" fill="#031D38"/>
<path d="M94.9325 62.9111C94.9325 62.9111 95.956 65.9233 96.9389 66.7556L98.2078 65.2496C98.2078 65.2496 95.5054 63.7828 94.9325 62.9111Z" fill="#031D38"/>
<path d="M78.3501 64.2117C78.3501 64.2117 69.015 87.9924 69.261 91.2024C69.5064 94.4125 68.6881 102.221 68.6881 102.221L80.1519 102.3C80.1519 102.3 84.3692 85.6139 82.0353 71.1076L78.3501 64.2109V64.2117Z" fill="#002F5D"/>
<path d="M58.7592 159.005L63.7955 159.421L64.3476 156.091L58.7592 154.843V159.005Z" fill="#FABA97"/>
<path d="M64.287 157.994L60.295 157.578C60.295 157.578 58.3909 158.232 58.3909 158.767C58.3909 159.302 58.3294 160.788 58.3294 160.788L66.3749 169.765C66.3749 169.765 67.9714 170.36 67.7876 168.695C67.603 167.03 64.287 157.994 64.287 157.994Z" fill="#CC4445"/>
<path d="M62.8046 160.149L62.8202 160.536L65.1845 160.447L65.169 160.06L62.8046 160.149Z" fill="#9D3233"/>
<path d="M63.2582 161.428L63.2886 161.813L65.6841 161.635L65.6537 161.25L63.2582 161.428Z" fill="#9D3233"/>
<path d="M78.7192 62.9906L76.9996 71.4919C76.9996 71.4919 79.8858 75.8916 80.5002 81.7172C81.1147 87.5436 81.1754 97.3531 81.1754 97.3531C81.1754 97.3531 84.4915 73.2952 80.9709 64.1794C80.9709 64.1794 79.1491 63.674 78.7192 62.9906Z" fill="#031D38"/>
<path d="M88.1767 61.0287L87.8083 63.4064C87.8083 63.4064 92.4347 68.0632 93.6629 73.0573C94.891 78.0513 95.4647 90.893 95.4647 90.893C95.4647 90.893 96.2014 74.8013 94.4819 68.6977C94.4819 68.6977 89.8147 61.841 88.1767 61.0287Z" fill="#031D38"/>
<path d="M62.3005 101.119L62.6281 106.747L67.5414 106.549C65.1667 106.073 62.3005 101.119 62.3005 101.119Z" fill="#031D38"/>
<path d="M108.197 27.1501C107.604 26.5156 108.976 25.8026 108.976 25.8026L108.3 25.3268C108.3 25.3268 108.3 25.4261 108.096 26.1791C107.891 26.9322 106.233 26.7536 106.233 26.7536C106.418 27.388 110.082 30.0236 110.082 30.0236C110.041 29.7064 110.328 28.8941 110.328 28.8941C110.328 28.8941 108.793 27.7845 108.199 27.1501H108.197Z" fill="#F48B79"/>
<path d="M82.2042 90.2191L81.7891 92.914L95.5254 92.6368L95.4424 89.9812C95.2348 89.8626 82.2042 90.2191 82.2042 90.2191Z" fill="#8B4324"/>
<path d="M85.8426 89.5854H84.7375V93.5093H85.8426V89.5854Z" fill="#5B332B"/>
<path d="M94.072 89.3868H92.8031V93.4292H94.072V89.3868Z" fill="#5B332B"/>
<path d="M47.403 130.744L72.7972 137.76L78.0811 119.84L52.6868 112.824L47.403 130.744Z" fill="#8B4324"/>
<path d="M72.7971 137.76L74.407 137.128L79.6938 119.209L78.084 119.841L72.7971 137.76Z" fill="#80351C"/>
<path d="M52.6868 112.824L78.084 119.841L79.6938 119.209L54.2907 112.196L52.6868 112.824Z" fill="#80351C"/>
<path d="M60.6915 113.963C60.4921 114.554 61.1614 115.208 61.6424 114.647C62.2117 113.984 62.9691 113.431 63.76 113.143C66.3511 112.114 69.029 114.006 69.762 116.467C69.9066 116.813 69.8866 117.347 70.3224 117.477C70.687 117.581 71.0265 117.244 71.0598 116.825C70.3016 111.538 63.9356 109.253 60.6923 113.963H60.6915Z" fill="#8B4324"/>
<path d="M62.7423 125.292L78.084 119.841L52.6868 112.824L62.7423 125.292Z" fill="#99462B"/>
<path d="M63.3375 123.779C62.7661 123.534 62.0442 123.718 61.8656 124.345C61.6706 125.095 60.9591 126.476 62.1457 126.804C62.7172 127.049 63.4391 126.865 63.6177 126.238C63.8126 125.488 64.5242 124.107 63.3375 123.779Z" fill="#F3D3BD"/>
<path d="M66.2518 169.607C65.945 169.171 58.3293 160.788 58.3293 160.788L58.2886 161.403L65.6789 169.745C65.6789 169.745 66.2725 170.221 66.887 169.884C66.887 169.884 66.5594 170.043 66.2525 169.607H66.2518Z" fill="#9D3233"/>
<path d="M98.6109 132.457L103.511 133.657L105.08 129.658L99.129 127.914L98.6109 132.457Z" fill="#FABA97"/>
<path d="M100.365 131.29C100.365 131.29 98.3767 131.637 98.287 132.165C98.1973 132.692 97.8882 134.15 97.8882 134.15L104.325 144.27C104.325 144.27 105.802 145.106 105.898 143.435C105.995 141.764 104.233 132.326 104.233 132.326L100.364 131.29H100.365Z" fill="#CC4445"/>
<path d="M102.362 134.605L104.71 134.887L104.76 134.503L102.412 134.221L102.362 134.605Z" fill="#9D3233"/>
<path d="M102.61 135.939L105.004 136.138L105.038 135.753L102.645 135.554L102.61 135.939Z" fill="#9D3233"/>
<path d="M104.231 144.094C104.001 143.616 97.8882 134.15 97.8882 134.15L97.7451 134.749L103.642 144.141C103.642 144.141 104.148 144.703 104.811 144.467C104.811 144.467 104.461 144.572 104.231 144.093V144.094Z" fill="#9D3233"/>
<path d="M67.8483 108.263L63.4576 108.322C63.4576 108.322 62.0145 111.8 62.7512 112.722C63.488 113.643 64.4093 114.565 66.2822 114.476C68.1552 114.387 68.1552 114.09 68.1552 114.09C68.1552 114.09 68.0018 112.217 68.9534 112.484L69.2299 113.138C69.2299 113.138 69.6902 111.859 69.0149 110.879C68.3397 109.898 67.8483 109.393 67.8483 108.263Z" fill="#F9B798"/>
<path d="M67.4185 113.049C67.2954 113.435 66.0058 113.465 65.1156 112.87C64.2255 112.276 62.6898 111.919 62.6898 111.919C62.6898 111.919 62.6319 111.957 62.5467 112.015C62.56 112.309 62.6193 112.558 62.7513 112.722C63.488 113.643 64.4093 114.565 66.2822 114.476C68.1552 114.387 68.1552 114.09 68.1552 114.09C68.1552 114.09 68.0018 112.217 68.9535 112.484L69.2299 113.138C69.2299 113.138 69.2847 112.982 69.3292 112.74L69.2603 112.008C67.9091 110.938 67.5408 112.662 67.4177 113.049H67.4185Z" fill="#F48B79"/>
<path d="M86.3453 17.7319L119.588 33.012L120 32.1263L86.7574 16.8462L86.3453 17.7319Z" fill="#368779"/>
<path d="M86.4558 16.1332C85.9443 15.8982 85.3388 16.1176 85.1038 16.6239C84.8689 17.1293 85.0927 17.7304 85.6041 17.9661C86.1156 18.2011 86.7204 17.9817 86.9568 17.4755C87.1917 16.97 86.9679 16.3689 86.4558 16.1332Z" fill="#368779"/>
<path d="M94.1699 0L89.8837 9.21729L100.371 14.0379L104.669 4.79542L98.1196 5.12969L94.1699 0Z" fill="#106AA7"/>
<path d="M89.8837 9.21721L100.371 14.0378L103.975 9.16681L93.488 4.34619L89.8837 9.21721Z" fill="#0B0F41"/>
<path d="M86.8701 18.5768L97.357 23.3974L103.975 9.16681L93.488 4.34619L86.8701 18.5768Z" fill="#78C3F5"/>
<path d="M97.2777 9.88289C95.0497 8.85932 92.4126 9.8147 91.3875 12.0175C90.3632 14.2203 91.3386 16.8366 93.5673 17.8609C95.7953 18.8852 98.4324 17.9299 99.4575 15.7263C100.481 13.5236 99.5064 10.9072 97.2777 9.88289Z" fill="#F3A31F"/>
<path d="M97.0515 10.3698C95.0956 9.47145 92.7801 10.3097 91.8803 12.2435C90.9813 14.1772 91.8381 16.4741 93.7941 17.3739C95.75 18.2729 98.0647 17.4339 98.9645 15.5002C99.8643 13.5665 99.0075 11.2696 97.0515 10.3698Z" fill="#F8EC86"/>
<path d="M96.9464 10.5952C95.1164 9.75397 92.9515 10.5389 92.1087 12.3481C91.2675 14.158 92.0687 16.3067 93.8994 17.148C95.7294 17.9899 97.8959 17.2043 98.7371 15.3951C99.5783 13.5851 98.7771 11.4372 96.9464 10.5952Z" fill="#E38026"/>
<path d="M96.8871 10.7249C95.129 9.91701 93.0486 10.6708 92.2407 12.4081C91.4321 14.1462 92.2021 16.2103 93.9595 17.0182C95.7175 17.8261 97.7973 17.0723 98.6059 15.3343C99.4138 13.5962 98.6445 11.532 96.8871 10.7241V10.7249Z" fill="#F3A31F"/>
<path d="M92.7491 12.3881C92.6327 12.334 92.4926 12.3844 92.44 12.5C92.3851 12.6156 92.437 12.7535 92.5541 12.8076C92.6712 12.8617 92.8106 12.8113 92.8647 12.6949C92.9181 12.5793 92.8662 12.4407 92.7491 12.3873V12.3881Z" fill="#E88024"/>
<path d="M98.2909 14.9356C98.1738 14.8814 98.0345 14.9326 97.9811 15.0482C97.9277 15.1638 97.9781 15.3017 98.096 15.3558C98.2138 15.4099 98.3524 15.3595 98.4065 15.2431C98.4599 15.1275 98.4087 14.9897 98.2916 14.9356H98.2909Z" fill="#E88024"/>
<path d="M96.7945 10.922C96.6774 10.8679 96.5388 10.9191 96.4847 11.0339C96.4313 11.1503 96.4825 11.2882 96.5996 11.3423C96.7167 11.3964 96.8553 11.3452 96.9101 11.2296C96.9635 11.114 96.9116 10.9761 96.7945 10.922Z" fill="#E88024"/>
<path d="M94.2462 16.4016C94.1284 16.3475 93.9898 16.3979 93.9357 16.5135C93.8823 16.6299 93.9335 16.7678 94.0506 16.8219C94.1684 16.876 94.307 16.8256 94.3611 16.7092C94.4145 16.5936 94.3634 16.4557 94.2462 16.4016Z" fill="#E88024"/>
<path d="M92.4815 14.691C92.3607 14.7347 92.2984 14.8681 92.3429 14.9882C92.3881 15.1083 92.523 15.1698 92.6438 15.1268C92.7647 15.0831 92.8262 14.9497 92.7824 14.8296C92.7365 14.7095 92.6031 14.6473 92.4815 14.6917V14.691Z" fill="#E88024"/>
<path d="M98.2019 12.6178C98.0803 12.6616 98.0188 12.795 98.0633 12.9143C98.1078 13.0351 98.2426 13.0966 98.3635 13.0529C98.4843 13.0092 98.5473 12.8758 98.5021 12.7557C98.4576 12.6356 98.3227 12.5741 98.2019 12.6178Z" fill="#E88024"/>
<path d="M94.2826 10.8167C94.1618 10.8605 94.1003 10.9939 94.144 11.1139C94.19 11.234 94.3234 11.2955 94.4449 11.2518C94.5657 11.2081 94.628 11.0747 94.5835 10.9546C94.5383 10.8353 94.4034 10.773 94.2826 10.8167Z" fill="#E88024"/>
<path d="M96.4 16.4912C96.2792 16.5357 96.217 16.6691 96.2614 16.7884C96.3074 16.9085 96.4408 16.9708 96.5624 16.927C96.6832 16.8833 96.7454 16.7499 96.701 16.6306C96.6557 16.5098 96.5216 16.4482 96.4 16.4912Z" fill="#E88024"/>
<path d="M92.4556 13.1226C92.3288 13.1003 92.208 13.1848 92.1858 13.3101C92.1643 13.4361 92.2496 13.5562 92.3778 13.5777C92.5045 13.5999 92.6253 13.5161 92.6476 13.3901C92.6691 13.2641 92.5838 13.1441 92.4563 13.1226H92.4556Z" fill="#E88024"/>
<path d="M98.468 14.1647C98.3405 14.1424 98.2197 14.2269 98.1982 14.3529C98.1767 14.4789 98.2627 14.599 98.3894 14.6213C98.5162 14.6427 98.6377 14.559 98.6592 14.433C98.6814 14.3062 98.5955 14.1869 98.468 14.1647Z" fill="#E88024"/>
<path d="M95.9754 10.6677C95.8479 10.6455 95.7279 10.73 95.7056 10.8567C95.6841 10.982 95.7701 11.1021 95.8969 11.1243C96.0243 11.1458 96.1451 11.062 96.1666 10.936C96.1881 10.81 96.1029 10.6892 95.9754 10.6677Z" fill="#E88024"/>
<path d="M94.9481 16.6194C94.8206 16.5972 94.6998 16.6809 94.6783 16.8077C94.6568 16.9329 94.7428 17.053 94.8695 17.0752C94.997 17.0975 95.1178 17.0122 95.14 16.887C95.1615 16.761 95.0756 16.6409 94.9481 16.6194Z" fill="#E88024"/>
<path d="M92.7987 15.4173C92.6935 15.4914 92.669 15.6352 92.7431 15.7404C92.8172 15.8449 92.9632 15.8701 93.0685 15.7967C93.1745 15.7234 93.1989 15.5796 93.1256 15.4743C93.0507 15.3698 92.9039 15.3439 92.7987 15.4173Z" fill="#E88024"/>
<path d="M97.7765 11.947C97.6705 12.0204 97.6468 12.165 97.7209 12.2695C97.7958 12.374 97.9418 12.3992 98.047 12.3258C98.1516 12.2524 98.1775 12.1079 98.1026 12.0026C98.0285 11.8989 97.8818 11.8729 97.7765 11.947Z" fill="#E88024"/>
<path d="M93.5251 11.2097C93.4206 11.283 93.3946 11.4268 93.4695 11.5321C93.5436 11.6366 93.6896 11.6618 93.7956 11.5891C93.9008 11.5158 93.9253 11.3712 93.8512 11.266C93.7771 11.1622 93.6303 11.1363 93.5251 11.2097Z" fill="#E88024"/>
<path d="M97.0501 16.1548C96.9449 16.2281 96.9197 16.3727 96.9945 16.4772C97.0694 16.5824 97.2147 16.6076 97.3199 16.5342C97.4252 16.4609 97.4504 16.3163 97.3762 16.2118C97.3014 16.1073 97.1554 16.0814 97.0501 16.1555V16.1548Z" fill="#E88024"/>
<path d="M92.3644 13.9082C92.2347 13.9194 92.1413 14.032 92.1532 14.1595C92.165 14.287 92.2784 14.3819 92.4074 14.37C92.5364 14.3589 92.6305 14.2462 92.6186 14.1195C92.6068 13.9913 92.4926 13.8979 92.3644 13.909V13.9082Z" fill="#E88024"/>
<path d="M98.4376 13.3747C98.3094 13.3858 98.2145 13.4985 98.2263 13.6259C98.2382 13.7534 98.3523 13.8483 98.4806 13.8364C98.6088 13.8253 98.7037 13.7119 98.6918 13.5852C98.6799 13.4569 98.5658 13.3636 98.4368 13.3747H98.4376Z" fill="#E88024"/>
<path d="M95.1194 10.6315C94.9904 10.6434 94.8963 10.7553 94.9074 10.8828C94.92 11.0103 95.0334 11.1051 95.1623 11.0933C95.2906 11.0822 95.3847 10.9695 95.3736 10.8413C95.361 10.7145 95.2476 10.6204 95.1194 10.6308V10.6315Z" fill="#E88024"/>
<path d="M95.6834 16.6499C95.5544 16.6611 95.4595 16.7737 95.4721 16.9012C95.484 17.0287 95.5974 17.1228 95.7264 17.1117C95.8546 17.1006 95.9487 16.9872 95.9376 16.8604C95.9257 16.7329 95.8116 16.6388 95.6834 16.6499Z" fill="#E88024"/>
<path d="M93.2953 16.0392C93.213 16.1377 93.2263 16.2837 93.3257 16.366C93.425 16.4483 93.5725 16.4349 93.6548 16.3371C93.737 16.2385 93.7237 16.0925 93.6244 16.011C93.525 15.9287 93.3776 15.9413 93.2953 16.0392Z" fill="#E88024"/>
<path d="M97.1902 11.4067C97.108 11.5045 97.1221 11.6506 97.2206 11.7336C97.3207 11.8158 97.4674 11.8025 97.5497 11.7047C97.6327 11.6061 97.6194 11.4601 97.5193 11.3778C97.42 11.2963 97.2733 11.3089 97.1902 11.4067Z" fill="#E88024"/>
<path d="M92.8965 11.784C92.8135 11.8819 92.8276 12.0286 92.9269 12.1102C93.0262 12.1924 93.1737 12.1798 93.256 12.0812C93.3383 11.9834 93.3242 11.8367 93.2256 11.7551C93.1263 11.6736 92.9788 11.6862 92.8965 11.784Z" fill="#E88024"/>
<path d="M97.5896 15.6626C97.5074 15.7605 97.5207 15.9065 97.62 15.9887C97.7194 16.071 97.8669 16.0584 97.9491 15.9598C98.0321 15.862 98.0181 15.716 97.918 15.6337C97.8187 15.5515 97.6719 15.5641 97.5889 15.6626H97.5896Z" fill="#E88024"/>
<path d="M96.8159 13.8563L93.8341 12.4851L93.4028 13.4123C93.6844 14.003 93.6592 14.2758 93.6689 14.6412L94.3656 14.6701L94.3611 14.0364L96.3149 14.9347L96.0732 15.455L96.7736 15.7767L97.7416 13.6932L97.0412 13.3708L96.8159 13.8555V13.8563Z" fill="#F8EC86"/>
<path d="M78.909 54.9309L80.7264 62.4568C80.7264 62.4568 82.5882 63.4389 84.4122 62.7874C86.5809 62.0129 87.6208 62.193 87.6208 62.193L85.0682 54.0734L78.9097 54.9316L78.909 54.9309Z" fill="#FABA97"/>
<path d="M81.721 58.1625L86.97 60.5594L86.4267 58.7058L81.721 58.1625Z" fill="#F5927E"/>
<path d="M86.8692 45.6729L78.2375 49.0289L80.6663 57.3116C80.8027 57.7763 81.2148 58.1143 81.7055 58.1706L86.641 58.7391C87.059 58.7902 87.477 58.625 87.7416 58.3062L89.6405 56.0397C89.8918 55.7395 89.9755 55.3371 89.8666 54.9665L86.8692 45.6721V45.6729Z" fill="#FABA97"/>
<path d="M77.6875 52.9616C76.4853 53.2922 75.7879 54.5033 76.1288 55.6662C76.4698 56.8298 77.7209 57.505 78.9231 57.1745C80.1253 56.8439 80.8227 55.6328 80.4818 54.4699C80.1409 53.3063 78.8897 52.6311 77.6875 52.9616Z" fill="#FABA97"/>
<path d="M77.4154 53.9733C77.3406 53.9837 77.2887 54.0504 77.2991 54.123C77.3094 54.1957 77.3791 54.2468 77.454 54.2364C77.5125 54.229 78.883 54.0578 79.0505 55.1725C79.0994 55.4979 79.0742 55.7811 78.9763 56.0138C78.9474 56.082 78.9815 56.1591 79.0519 56.1872C79.069 56.1939 79.0868 56.1969 79.1038 56.1969C79.1579 56.1969 79.2091 56.1657 79.2313 56.1138C79.3484 55.8366 79.3788 55.5068 79.3225 55.134C79.1564 54.0319 78.0032 53.8925 77.4162 53.9726L77.4154 53.9733Z" fill="#DE7360"/>
<path d="M77.7979 55.1096C77.7482 55.1652 77.7542 55.2482 77.8112 55.2964C77.8372 55.3186 77.8698 55.329 77.9017 55.329C77.9395 55.329 77.978 55.3135 78.0047 55.2838C78.0543 55.229 78.5109 54.762 79.0964 55.2542C79.1535 55.3023 79.2402 55.2964 79.2899 55.2408C79.3396 55.1852 79.3336 55.1015 79.2758 55.0533C78.6317 54.513 78.0269 54.8539 77.7972 55.1089L77.7979 55.1096Z" fill="#DE7360"/>
<path d="M89.0061 43.4557C89.0308 43.4348 89.0151 43.4071 89.0151 43.4071C89.0128 43.4243 89.0091 43.4393 89.0061 43.4557Z" fill="#201C3B"/>
<path d="M85.0461 42.491L84.5858 42.4836C84.5858 42.4836 83.494 40.1348 80.7561 40.7759C80.7561 40.7759 82.2993 41.6238 81.7174 42.5051C81.1356 43.3863 79.8237 43.4679 78.5141 43.4805C77.2037 43.4931 74.4895 44.8539 74.4531 46.9099C74.4531 46.9099 74.2597 47.8668 74.571 48.2826C74.571 48.2826 74.6577 49.4151 74.4064 49.5826C74.1559 49.7501 73.6297 51.4889 74.2167 52.3212C74.8037 53.1536 76.6604 53.602 76.6604 53.602C77.2229 52.763 77.5542 53.3819 79.5725 54.1015C79.5725 54.1015 79.6051 53.2848 78.9958 51.6638C78.3866 50.0429 80.0513 48.6472 80.2647 48.582C80.4782 48.5168 83.2695 48.837 84.8133 47.6281C86.3572 46.4192 86.7493 46.2547 87.0947 46.7402C87.4401 47.2256 87.91 48.7072 87.91 48.7072C87.91 48.7072 89.986 47.4391 88.8957 44.9873C87.8055 42.5362 85.0446 42.491 85.0446 42.491H85.0461Z" fill="#001A30"/>
<path d="M84.5858 42.4837C84.5858 42.4837 84.7207 42.8631 83.7157 43.6347C82.7107 44.4063 80.7888 44.9918 79.843 44.3937C78.8973 43.7955 77.1266 43.8348 77.1266 43.8348L75.6932 44.805C75.6932 44.805 76.5129 44.51 77.6336 45.2142C78.7542 45.9183 80.6576 46.3949 80.6576 46.3949C84.7874 47.1138 86.5967 42.8587 86.5967 42.8587C86.3558 42.4777 84.5851 42.4829 84.5851 42.4829L84.5858 42.4837Z" fill="#001A30"/>
<path d="M84.6978 46.2214C83.4022 47.434 80.4627 47.4547 78.463 46.3934C76.4633 45.332 75.0817 45.378 75.0817 45.378L74.7163 46.0235C74.7163 46.0235 75.9867 46.2503 76.9391 46.4712C77.8915 46.6928 78.5475 47.6289 82.3341 47.7253C86.1208 47.8216 87.5802 43.3212 87.5802 43.3212L86.9843 42.9684C86.9843 42.9684 85.9926 45.0088 84.697 46.2214H84.6978Z" fill="#001A30"/>
<path d="M79.2787 60.5729L78.3574 63.9615C79.4017 65.5069 84.3143 65.8641 84.3143 65.8641C83.8229 64.9725 84.7864 61.8944 84.7864 61.8944C82.2071 62.4295 79.278 60.5729 79.278 60.5729H79.2787Z" fill="white"/>
<path d="M86.8232 59.3535C86.8232 59.3535 87.0827 61.0227 85.5262 61.7327L87.7401 64.7004C87.7401 64.7004 90.2586 61.1383 86.8232 59.3543V59.3535Z" fill="white"/>
<path d="M86.7113 64.1927L86.5067 62.8452L85.4424 61.6957L84.7872 61.8936L84.3366 64.4699L84.8687 64.9457C84.8687 64.9457 85.7693 65.6195 86.7113 69.3847C87.6533 73.1498 82.9446 75.3296 82.9446 75.3296C82.9446 75.3296 75.8204 77.9853 75.1245 80.6409C74.4285 83.2966 76.2303 84.604 76.2303 84.604C76.2303 84.604 77.786 82.6221 79.0964 80.7988C80.4068 78.9755 82.7401 78.3418 82.7401 78.3418C82.7401 78.3418 86.7113 77.2323 89.0045 72.9119C91.297 68.5916 86.712 64.1927 86.712 64.1927H86.7113Z" fill="#EA4E50"/>
<path d="M73.719 79.0968L71.0374 88.094L69.2971 102.342L75.6839 102.402C75.6839 102.402 73.9028 101.391 71.9379 99.6667C69.9723 97.9427 73.719 79.0968 73.719 79.0968Z" fill="#031D38"/>
<path d="M4.05561 163.761L4.09564 164.131C5.09178 164.03 5.69361 162.838 5.71881 162.788L5.3712 162.626C5.36602 162.636 4.83978 163.681 4.05487 163.761H4.05561Z" fill="white"/>
<path d="M5.0036 164.924L5.04362 165.294C6.03976 165.193 6.6416 164.001 6.6668 163.95L6.31993 163.789C6.31475 163.799 5.78554 164.844 5.0036 164.924Z" fill="white"/>
<path d="M33.0113 165.516L33.1707 165.855C34.083 165.454 34.2661 164.14 34.2735 164.084L33.8911 164.036C33.8896 164.048 33.7302 165.199 33.0113 165.515V165.516Z" fill="white"/>
<path d="M34.2899 166.33L34.4493 166.669C35.3617 166.269 35.5447 164.954 35.5521 164.898L35.1697 164.85C35.1682 164.862 35.0059 166.015 34.2899 166.329V166.33Z" fill="white"/>
<path d="M41.1821 68.2204C41.1821 68.2204 43.2618 60.1186 43.2618 59.7154C43.2618 59.3122 40.455 54.4819 40.455 54.4819C40.455 54.4819 33.3849 54.8844 33.2811 55.086C33.1774 55.2876 30.0807 56.8292 30.0807 56.8292C30.0807 56.8292 27.875 59.2633 27.7705 62.5341C27.7705 62.5341 26.6787 66.3082 24.3396 66.2074C22.0004 66.1066 18.2056 64.3455 16.0739 68.0692C13.9423 71.7929 15.6063 74.6116 15.6063 74.6116C15.6063 74.6116 11.0317 75.7189 13.4227 79.493C15.8138 83.2671 39.9866 84.0727 44.1453 81.9589C48.3041 79.8451 49.4159 78.4242 48.5968 75.2964C48.5968 75.2964 48.5642 70.1831 41.1828 68.2204H41.1821Z" fill="#001A30"/>
<path d="M24.3396 66.2153C22.0004 66.1145 18.2056 64.3534 16.0739 68.0771C13.9423 71.8008 15.6063 74.6195 15.6063 74.6195C15.6063 74.6195 11.0317 75.7268 13.4227 79.5009C13.4776 79.5876 13.548 79.6728 13.6258 79.7566L13.7133 79.6721C12.1161 76.488 17.2376 74.7144 17.2376 74.7144C17.2376 74.7144 16.4386 71.6214 17.5192 69.12C18.5999 66.6185 23.3456 68.1194 25.9768 67.6643C28.3619 67.2522 28.2374 65.7935 27.7386 62.645C27.5444 63.2469 26.4497 66.3064 24.3396 66.216V66.2153Z" fill="#001A30"/>
<path d="M45.298 57.4316L38.9668 35.6217C39.0691 34.7211 39.2625 32.6325 38.9157 32.1285C38.4702 31.4814 34.8214 30.8885 34.0417 31.0501C33.262 31.2117 32.231 34.3394 32.2873 34.69C32.3429 35.0406 34.5857 37.0507 34.5857 37.0507L38.1189 59.5469L35.9695 65.8625L44.4352 66.3702C45.0311 63.7094 46.2741 60.1198 45.298 57.4316Z" fill="#FABA97"/>
<mask id="mask0_240_1048" style="mask-type:luminance" maskUnits="userSpaceOnUse" x="32" y="31" width="14" height="36">
<path d="M45.298 57.4316L38.9668 35.6217C39.0691 34.7211 39.2625 32.6325 38.9157 32.1285C38.4702 31.4814 34.8214 30.8885 34.0417 31.0501C33.262 31.2117 32.231 34.3394 32.2873 34.69C32.3429 35.0406 34.5857 37.0507 34.5857 37.0507L38.1189 59.5469L35.9695 65.8625L44.4352 66.3702C45.0311 63.7094 46.2741 60.1198 45.298 57.4316Z" fill="white"/>
</mask>
<g mask="url(#mask0_240_1048)">
<path d="M36.9094 51.8461L36.8434 62.6665L42.5535 64.7137C44.1307 58.1238 41.3372 55.3177 36.9094 51.8461Z" fill="#F5927E"/>
</g>
<path d="M36.3029 63.517L32.7919 72.821L44.6256 77.5104L45.9864 65.5004C40.3327 62.3689 36.3036 63.517 36.3036 63.517H36.3029Z" fill="#031D38"/>
<path d="M49.9456 168.046L43.7175 163.186L38.3358 162.015C37.439 162.779 36.7949 163.781 36.4829 164.898C36.3806 165.477 35.6498 166.791 36.6237 167.039C36.6845 166.777 51.3842 171.874 50.7187 170.497C50.7602 169.639 50.7439 168.599 49.9464 168.045L49.9456 168.046Z" fill="#402312"/>
<path d="M6.92252 121.665C7.19823 121.689 3.1351 136.323 4.50109 135.544C5.38754 135.515 6.45706 135.415 6.96328 134.601L11.463 128.198L12.2345 122.911C11.3755 122.107 10.2904 121.566 9.11566 121.356C8.51012 121.304 7.09818 120.705 6.92177 121.664L6.92252 121.665Z" fill="#402312"/>
<path d="M38.327 162.1C38.2854 163.472 39.3201 164.654 40.7261 164.84C42.1722 165.031 43.5234 164.105 43.8191 162.721L50.3978 131.908L42.0462 131.436C37.4946 137.352 39.0481 150.636 38.3277 162.1L38.327 162.1Z" fill="#FABA97"/>
<path d="M12.2634 122.952C10.9174 122.646 9.54995 123.372 9.09264 124.635C8.54713 125.953 9.18084 127.468 10.535 128.026L40.466 140.46L42.6154 132.633C37.5539 127.133 23.6805 125.923 12.2641 122.953L12.2634 122.952Z" fill="#FABA97"/>
<path d="M36.2406 69.6022L30.3482 69.8164C27.1248 72.0281 20.8915 74.3213 21.8706 79.1278C23.015 87.5594 28.5923 101.422 28.5923 101.422L45.2889 100.867V86.6485C52.9141 78.881 40.4327 71.7182 36.2406 69.6029V69.6022Z" fill="#002F5D"/>
<path d="M38.9592 139.83C41.2813 141.035 45.7276 140.267 46.5614 139.163C48.0475 137.197 48.0475 133.655 48.0475 133.655L45.7565 134.148C45.3993 137.467 42.4538 140.109 38.9592 139.829V139.83Z" fill="#F5927E"/>
<path d="M28.8777 70.3817L12.7704 75.269C12.7704 75.269 10.4928 81.529 16.2836 85.8508L27.5266 84.7924C27.5266 84.7924 31.0079 76.7566 28.877 70.3817H28.8777Z" fill="#002F5D"/>
<mask id="mask1_240_1048" style="mask-type:luminance" maskUnits="userSpaceOnUse" x="12" y="70" width="18" height="16">
<path d="M28.8777 70.3817L12.7704 75.269C12.7704 75.269 10.4928 81.529 16.2836 85.8508L27.5266 84.7924C27.5266 84.7924 31.0079 76.7566 28.877 70.3817H28.8777Z" fill="white"/>
</mask>
<g mask="url(#mask1_240_1048)">
<path d="M9.00074 77.1398C8.83472 78.8526 14.0875 86.8277 14.0875 86.8277C21.978 85.5929 15.8596 75.6151 14.9724 73.339C14.9724 73.339 9.16677 75.4261 9.00074 77.139V77.1398Z" fill="#031D38"/>
</g>
<path d="M23.1454 85.2084C23.3477 86.9102 25.4668 92.8626 25.4668 92.8626C31.7482 89.594 29.5692 80.8962 29.5692 80.8962C29.6885 84.5799 23.1461 85.2084 23.1461 85.2084H23.1454Z" fill="#031D38"/>
<path d="M18.4983 52.0359C28.7147 52.0359 36.9967 44.0081 36.9967 34.1053C36.9967 24.2025 28.7147 16.1747 18.4983 16.1747C8.28199 16.1747 0 24.2025 0 34.1053C0 44.0081 8.28199 52.0359 18.4983 52.0359Z" fill="#DA4043"/>
<path d="M18.4983 48.4404C26.6659 48.4404 33.287 42.0223 33.287 34.1053C33.287 26.1882 26.6659 19.7701 18.4983 19.7701C10.3307 19.7701 3.70953 26.1882 3.70953 34.1053C3.70953 42.0223 10.3307 48.4404 18.4983 48.4404Z" fill="#FFFFFC"/>
<path d="M18.4983 44.7012C24.5353 44.7012 29.4292 39.9572 29.4292 34.1053C29.4292 28.2533 24.5353 23.5094 18.4983 23.5094C12.4614 23.5094 7.56744 28.2533 7.56744 34.1053C7.56744 39.9572 12.4614 44.7012 18.4983 44.7012Z" fill="#DA4043"/>
<path d="M18.4983 41.1531C22.5139 41.1531 25.7692 37.9977 25.7692 34.1052C25.7692 30.2128 22.5139 27.0574 18.4983 27.0574C14.4826 27.0574 11.2273 30.2128 11.2273 34.1052C11.2273 37.9977 14.4826 41.1531 18.4983 41.1531Z" fill="white"/>
<path d="M18.4983 37.5095C20.4377 37.5095 22.01 35.9854 22.01 34.1053C22.01 32.2252 20.4377 30.701 18.4983 30.701C16.5588 30.701 14.9866 32.2252 14.9866 34.1053C14.9866 35.9854 16.5588 37.5095 18.4983 37.5095Z" fill="#DA4043"/>
<path d="M31.3777 13.9852L26.5371 19.3721L28.1899 23.0246L31.9766 23.9029L36.8543 18.5472L33.0039 17.7415L31.3777 13.9852Z" fill="#3268B1"/>
<path d="M30.2763 15.1541L28.96 16.7128L30.5535 20.5054L34.2327 21.357L35.6617 19.8924L31.9773 18.9726L30.2763 15.1541Z" fill="#3268B1"/>
<path d="M27.7623 17.9905L26.5371 19.372L28.1899 23.0246L31.9766 23.9029L33.4004 22.3701L29.6137 21.4918L27.7623 17.9905Z" fill="#3268B1"/>
<path d="M18.3589 33.6731L18.9593 34.1734L34.1097 17.0826L33.5094 16.5823L18.3589 33.6731Z" fill="#153F67"/>
<path d="M16.8832 52.897C16.844 52.3367 12.9357 49.2519 12.3294 49.2082C11.7231 49.1652 9.53149 50.8558 9.4418 52.0773C9.35212 53.2988 10.4372 56.7408 10.4372 56.7408C10.0829 60.3059 8.3204 78.3743 8.71693 81.3479C8.91854 82.8614 9.61747 84.3482 10.81 85.2806C13.3404 87.2581 17.0989 85.2769 16.8736 82.1365L15.0184 57.2626C15.0184 57.2626 16.9225 53.4581 16.8832 52.8978V52.897Z" fill="#FABA97"/>
<path d="M30.4349 70.4281C30.4349 70.4281 30.999 72.3833 33.4204 72.8072C35.8418 73.2312 37.4695 71.8422 37.5532 71.6399L37.7163 66.9134L37.7682 64.1236L31.1895 63.0437L30.4349 70.4281Z" fill="#FABA97"/>
<path d="M37.5768 71.7859L37.7154 66.9149L32.5101 67.2981L37.5768 71.7859Z" fill="#F5927E"/>
<path d="M41.9735 65.7186L41.786 61.1715L41.6793 58.5314C41.5874 56.3331 39.6744 54.6247 37.4034 54.7106L31.4777 54.9411L31.9439 66.3108C31.9662 66.8193 32.2997 67.2617 32.7911 67.4404L37.711 69.2103C38.1283 69.36 38.599 69.2911 38.954 69.0294L41.4792 67.1565C41.8149 66.9089 42.0069 66.5176 41.9906 66.1092L41.9735 65.7186Z" fill="#FABA97"/>
<path d="M30.7655 61.0989C29.4469 61.1493 28.4204 62.2255 28.473 63.5018C28.5256 64.7781 29.6367 65.7713 30.9552 65.7209C32.2738 65.6697 33.2996 64.5943 33.2477 63.318C33.1951 62.0417 32.084 61.0485 30.7655 61.0989Z" fill="#FABA97"/>
<path d="M40.165 58.172C40.0887 58.6211 41.7756 58.8694 41.9557 58.4114C42.2411 57.6858 40.2925 57.4271 40.165 58.172Z" fill="#281C1C"/>
<path d="M34.4506 58.7398C34.6951 59.1689 36.3294 58.6931 36.1886 58.2595C35.9544 57.5391 34.0629 58.0609 34.4506 58.7398Z" fill="#281C1C"/>
<path d="M30.0168 62.8421L31.431 64.1436L31.5993 63.9724L30.1851 62.6709L30.0168 62.8421Z" fill="#F5927E"/>
<path d="M30.1252 63.9101L30.2994 64.0761L30.8953 63.4899L30.7218 63.3246L30.1252 63.9101Z" fill="#F5927E"/>
<path d="M35.7736 53.0712C26.9958 54.0725 30.2629 61.1493 30.2629 61.1493C31.2435 60.7342 32.2085 61.5243 32.2085 61.5243C32.2085 61.5243 32.8697 59.005 32.8771 58.8664C32.8845 58.7278 34.269 57.0335 34.269 57.0335L37.502 56.6377L41.6148 57.7243C40.7832 52.625 35.7743 53.0712 35.7743 53.0712H35.7736Z" fill="#FABA97"/>
<path d="M37.3946 52.4466C29.3632 52.2954 28.1543 54.8243 27.9986 55.3149C27.843 55.8056 27.5754 62.7853 27.5754 62.7853C27.5754 62.7853 30.5046 60.1519 31.0612 61.337C31.9099 63.1447 31.729 63.2767 31.729 63.2767C31.729 63.2767 32.4435 62.7875 32.8334 61.0509C32.8334 61.0509 37.5902 59.5033 39.0326 57.05C39.0326 57.05 39.1104 58.4464 37.3167 59.994C37.3167 59.994 39.9679 60.8241 41.1375 60.5224C41.1375 60.5224 41.5667 58.4464 41.7223 58.7488C41.878 59.0512 41.683 60.7115 41.683 60.7115C41.683 60.7115 44.1 60.8248 44.2564 60.4098C44.412 59.9947 45.426 52.597 37.3946 52.4458V52.4466Z" fill="#001A30"/>
<path d="M33.353 54.6941C32.3665 54.0115 32.2256 52.7841 32.2256 52.7841L30.3934 53.3755C30.3934 53.3755 30.1585 54.6948 31.5208 55.6495C32.8831 56.6048 32.8831 56.5137 32.7422 57.7418C32.6014 58.9699 34.1987 60.3797 34.1987 60.3797L35.8433 59.697C35.8433 59.697 34.481 58.1502 34.4336 57.0132C34.3869 55.8763 34.3395 55.376 33.353 54.6933V54.6941Z" fill="#001A30"/>
<path d="M36.5482 57.1495C36.689 56.2853 36.8773 54.9208 36.2665 54.0566C35.6558 53.1924 35.3742 52.4193 35.3742 52.4193L34.2935 52.4645C34.2935 52.4645 35.9382 53.9202 36.079 55.2395C36.2198 56.5588 35.7032 56.7404 35.9849 57.6958C36.2665 58.6511 36.6897 59.1514 36.6897 59.1514L37.3005 58.7875C37.3005 58.7875 36.4081 58.0145 36.5489 57.1503L36.5482 57.1495Z" fill="#001A30"/>
<path d="M28.5961 70.4746C28.8074 72.8063 31.145 76.9636 33.4205 74.8594L35.2 72.7989L30.3483 69.6726L28.5961 70.4746Z" fill="white"/>
<path d="M37.5577 70.2856L35.2 72.799L36.9855 73.95C39.0223 75.0655 40.2452 72.7078 39.3514 71.015L37.557 70.2856H37.5577Z" fill="white"/>
<path d="M29.8479 132.159L29.7568 133.392C29.7568 133.392 33.4123 133.847 35.5365 133.965C37.6607 134.083 37.7963 135.081 40.5268 134.494C43.2573 133.907 44.4706 134.729 46.7765 134.317C49.0823 133.906 49.8709 134.2 51.6912 133.612C53.5115 133.025 53.7539 133.084 53.9362 133.084C54.1186 133.084 53.6331 131.322 53.6331 131.322C51.9343 133.554 29.8487 132.159 29.8487 132.159H29.8479Z" fill="#231D26"/>
<path d="M40.9775 113.54L55.028 131.491C54.65 119.838 46.0382 100.868 46.0382 100.868L40.9782 113.54H40.9775Z" fill="#231D26"/>
<path d="M27.883 99.3254C23.058 110.064 23.5419 112.335 29.0696 123.179L28.6412 132.353C28.6412 132.353 48.5923 135.307 55.0279 131.359L45.7454 98.7332L27.883 99.3254Z" fill="#332D35"/>
<path d="M44.5827 163.987C44.5857 164.026 44.6539 164.951 43.8845 165.403L44.0846 165.722C45.0608 165.148 44.9711 164.004 44.9666 163.956L44.5827 163.987Z" fill="#753C1B"/>
<path d="M45.7915 164.745C45.7945 164.784 45.8627 165.709 45.0933 166.161L45.2934 166.48C46.2696 165.906 46.1799 164.762 46.1754 164.713L45.7915 164.745Z" fill="#753C1B"/>
<path d="M8.91643 128.971L8.60809 129.194C9.2922 130.079 10.4603 129.882 10.5092 129.874L10.4395 129.507C10.3995 129.513 9.45526 129.668 8.91568 128.971H8.91643Z" fill="#753C1B"/>
<path d="M8.25456 130.209L7.94623 130.432C8.63034 131.317 9.79843 131.121 9.84735 131.112L9.77768 130.745C9.73766 130.752 8.7934 130.907 8.25382 130.209H8.25456Z" fill="#753C1B"/>
</svg>
