<svg width="172" height="175" viewBox="0 0 172 175" fill="none" xmlns="http://www.w3.org/2000/svg">
<path opacity="0.68" d="M143.88 127.746C144.437 127.09 144.936 126.385 145.404 125.662C145.873 124.938 146.307 124.193 146.721 123.437C147.532 121.915 148.238 120.335 148.828 118.711C150.012 115.465 150.746 112.057 151.057 108.616C151.349 105.173 151.253 101.696 150.724 98.2849L150.524 97.0075L150.271 95.7386C150.114 94.891 149.889 94.0587 149.683 93.2213C149.584 92.8017 149.456 92.3906 149.332 91.9779L148.962 90.7413C148.7 89.9225 148.404 89.114 148.119 88.3037C149.136 91.5872 149.889 94.9454 150.33 98.3376L150.415 98.9728C150.441 99.1852 150.456 99.3992 150.477 99.6115L150.598 100.889C150.63 101.315 150.645 101.742 150.671 102.17L150.705 102.81C150.715 103.024 150.712 103.236 150.717 103.45L150.737 104.731L150.708 106.012C150.705 106.44 150.676 106.865 150.647 107.291C150.615 107.717 150.604 108.144 150.553 108.568L150.427 109.842L150.254 111.111C150.202 111.536 150.114 111.954 150.044 112.375L149.932 113.005L149.8 113.632C149.456 115.305 149.002 116.956 148.455 118.575C147.903 120.194 147.252 121.78 146.501 123.319C145.748 124.858 144.898 126.355 143.881 127.743L143.88 127.746Z" fill="white"/>
<path opacity="0.4" d="M84.5034 137.722H81.4749V160.09H84.5034V137.722Z" fill="white"/>
<g opacity="0.7">
<path d="M151.741 45.0444H14.6275C13.8627 45.0444 13.2427 45.6644 13.2427 46.4305V133.38C13.2427 134.145 13.8627 134.766 14.6275 134.766H151.741C152.505 134.766 153.124 134.145 153.124 133.38V46.4305C153.124 45.6644 152.505 45.0444 151.741 45.0444ZM151.41 132.106H14.5679V49.9144H151.41V132.106Z" fill="#002F5D"/>
<path d="M151.41 49.9144H14.5679V132.106H151.41V49.9144Z" fill="#002F5D"/>
</g>
<path d="M151.41 49.9144H14.5679V132.106H151.41V49.9144Z" fill="#E6EAEF"/>
<path opacity="0.1" d="M125.445 53.2777H36.1525C35.2513 53.2777 34.5208 54.0063 34.5208 54.905C34.5208 55.8037 35.2513 56.5323 36.1525 56.5323H125.445C126.346 56.5323 127.076 55.8037 127.076 54.905C127.076 54.0063 126.346 53.2777 125.445 53.2777Z" fill="#002F5D"/>
<path opacity="0.1" d="M140.395 53.2777H131.631C130.73 53.2777 130 54.0063 130 54.905C130 55.8037 130.73 56.5323 131.631 56.5323H140.395C141.296 56.5323 142.027 55.8037 142.027 54.905C142.027 54.0063 141.296 53.2777 140.395 53.2777Z" fill="#002F5D"/>
<path opacity="0.49" fill-rule="evenodd" clip-rule="evenodd" d="M146.614 53.5292C147.114 53.9079 147.246 54.5908 146.948 55.1208L148.346 56.1264C148.555 56.2775 148.268 56.6529 148.067 56.4933L146.718 55.4163C146.283 55.8274 145.602 55.8767 145.11 55.503C144.563 55.0885 144.456 54.3105 144.871 53.7653C145.287 53.22 146.067 53.113 146.614 53.5275V53.5292ZM146.408 53.7992C146.011 53.4986 145.443 53.575 145.142 53.9725C144.841 54.3683 144.917 54.9339 145.316 55.2346C145.713 55.5352 146.28 55.4588 146.581 55.0613C146.883 54.6655 146.806 54.0999 146.408 53.7992Z" fill="#002F5D"/>
<path d="M150.434 48.0407C150.492 48.0985 150.492 48.1919 150.434 48.2497C150.405 48.2786 150.366 48.2938 150.329 48.2938C150.291 48.2938 150.252 48.2786 150.223 48.2497L149.675 47.7027L149.126 48.2497C149.097 48.2786 149.058 48.2938 149.021 48.2938C148.983 48.2938 148.944 48.2786 148.915 48.2497C148.857 48.1919 148.857 48.0968 148.915 48.0407L149.463 47.4938L148.915 46.9468C148.857 46.8891 148.857 46.794 148.915 46.7379C148.973 46.6801 149.067 46.6801 149.125 46.7379L149.673 47.2849L150.221 46.7379C150.279 46.6801 150.373 46.6801 150.431 46.7379C150.489 46.7956 150.489 46.8891 150.431 46.9468L149.883 47.4938L150.431 48.0407H150.434Z" fill="#E6EAEF"/>
<path d="M147.327 46.6039H146.012C145.963 46.6039 145.92 46.643 145.92 46.6956V48.0053C145.92 48.0545 145.961 48.097 146.012 48.097H146.329C146.379 48.097 146.421 48.0562 146.421 48.0053V47.0744H147.329C147.378 47.0744 147.421 47.0336 147.421 46.9827V46.6956C147.421 46.6446 147.38 46.6039 147.329 46.6039H147.327ZM146.329 46.891C146.28 46.891 146.237 46.9317 146.237 46.9827V47.9135H146.103V46.7856H147.235V46.891H146.328H146.329Z" fill="#E6EAEF"/>
<path d="M147.643 48.384H146.329C146.278 48.384 146.239 48.3432 146.239 48.294V48.0052C146.239 47.9542 146.28 47.9152 146.329 47.9152C146.379 47.9152 146.42 47.9559 146.42 48.0052V48.2022H147.551V47.0743H147.326C147.275 47.0743 147.235 47.0336 147.235 46.9843C147.235 46.9351 147.276 46.8943 147.326 46.8943H147.641C147.692 46.8943 147.731 46.9351 147.731 46.9843V48.294C147.731 48.3449 147.69 48.384 147.641 48.384H147.643Z" fill="#E6EAEF"/>
<path d="M144.442 47.6145H143.044C142.977 47.6145 142.923 47.5601 142.923 47.4939C142.923 47.4276 142.977 47.3733 143.044 47.3733H144.442C144.508 47.3733 144.563 47.4276 144.563 47.4939C144.563 47.5601 144.508 47.6145 144.442 47.6145Z" fill="#E6EAEF"/>
<g opacity="0.1">
<path d="M30.0562 55.1343C30.0562 56.1586 29.2233 56.9909 28.1945 56.9909C27.1657 56.9909 26.3328 56.1603 26.3328 55.1343C26.3328 54.1083 27.1657 53.2777 28.1945 53.2777C29.2233 53.2777 30.0562 54.1083 30.0562 55.1343Z" fill="#002F5D"/>
</g>
<g opacity="0.1">
<path d="M23.0267 55.1343C23.0267 56.1586 22.1938 56.9909 21.165 56.9909C20.1362 56.9909 19.3032 56.1603 19.3032 55.1343C19.3032 54.1083 20.1362 53.2777 21.165 53.2777C22.1938 53.2777 23.0267 54.1083 23.0267 55.1343Z" fill="#002F5D"/>
</g>
<path d="M121.74 94.2992L120.693 95.3438L121.483 96.132C121.568 96.2186 121.568 96.3579 121.483 96.4428C121.439 96.4853 121.382 96.5074 121.326 96.5074C121.27 96.5074 121.214 96.4853 121.17 96.4428L120.379 95.6547L119.332 96.701C119.289 96.7435 119.233 96.7656 119.175 96.7656C119.117 96.7656 119.063 96.7435 119.018 96.701C118.933 96.6144 118.933 96.4751 119.018 96.3885L120.066 95.3438L119.018 94.2992C118.933 94.2125 118.933 94.0732 119.018 93.9883C119.105 93.9017 119.245 93.9017 119.33 93.9883L120.377 95.033L121.425 93.9883C121.512 93.9017 121.652 93.9017 121.737 93.9883C121.824 94.0732 121.824 94.2125 121.737 94.2992H121.74Z" fill="#E6EAEF"/>
<path d="M120.11 100.958C120.049 100.958 119.989 100.932 119.946 100.887L118.955 99.8079C118.873 99.7179 118.878 99.5786 118.969 99.4971C119.059 99.4156 119.199 99.4206 119.28 99.5107L120.084 100.385L121.757 97.9462C121.825 97.846 121.963 97.8205 122.064 97.8885C122.164 97.9564 122.19 98.094 122.122 98.1942L120.292 100.863C120.255 100.919 120.193 100.953 120.125 100.958C120.12 100.958 120.115 100.958 120.11 100.958Z" fill="#E6EAEF"/>
<path d="M108.204 134.712C108.204 135.543 107.035 136.295 105.149 136.84C103.259 137.386 100.653 137.722 97.7723 137.722H68.2042C62.4452 137.722 57.7747 136.375 57.7747 134.712H108.204Z" fill="#002F5D"/>
<path d="M87.244 137.722H78.7324V160.09H87.244V137.722Z" fill="#002F5D"/>
<path opacity="0.7" d="M130.364 168.439H35.6162C35.6162 166.134 36.553 164.046 38.0673 162.536L38.0894 162.514C39.6037 161.016 41.6869 160.09 43.9881 160.09H121.992C124.293 160.09 126.377 161.016 127.891 162.514C129.42 164.026 130.366 166.122 130.366 168.439H130.364Z" fill="#002F5D"/>
<path opacity="0.7" d="M127.889 162.512H38.0894C39.6036 161.014 41.6868 160.088 43.988 160.088H121.992C124.293 160.088 126.377 161.014 127.891 162.512H127.889Z" fill="#002F5D"/>
<path opacity="0.07" d="M134.563 163.339H28.2117C25.0876 163.339 22.5549 165.865 22.5549 168.98C22.5549 172.096 25.0876 174.621 28.2117 174.621H134.563C137.687 174.621 140.219 172.096 140.219 168.98C140.219 165.865 137.687 163.339 134.563 163.339Z" fill="#002F5D"/>
<path opacity="0.35" d="M131.931 49.9132L127.342 54.3655L49.8762 129.508L47.3698 131.94H13.524L12.5752 131.43L14.5566 129.508L92.0221 54.3655L96.6132 49.9132H131.931Z" fill="white"/>
<path opacity="0.35" d="M150.478 52.974V66.612L148.311 68.7116L85.6368 129.508L83.1304 131.94H69.071L71.5774 129.508L148.311 55.0751L149.043 54.3654L150.478 52.974Z" fill="white"/>
<path d="M5.60024 28.0624L21.7811 27.8744L0.182373 9.81067L5.60024 28.0624Z" fill="#78C3F5"/>
<path d="M15.3403 27.9488L23.667 37.8107L21.781 27.8745L15.3403 27.9488Z" fill="#1798EE"/>
<path d="M28.7127 29.1751L37.4352 27.6182L0.182373 9.81067L28.7127 29.1751Z" fill="#78C3F5"/>
<path d="M21.7811 27.8744L23.667 37.8107L28.7127 29.1751L0.182373 9.81067L21.7811 27.8744Z" fill="#3EAAF1"/>
<path d="M135.239 44.5424C135.239 44.5424 136.841 42.1769 136.992 40.8342C138.756 35.8671 138.462 34.5923 138.988 34.7894C140.23 35.2553 139.037 39.3536 139.037 39.3536C139.037 39.3536 145.796 31.9738 146.966 31.7661C148.137 31.559 146.996 33.7842 146.996 33.7842C146.996 33.7842 148.362 32.0795 148.654 32.4044C148.946 32.7293 148.937 34.077 148.731 34.5738C148.731 34.5738 149.121 34.1502 149.442 34.6008C149.765 35.052 148.52 38.5449 146.972 40.557C146.972 40.557 149.562 37.19 149.783 38.0449C149.783 38.0449 147.577 42.4546 146.59 43.5682C145.604 44.6818 139.119 49.7625 139.119 49.7625L134.899 44.9674L135.238 44.5418L135.239 44.5424Z" fill="#FBC5A9"/>
<path d="M146.902 33.704L147.091 33.8639L142.227 39.6191L142.037 39.4592L146.902 33.704Z" fill="#F3AA7F"/>
<path d="M143.81 40.7816C145.681 38.8105 148.799 34.6899 148.83 34.6481L148.632 34.4991C148.601 34.5403 145.491 38.6501 143.63 40.6114L143.81 40.7819L143.81 40.7816Z" fill="#F3AA7F"/>
<path d="M146.88 40.4748L147.062 40.6428L145.39 42.4537L145.208 42.2857L146.88 40.4748Z" fill="#F3AA7F"/>
<path d="M135.239 44.5424L134.884 44.9694L139.104 49.7572L140.185 48.903L135.239 44.5424Z" fill="#F3AA7F"/>
<path d="M59.4771 109.849C59.4771 113.148 60.0972 124.193 60.568 132.107H107.294C107.289 123.825 107.27 112.29 107.205 110.839C107.12 108.917 106.778 106.565 106.305 104.098C104.779 96.1294 101.893 86.9325 101.893 86.9325L62.7017 88.1883C62.7017 88.1883 60.4578 99.5588 59.7136 106.418C59.5658 107.782 59.4771 108.967 59.4771 109.848V109.849Z" fill="#332D35"/>
<path d="M59.7135 106.418C67.8264 105.933 79.0168 103.187 81.5918 100.187C85.078 96.1222 84.149 96.8191 86.9383 101.463C89.3802 105.53 102.965 104.433 106.304 104.097C104.778 96.1288 101.892 86.9319 101.892 86.9319L62.7008 88.1877C62.7008 88.1877 60.457 99.5582 59.7127 106.418L59.7135 106.418Z" fill="#231D26"/>
<path d="M71.6695 30.5932C71.6695 30.5932 79.4165 28.5142 80.7491 28.6205C82.0817 28.7268 91.0822 31.9495 91.0822 31.9495L92.9854 90.3154H73.4618L71.6695 30.5932Z" fill="white"/>
<path d="M89.2155 99.1323C89.7181 99.6897 98.5095 101.502 106.464 100.666C106.464 100.666 100.324 69.5783 100.324 67.9053C100.324 67.6528 100.376 66.8023 100.462 65.5376C106.629 68.6665 111.421 73.464 116.385 74.0169C120.49 74.474 126.501 69.5835 132.089 63.6535C135.645 59.8801 139.03 55.6858 141.646 52.1811L131.351 40.4976C125.146 47.4546 117.584 55.7072 115.927 54.4071C113.912 52.8279 105.353 38.9346 105.353 38.9346C105.18 38.1513 93.1401 32.2582 90.1128 31.5155C90.1128 31.5155 88.6856 59.4009 88.4351 64.6989C88.1845 69.9962 88.7144 98.5741 89.217 99.1315L89.2155 99.1323Z" fill="#01203F"/>
<path d="M62.3628 60.013C62.4375 60.8266 61.8787 68.9279 61.8787 69.3694C61.8787 73.9719 58.7687 100.896 58.7687 100.896C72.0145 104.348 79.6167 97.9038 79.6167 97.9038C79.6167 97.9038 79.1555 62.1201 77.0824 54.4108C75.0093 46.7015 71.6694 30.5934 71.6694 30.5934C71.6694 30.5934 55.4716 36.6422 55.0104 38.1388C55.0104 38.1388 39.9664 64.7359 38.2976 69.1708L54.0955 74.2207C54.5034 73.2706 58.0902 68.2162 62.3628 60.013Z" fill="#01203F"/>
<path d="M71.6696 30.5934C71.6696 30.5934 67.5729 35.4381 67.5729 39.6419C67.5729 43.8458 74.2224 50.4882 74.2224 50.4882C74.2224 50.4882 72.2025 56.1214 73.4648 59.0643C74.7272 62.0071 79.6177 90.3163 79.6177 90.3163C79.6177 90.3163 78.4307 54.8604 77.7574 52.3384C77.0841 49.8164 71.6703 30.5949 71.6703 30.5949L71.6696 30.5934Z" fill="url(#paint0_linear_240_1574)"/>
<path d="M90.1109 31.5161C90.1109 31.5161 96.6429 41.6928 95.6481 44.9383C94.6541 48.1839 91.0828 50.8476 91.0828 50.8476C91.0828 50.8476 93.071 53.7322 92.5706 55.9101C92.071 58.0881 88.7067 90.3147 88.7067 90.3147C88.7067 90.3147 88.428 49.8487 88.666 47.1857C88.904 44.5227 90.1094 31.5161 90.1094 31.5161H90.1109Z" fill="url(#paint1_linear_240_1574)"/>
<path d="M71.0837 78.2334H90.1572C90.4306 78.2319 90.6664 78.0414 90.7432 77.7793C91.2362 76.082 93.3766 68.671 94.3707 64.6089L94.8917 62.3947L96.6197 55.0612C96.7608 54.4625 96.3056 53.8881 95.6892 53.8881H76.6209C76.0303 53.8881 75.5159 54.2949 75.3807 54.8693L71.5655 71.0675L70.1546 77.0587C70.0135 77.6582 70.4687 78.2326 71.0844 78.2326L71.0837 78.2334Z" fill="url(#paint2_linear_240_1574)"/>
<path d="M71.1094 77.0596L76.3362 54.8701C76.4715 54.295 76.9852 53.8889 77.5764 53.8889H76.6208C76.0295 53.8889 75.5158 54.295 75.3806 54.8701L70.1538 77.0596C70.0126 77.6591 70.4679 78.2327 71.0843 78.2327H72.04C71.4236 78.2327 70.9683 77.6583 71.1094 77.0596Z" fill="url(#paint3_linear_240_1574)"/>
<path d="M71.0833 78.2334H90.1568C90.4303 78.232 90.666 78.0415 90.7429 77.7794C91.2359 76.082 93.3762 68.671 94.3703 64.6089L94.8914 62.3948C91.9498 65.9364 86.8295 71.213 81.5871 72.4452C77.9435 73.3016 74.3781 72.3581 71.5645 71.0683L70.1536 77.0595C70.0124 77.659 70.4677 78.2334 71.0833 78.2334Z" fill="url(#paint4_linear_240_1574)"/>
<path d="M68.0725 79.8673C68.0725 79.8673 57.1851 81.4502 46.9828 81.5624C40.5365 81.6333 36.037 75.2013 38.2979 69.1701C38.2979 69.1701 42.314 67.5806 50.5999 67.1834C57.2265 66.8659 64.4118 66.9427 67.2226 66.0604L68.0732 79.8665L68.0725 79.8673Z" fill="#01203F"/>
<path d="M67.2698 66.7394C67.2698 66.7394 69.9127 65.5397 70.756 64.4566C71.5993 63.3736 73.5593 62.3643 73.5593 62.3643L73.3125 64.258C73.3125 64.258 83.0832 61.4488 84.2073 61.8896C85.3314 62.3311 83.163 63.6541 83.163 63.6541C83.163 63.6541 85.2509 62.9018 85.3314 63.3381C85.412 63.7744 84.6892 64.9373 84.2472 65.2584C84.2472 65.2584 84.8097 65.0982 84.8496 65.6593C84.8895 66.2212 81.9583 68.5874 79.5496 69.5095C79.5496 69.5095 82.2399 68.9477 83.0026 69.5095C83.0026 69.5095 79.0677 71.4749 77.6221 71.9164C76.1764 72.3579 67.7258 73.3184 67.7258 73.3184L67.2698 66.7387V66.7394Z" fill="#FBC5A9"/>
<path d="M83.1233 63.5346L83.2026 63.7736L75.9354 66.18L75.8561 65.9411L83.1233 63.5346Z" fill="#F3AA7F"/>
<path d="M76.6908 68.0271C79.3574 67.3117 84.2442 65.3951 84.293 65.3752L84.2006 65.1411C84.1518 65.1603 79.2776 67.0718 76.625 67.7842L76.69 68.0271H76.6908Z" fill="#F3AA7F"/>
<path d="M79.5141 69.3897L79.5828 69.632L77.1736 70.3139L77.1049 70.0716L79.5141 69.3897Z" fill="#F3AA7F"/>
<path d="M67.2696 66.7397L67.7249 73.3194L69.2422 73.1415L67.2696 66.7397Z" fill="#F3AA7F"/>
<path d="M62.3633 60.0128V50.2119L54.0959 67.0465L58.6716 66.8745L62.3633 60.0128Z" fill="url(#paint5_linear_240_1574)"/>
<g style="mix-blend-mode:multiply" opacity="0.15">
<path d="M85.0986 22.8856L78.3944 17.874L77.2081 18.2306C77.2081 18.2306 79.0832 31.4003 86.542 32.067L85.0978 22.8863L85.0986 22.8856Z" fill="#8E1C4B"/>
</g>
<path d="M63.2093 31.5354C65.1073 30.3615 67.8877 30.9596 69.133 32.8097C69.9926 31.6056 70.8521 30.4007 71.7109 29.1972C71.5114 29.6941 71.3614 30.2102 71.2631 30.7359C73.3044 30.112 78.1912 29.559 78.2636 29.5509C78.2688 28.9558 78.2733 28.3615 78.2784 27.7664C78.4905 27.8764 78.7027 27.9857 78.9148 28.0935C79.5726 29.088 80.0951 30.1718 80.4535 31.3088C81.0921 30.9883 81.7322 30.665 82.3633 30.3261C82.5636 30.456 82.809 30.5232 83.0462 30.5764C84.9701 31.0127 86.9929 31.0134 88.9175 30.5779C89.1222 29.1603 88.9449 27.6889 88.4098 26.3607C89.2686 27.5649 90.1281 28.769 90.9877 29.9725C92.233 28.123 95.0135 27.5243 96.9114 28.6989C97.9557 27.1573 96.7008 25.0606 95.2027 23.9539C93.7045 22.8472 91.828 22.0247 91.0387 20.3384C90.2966 18.7548 91.1 15.826 91.3188 15.0995L92.5087 13.4553L92.9891 11.628C92.8879 10.6018 92.6669 9.62503 92.3528 8.7125L92.7814 8.65565L91.9086 4.75155C91.1052 1.15679 87.3093 -0.901583 83.8541 0.385266L82.4727 0.899858C81.999 1.32585 81.2355 1.90172 80.0604 1.89508C68.8093 1.82937 69.4974 11.4575 69.4974 11.4575C68.2883 13.3091 67.8803 15.7396 68.7494 17.7692C68.7494 17.7692 69.9327 21.3602 69.082 23.1764C68.2927 24.862 66.4162 25.6852 64.918 26.7911C63.4199 27.8986 62.1657 29.9939 63.2093 31.5362V31.5354Z" fill="#001A30"/>
<path d="M66.3034 30.14C65.6323 29.1463 66.1785 27.8757 66.8895 27.0613C67.6234 26.1909 68.6788 25.7103 69.5842 25.0451C71.3573 23.773 71.5797 22.6626 71.2582 20.585C71.1651 20.0254 71.0372 19.4746 70.8695 18.9305C70.6596 18.4233 70.5413 17.8799 70.5117 17.3328C70.4837 16.6314 70.5879 15.9197 70.8177 15.2567C71.018 14.6595 71.3129 14.1094 71.6876 13.5993L72.7852 12.0444L72.6115 11.9233C72.2249 12.5081 71.327 13.7048 71.0247 14.311C70.548 15.2412 70.3041 16.2955 70.3595 17.341C70.392 17.8939 70.5302 18.486 70.7409 18.9741C70.9101 19.5056 71.0431 20.0534 71.1407 20.6042C71.477 22.6493 71.2752 23.7198 69.5443 24.9897C68.647 25.6623 67.5894 26.1592 66.8636 27.0385C66.1571 27.8646 65.619 29.1478 66.3034 30.1393V30.14Z" fill="#253C55"/>
<path d="M90.2066 18.2622C90.3441 19.6163 90.8082 20.0305 91.4904 20.1338C89.384 21.2383 85.3131 22.5953 78.0177 21.9906C72.2957 21.5167 70.4421 19.0603 69.972 16.8381C70.3852 16.0326 70.4059 14.7258 70.2477 13.0152C69.8974 9.22551 71.6483 4.44505 77.7176 2.40514C83.7869 0.365225 89.2258 4.3941 89.2258 4.3941C89.2258 4.3941 95.5753 3.3376 96.4511 8.96341C97.3262 14.5892 89.8563 14.8225 90.2066 18.2622Z" fill="#001A30"/>
<path d="M91.9755 19.5557C91.9562 24.235 91.3694 26.8323 86.9275 25.8438L86.7161 32.0669C84.8958 34.6775 80.0245 33.2208 77.5715 32.0669C76.5929 31.6069 76.2581 31.0318 76.2581 31.0318L78.0401 21.7868C76.689 22.0423 75.2752 21.1881 74.7571 19.7292C74.1894 18.1308 74.9108 16.4172 76.3675 15.9011C77.8242 15.3836 79.4658 16.2607 80.0334 17.8591C80.0437 17.8879 80.0511 17.9182 80.0607 17.9477C82.2661 17.126 86.3303 14.8579 88.1936 8.96411C88.1936 8.96411 91.8698 11.3259 91.9577 17.3593C91.9577 17.4361 91.9599 17.5114 91.9607 17.5874C91.9644 17.8141 91.9673 18.0363 91.9695 18.2556C91.9725 18.4667 91.974 18.6749 91.9755 18.8794C91.9769 19.109 91.9769 19.3342 91.9755 19.5557Z" fill="#FBC5A9"/>
<path d="M84.787 27.3265C84.787 27.3265 83.3548 29.164 84.787 30.9397C86.2181 32.7154 86.0716 34.6461 85.8509 37.1167C85.6301 39.5872 84.9711 43.4476 83.8318 43.4476C82.6925 43.4476 80.8555 38.5064 80.2686 35.6488C79.6807 32.7923 77.2083 30.6398 77.2083 30.6398C77.2083 30.6398 79.76 23.9004 79.6868 23.2055C79.6653 23.0029 80.1121 24.1165 79.6868 23.2055C91.1348 15.7113 84.787 27.3265 84.787 27.3265Z" fill="#FBC5A9"/>
<path d="M80.0604 17.947C82.2658 17.1252 86.33 14.8572 88.1932 8.96338C88.1932 8.96338 89.6507 9.90101 90.7527 12.1011C87.2664 16.7214 80.0604 17.9462 80.0604 17.9462V17.947Z" fill="#F7A18A"/>
<path d="M76.7833 19.5276H78.8845C78.9518 19.5276 79.0116 19.4848 79.0338 19.4213C79.056 19.3578 79.0346 19.2869 78.9813 19.2455L76.3554 17.2049C76.2867 17.1517 76.1876 17.1636 76.1337 17.233C76.0804 17.3016 76.0923 17.4005 76.161 17.4544L78.4241 19.2123H76.7833C76.6961 19.2123 76.6252 19.2832 76.6252 19.3703C76.6252 19.4574 76.6961 19.5283 76.7833 19.5283V19.5276Z" fill="#F7A18A"/>
<path d="M86.927 25.843C86.927 25.843 83.1525 24.4757 82.2804 22.2948C82.2804 22.2948 82.9729 28.5046 86.7814 29.5508L86.927 25.843Z" fill="#F7A18A"/>
<path d="M120.338 23.6987C114.634 23.6987 110.011 20.8448 110.011 17.3243C110.011 13.8038 114.634 10.9498 120.338 10.9498C126.041 10.9498 130.664 13.8038 130.664 17.3243C130.664 20.8448 126.041 23.6987 120.338 23.6987Z" fill="#2B5279"/>
<path d="M113.639 20.9517C113.639 21.1582 113.02 25.0281 113.175 25.0281C113.33 25.0281 117.148 22.2936 116.942 22.1904C116.735 22.0871 113.639 20.9522 113.639 20.9522V20.9517Z" fill="#2B5279"/>
<path d="M115.16 18.4613C114.534 18.4613 114.026 17.9537 114.026 17.3275C114.026 16.7013 114.534 16.1936 115.16 16.1936C115.787 16.1936 116.294 16.7013 116.294 17.3275C116.294 17.9537 115.787 18.4613 115.16 18.4613Z" fill="white"/>
<path d="M120.234 18.4613C119.607 18.4613 119.1 17.9537 119.1 17.3275C119.1 16.7013 119.607 16.1936 120.234 16.1936C120.86 16.1936 121.367 16.7013 121.367 17.3275C121.367 17.9537 120.86 18.4613 120.234 18.4613Z" fill="white"/>
<path d="M125.307 18.4613C124.681 18.4613 124.173 17.9537 124.173 17.3275C124.173 16.7013 124.681 16.1936 125.307 16.1936C125.933 16.1936 126.441 16.7013 126.441 17.3275C126.441 17.9537 125.933 18.4613 125.307 18.4613Z" fill="white"/>
<path d="M138.756 82.57L115.805 96.3484V116.291L165.818 118.806V96.3484L142.867 82.57C141.601 81.81 140.021 81.81 138.756 82.57Z" fill="#FFAB00"/>
<g filter="url(#filter0_dd_240_1574)">
<path d="M159.798 86.3986H121.826C120.878 86.3986 120.11 87.1666 120.11 88.114V120.564C120.11 121.511 120.878 122.279 121.826 122.279H159.798C160.745 122.279 161.513 121.511 161.513 120.564V88.114C161.513 87.1666 160.745 86.3986 159.798 86.3986Z" fill="#F9F9F9"/>
</g>
<path d="M115.805 96.2865V126.312H165.817V96.2865L140.811 111.3L115.805 96.2865Z" fill="#FFB92B"/>
<path d="M138.712 109.843L115.805 126.312H165.818L142.911 109.843C141.656 108.941 139.967 108.941 138.712 109.843Z" fill="#FFAB00"/>
<path d="M151.331 90.8448H132.03C131.75 90.8448 131.521 91.0747 131.521 91.3557C131.521 91.6367 131.75 91.8666 132.03 91.8666H151.331C151.611 91.8666 151.841 91.6367 151.841 91.3557C151.841 91.0747 151.611 90.8448 151.331 90.8448Z" fill="#DADADA"/>
<path d="M155.924 92.7242H141.302H126.68C126.4 92.7242 126.17 92.9541 126.17 93.2351C126.17 93.5161 126.4 93.746 126.68 93.746H155.924C156.204 93.746 156.434 93.5161 156.434 93.2351C156.434 92.9541 156.204 92.7242 155.924 92.7242Z" fill="#DADADA"/>
<path d="M28.5 33.4413C31.3333 34.5414 39.9285 40.8671 45.5 33.4413C52 24.778 59.9 20.4051 65.5 21.0651" stroke="#2B5279" stroke-opacity="0.35" stroke-width="0.4" stroke-dasharray="1.6 1.6"/>
<defs>
<filter id="filter0_dd_240_1574" x="110.401" y="80.1206" width="60.8204" height="55.2983" filterUnits="userSpaceOnUse" color-interpolation-filters="sRGB">
<feFlood flood-opacity="0" result="BackgroundImageFix"/>
<feColorMatrix in="SourceAlpha" type="matrix" values="0 0 0 0 0 0 0 0 0 0 0 0 0 0 0 0 0 0 127 0" result="hardAlpha"/>
<feOffset dy="0.377176"/>
<feGaussianBlur stdDeviation="0.85774"/>
<feColorMatrix type="matrix" values="0 0 0 0 0 0 0 0 0 0 0 0 0 0 0 0 0 0 0.1 0"/>
<feBlend mode="normal" in2="BackgroundImageFix" result="effect1_dropShadow_240_1574"/>
<feColorMatrix in="SourceAlpha" type="matrix" values="0 0 0 0 0 0 0 0 0 0 0 0 0 0 0 0 0 0 127 0" result="hardAlpha"/>
<feMorphology radius="1.13153" operator="dilate" in="SourceAlpha" result="effect2_dropShadow_240_1574"/>
<feOffset dy="3.43096"/>
<feGaussianBlur stdDeviation="4.2887"/>
<feColorMatrix type="matrix" values="0 0 0 0 0.192157 0 0 0 0 0.192157 0 0 0 0 0.192157 0 0 0 0.05 0"/>
<feBlend mode="normal" in2="effect1_dropShadow_240_1574" result="effect2_dropShadow_240_1574"/>
<feBlend mode="normal" in="SourceGraphic" in2="effect2_dropShadow_240_1574" result="shape"/>
</filter>
<linearGradient id="paint0_linear_240_1574" x1="73.5953" y1="44.6531" x2="73.5953" y2="79.7052" gradientUnits="userSpaceOnUse">
<stop stop-color="#002F5D"/>
<stop offset="1" stop-color="#001932"/>
</linearGradient>
<linearGradient id="paint1_linear_240_1574" x1="92.1605" y1="45.3582" x2="92.1606" y2="79.8678" gradientUnits="userSpaceOnUse">
<stop stop-color="#002F5D"/>
<stop offset="1" stop-color="#001932"/>
</linearGradient>
<linearGradient id="paint2_linear_240_1574" x1="83.3872" y1="53.8881" x2="83.3872" y2="78.2334" gradientUnits="userSpaceOnUse">
<stop stop-color="#7CBCF8"/>
<stop offset="1" stop-color="#75AEFF"/>
</linearGradient>
<linearGradient id="paint3_linear_240_1574" x1="73.8522" y1="53.8889" x2="73.8522" y2="78.2327" gradientUnits="userSpaceOnUse">
<stop stop-color="#3B97D0"/>
<stop offset="1" stop-color="#1B80BD"/>
</linearGradient>
<linearGradient id="paint4_linear_240_1574" x1="82.5095" y1="62.3948" x2="82.5095" y2="78.2334" gradientUnits="userSpaceOnUse">
<stop stop-color="#3B97D0"/>
<stop offset="1" stop-color="#1B80BD"/>
</linearGradient>
<linearGradient id="paint5_linear_240_1574" x1="58.2296" y1="54.175" x2="58.2296" y2="64.0555" gradientUnits="userSpaceOnUse">
<stop stop-color="#002F5D"/>
<stop offset="1" stop-color="#001932"/>
</linearGradient>
</defs>
</svg>
